<svg width="64" height="64" viewBox="0 0 64 64" fill="none" xmlns="http://www.w3.org/2000/svg">
<path d="M42.904 12.8572C46.1091 12.8572 48.8235 16.1735 48.6761 19.3219C48.5582 21.7946 46.8714 23.8818 45.1994 25.7472C42.0743 29.2065 35.6662 34.1333 35.6662 34.1333C32.2403 31.649 29.0718 28.8379 26.2068 25.741C24.5221 23.9108 22.848 21.8029 22.7322 19.3157C22.5826 16.1652 25.3245 13.2448 28.5022 12.851C31.2524 12.509 34.0532 13.9184 35.662 16.1424C35.6578 16.1486 37.9658 12.8572 42.904 12.8572Z" fill="#D6D6D6"/>
<path d="M31.5745 15.5953C31.5872 15.5828 31.6019 15.5455 31.5872 15.5455L31.5472 15.6035L31.5745 15.5953ZM31.5472 15.4439C31.5053 15.478 31.4745 15.5234 31.4587 15.5745C31.5008 15.5206 31.4924 15.5476 31.5429 15.4833C31.5598 15.4833 31.5556 15.5123 31.5429 15.5351C31.5556 15.5206 31.5556 15.5579 31.5809 15.5206C31.6061 15.4833 31.5809 15.4543 31.5282 15.4854C31.5316 15.4705 31.538 15.4563 31.5472 15.4439ZM30.2626 14.9838C30.2626 14.9838 30.2668 14.9838 30.2626 14.9838V14.9838ZM29.4013 14.9444C29.4032 14.9425 29.4043 14.9399 29.4043 14.9372C29.4043 14.9345 29.4032 14.9319 29.4013 14.9299C29.4 14.9347 29.4 14.9397 29.4013 14.9444ZM29.2455 14.8864C29.2455 14.8864 29.2476 14.8802 29.2455 14.8864V14.8864ZM30.2626 14.9838L30.2436 14.9589C30.2394 14.9817 30.2521 14.9776 30.2626 14.9838ZM31.3134 15.5206C31.3206 15.518 31.3271 15.5137 31.3324 15.5082H31.3176L31.3134 15.5206ZM30.648 14.9838V14.9569V14.9838ZM30.9386 15.0398C30.9386 15.0398 30.9154 15.0916 30.907 15.1144C30.9114 15.1008 30.9194 15.0887 30.9301 15.0792C30.9346 15.0664 30.9374 15.0532 30.9386 15.0398ZM31.3471 15.2781H31.3576H31.3471ZM30.4437 14.9361V14.9154C30.4416 14.9222 30.4416 14.9294 30.4437 14.9361ZM26.1541 19.923C26.1541 19.923 26.1541 19.9251 26.1541 19.923V19.923ZM25.9604 20.3044L25.9561 20.3023L25.9246 20.3106L25.9604 20.3044ZM28.9591 14.8553C28.9591 14.8553 28.9633 14.8491 28.9591 14.8553V14.8553ZM26.7437 16.0616C26.8006 16.0761 26.7606 16.1424 26.8322 16.1507C26.8132 16.1383 26.7922 16.0512 26.7437 16.0616ZM31.3113 15.5103H31.3008C31.3008 15.5103 31.3071 15.5123 31.3113 15.5103ZM28.3484 15.0543L28.361 15.075C28.3578 15.0675 28.3536 15.0606 28.3484 15.0543ZM28.8264 15.0149H28.8117H28.8264ZM28.1483 15.2222H28.1294H28.1483ZM27.9167 15.3217L27.9272 15.3299L27.9335 15.3237L27.9167 15.3217ZM26.0277 19.2577L25.9751 19.2701C26.0172 19.2639 26.0341 19.2971 26.0277 19.2577ZM31.326 15.4895C31.326 15.502 31.3155 15.5082 31.3113 15.5103C31.3178 15.5046 31.3229 15.4975 31.326 15.4895ZM28.3126 15.6367H28.2768C28.2884 15.6407 28.301 15.6407 28.3126 15.6367ZM26.2783 17.67C26.2783 17.67 26.2826 17.6742 26.2783 17.67V17.67ZM28.1883 15.703C28.179 15.6912 28.1666 15.6819 28.1525 15.6761C28.1517 15.6809 28.1517 15.6858 28.1525 15.6906L28.1883 15.703Z" fill="#2C2C2C"/>
<path d="M25.8721 20.1966L25.8005 20.153H25.8321C25.851 20.1364 25.8152 20.1427 25.8068 20.1406C25.8552 20.1406 25.8068 20.0908 25.8068 20.0639L25.7668 20.0846C25.6488 20.0411 25.8468 19.952 25.7836 19.9126L25.7036 19.8919L25.7647 19.8711C25.7225 19.8566 25.672 19.8608 25.6867 19.8214C25.771 19.6763 25.6215 19.5582 25.6867 19.4193C25.6765 19.4228 25.6671 19.4284 25.6594 19.4359C25.8131 19.3115 25.4867 19.2659 25.6046 19.154H25.6278C25.6152 19.1022 25.6509 19.154 25.6867 19.1229C25.6088 19.1229 25.6278 19.0566 25.6004 19.0255C25.6152 19.0255 25.6152 19.04 25.6257 19.0504C25.6362 19.0607 25.6889 19.0504 25.6741 19.0276C25.5646 18.9923 25.5772 18.9177 25.5436 18.8617C25.5941 18.8617 25.6425 18.8141 25.7268 18.7954L25.6341 18.7643C25.6678 18.7477 25.6341 18.7312 25.6152 18.7146V18.7747C25.5646 18.7933 25.5772 18.7747 25.5183 18.7747C25.5183 18.7581 25.5035 18.7187 25.5499 18.7187C25.5531 18.7074 25.5597 18.6973 25.5688 18.6897C25.5663 18.6864 25.5649 18.6824 25.5649 18.6783C25.5649 18.6742 25.5663 18.6702 25.5688 18.6669H25.5878C25.6173 18.6358 25.533 18.5778 25.4951 18.5426C25.5667 18.5799 25.5794 18.5426 25.632 18.5426C25.6237 18.5659 25.6187 18.5904 25.6173 18.6151H25.6531C25.7141 18.584 25.6067 18.5446 25.6531 18.4949C25.6638 18.5032 25.6772 18.5076 25.691 18.5073C25.7078 18.4907 25.6678 18.4679 25.6362 18.4596C25.691 18.4596 25.7352 18.4265 25.7141 18.4037C25.6931 18.3809 25.6552 18.3788 25.6636 18.3456L25.6994 18.3664C25.7352 18.3332 25.6488 18.327 25.6846 18.3C25.6678 18.3 25.7057 18.3166 25.7162 18.3C25.7015 18.2565 25.6825 18.2524 25.613 18.2089L25.6699 18.2254C25.6404 18.184 25.5878 18.1052 25.6699 18.1218C25.5478 18.1073 25.6236 18.0327 25.6341 18.0037C25.6341 18.0037 25.6594 18.0223 25.672 18.0265C25.6088 17.9456 25.6973 17.8979 25.7162 17.8378L25.8047 17.8523C25.8047 17.8192 25.6467 17.7611 25.6615 17.7259L25.6973 17.7508C25.6998 17.7009 25.7182 17.653 25.7499 17.614L25.8068 17.6326C25.7836 17.6057 25.7941 17.585 25.7752 17.558C25.9268 17.558 25.7752 17.3673 25.9458 17.3508L25.8447 17.3031C25.8573 17.2741 25.8573 17.2305 25.9395 17.2513C26.0174 17.2886 25.9563 17.2264 25.9816 17.216C26.0068 17.2057 25.9352 17.1642 25.9142 17.1684C26.0005 17.1186 25.9984 16.9818 26.1142 16.986C26.1142 16.8989 26.0763 16.8015 26.1311 16.731C26.1551 16.7134 26.1843 16.7038 26.2143 16.7038C26.2442 16.7038 26.2734 16.7134 26.2974 16.731C26.3122 16.6688 26.2301 16.5652 26.2974 16.5238L26.3185 16.5569C26.3438 16.5569 26.3185 16.501 26.3185 16.4885C26.3185 16.4761 26.3353 16.4885 26.3459 16.5072C26.3564 16.5258 26.3459 16.474 26.3459 16.4574L26.369 16.4802C26.4554 16.4699 26.4154 16.3206 26.4764 16.273C26.4764 16.2895 26.5059 16.3041 26.5228 16.3103C26.4596 16.2191 26.5375 16.1673 26.5438 16.1279L26.5607 16.1693C26.5607 16.0781 26.6786 16.2004 26.6702 16.1092L26.6007 16.0968C26.6323 16.0968 26.6323 16.0595 26.6007 16.0325C26.647 16.0325 26.6618 16.0843 26.6997 16.0574C26.7207 16.074 26.6997 16.0947 26.7291 16.1092H26.826C26.826 16.1092 26.8408 16.1092 26.8471 16.0885C26.7523 16.0035 26.8808 16.0491 26.7692 15.9849C26.8281 15.9165 26.9397 15.9268 26.9566 15.8336C27.0598 15.9019 27.0745 15.7403 27.1672 15.8667C27.2009 15.8418 27.2051 15.7962 27.1861 15.7299C27.1714 15.7299 27.1756 15.7486 27.1735 15.7589C27.1566 15.7216 27.1924 15.6843 27.2114 15.6719C27.2001 15.7238 27.2001 15.7775 27.2114 15.8294C27.227 15.7832 27.2362 15.7351 27.2388 15.6864L27.2977 15.7465C27.2977 15.6781 27.3567 15.7817 27.3356 15.6988L27.3167 15.6822C27.3672 15.6553 27.3167 15.589 27.3609 15.5475L27.3777 15.5765C27.4009 15.5765 27.3777 15.4978 27.4388 15.5496L27.4093 15.5703C27.4372 15.6001 27.4709 15.6241 27.5083 15.6408C27.5315 15.6076 27.4683 15.5537 27.4788 15.5372C27.5146 15.5786 27.4957 15.56 27.5146 15.6118C27.5512 15.5659 27.5692 15.5083 27.5652 15.4501C27.566 15.4556 27.566 15.4612 27.5652 15.4667C27.6073 15.4543 27.5925 15.3506 27.641 15.3776C27.7105 15.4294 27.6852 15.2677 27.7568 15.3776C27.7842 15.3921 27.721 15.3921 27.7779 15.4377C27.8431 15.4501 27.7526 15.3195 27.8115 15.332V15.3485C27.8447 15.3274 27.8751 15.3024 27.9021 15.2739C27.9905 15.3548 28.0158 15.191 28.1127 15.2864C28.0811 15.2511 28.1127 15.2325 28.0958 15.2138C28.0944 15.22 28.0944 15.2263 28.0958 15.2325C28.1148 15.2325 28.0958 15.1889 28.0958 15.1703C28.1253 15.1993 28.1295 15.1123 28.1485 15.1309C28.1485 15.106 28.1485 15.106 28.1716 15.1019C28.1506 15.1433 28.1843 15.162 28.1864 15.2076C28.2369 15.2076 28.1864 15.0708 28.2517 15.0729L28.298 15.1143C28.2748 15.0356 28.3338 15.048 28.3212 15.019C28.3431 15.0376 28.3592 15.0621 28.3675 15.0895C28.3822 15.0646 28.4265 15.0895 28.418 15.048L28.3928 15.0335C28.4644 15.0335 28.4665 14.9195 28.5317 14.9568L28.5654 15.0749C28.6118 15.1143 28.6076 14.992 28.6539 15.0563C28.6328 15.019 28.6349 15.0314 28.6539 14.9858C28.6391 14.9858 28.6244 15.019 28.6033 15.0252L28.6286 14.9423L28.5696 14.9962C28.5844 14.9423 28.5865 14.9547 28.5696 14.9091C28.6012 14.8594 28.6307 14.9527 28.6581 14.8967C28.677 14.9091 28.6728 14.9547 28.696 14.9755C28.7213 14.9257 28.7844 15.0459 28.795 14.9755C28.8055 14.9755 28.7802 14.9755 28.795 15.0086C28.816 14.9941 28.8329 14.9941 28.8308 14.9568H28.8097C28.8266 14.9568 28.8097 14.9071 28.8581 14.9278C28.8708 14.8946 28.8581 14.8324 28.8476 14.8366C28.8371 14.8407 28.8813 14.8552 28.8813 14.8926C28.934 14.8926 28.8813 14.7599 28.9424 14.8055C28.9407 14.8083 28.9398 14.8116 28.9398 14.8148C28.9398 14.8181 28.9407 14.8213 28.9424 14.8242H28.974C28.9319 14.8428 29.0077 14.9174 28.9508 14.9071C28.9698 14.9692 28.9929 14.9071 29.014 14.934C29.0308 14.8884 28.9992 14.8428 29.014 14.8076C29.014 14.8283 29.0266 14.8262 29.0414 14.8345L29.0203 14.7868C29.0268 14.7866 29.0331 14.7849 29.0389 14.7821C29.0447 14.7792 29.0499 14.7752 29.054 14.7703L29.035 14.7931C29.0603 14.7931 29.1087 14.8698 29.1424 14.8179C29.1424 14.8387 29.1193 14.8822 29.1424 14.9029C29.1824 14.8635 29.1551 14.9216 29.1867 14.9547C29.2267 14.9382 29.1867 14.8656 29.2498 14.8863C29.2498 14.8863 29.2498 14.8573 29.2372 14.8449C29.2856 14.8615 29.3067 14.8262 29.353 14.8594C29.3341 14.847 29.3172 14.8324 29.3404 14.8055C29.3404 14.847 29.3804 14.8407 29.3993 14.8635V14.8387C29.4162 14.8656 29.3993 14.876 29.3993 14.8863C29.3993 14.8967 29.3993 14.8698 29.3867 14.8739C29.3741 14.878 29.3867 14.9879 29.4183 14.9941C29.452 14.9672 29.4415 14.9029 29.433 14.878C29.4836 14.9008 29.4688 14.762 29.5194 14.7972C29.5194 14.7972 29.572 14.8926 29.6057 14.8988C29.6205 14.8407 29.5615 14.8594 29.5783 14.8096C29.6394 14.9464 29.6921 14.7205 29.7679 14.8096V14.878C29.7854 14.8852 29.8051 14.8852 29.8226 14.878L29.7974 14.8407C29.8142 14.8242 29.8542 14.8407 29.8416 14.8905C29.8795 14.8345 29.8879 14.8656 29.9237 14.8905C29.8858 14.8905 29.9237 14.8801 29.8942 14.9154C29.9321 14.9506 29.9363 14.9278 29.9637 14.9154C29.9637 14.9402 29.9637 14.9775 29.9827 14.9796C30.01 14.9361 30.0522 14.9485 30.0901 14.9278V14.9464C30.1532 14.9257 30.2101 15.0211 30.2733 14.9692C30.2585 14.9008 30.3238 14.9299 30.347 14.905C30.347 14.9216 30.347 14.9506 30.3575 14.9527C30.3575 14.8905 30.3849 14.9236 30.3975 14.8967C30.4144 14.9195 30.3849 14.9692 30.4207 14.9692C30.4565 14.9692 30.4417 14.9361 30.4438 14.9112C30.4442 14.9248 30.4478 14.938 30.4544 14.9499C30.461 14.9618 30.4704 14.972 30.4818 14.9796C30.4818 14.9941 30.467 14.9796 30.4628 14.9796C30.4586 14.9796 30.4628 15.0003 30.4628 15.0418C30.4775 15.0418 30.4775 14.9858 30.4944 15.0086L30.4691 15.0542C30.4691 15.0667 30.4881 15.0542 30.4923 15.0542C30.4782 15.0812 30.4703 15.1109 30.4691 15.1413C30.5218 15.1123 30.5007 15.0148 30.5112 14.961C30.5512 15.0045 30.5955 14.9506 30.6334 14.961L30.6165 15.0148C30.6258 15.0123 30.6343 15.0076 30.6412 15.0011C30.6482 14.9946 30.6535 14.9865 30.6565 14.9775H30.6818C30.6601 14.9985 30.6467 15.0264 30.6439 15.0563C30.6755 15.0459 30.7113 15.0563 30.7345 14.9941V15.0065C30.766 15.0418 30.8397 15.0708 30.8313 15.0977C30.8755 15.0832 30.9135 15.1392 30.9345 15.0667C30.964 15.0667 30.9682 15.1786 31.0124 15.0915C31.0251 15.1475 31.0124 15.1123 30.9829 15.162C30.9956 15.218 31.0609 15.104 31.0398 15.2097C31.0798 15.1869 31.0398 15.1869 31.063 15.1433C31.0398 15.2428 31.1177 15.1744 31.1282 15.2408C31.1556 15.2076 31.1282 15.2138 31.1598 15.1807V15.2159L31.1851 15.1599L31.164 15.3175C31.2314 15.2636 31.1914 15.2117 31.2609 15.2055C31.2609 15.2719 31.322 15.1744 31.3451 15.2366C31.3451 15.22 31.3283 15.2636 31.3178 15.2781L31.3515 15.2615C31.35 15.2662 31.35 15.2713 31.3515 15.276C31.3515 15.3278 31.3809 15.2594 31.3873 15.3071C31.3662 15.3071 31.3536 15.3589 31.3515 15.3817L31.4125 15.332L31.3662 15.4045C31.3936 15.4252 31.4989 15.3216 31.4652 15.4356H31.4441C31.4441 15.4542 31.421 15.5164 31.4589 15.4853C31.4968 15.4542 31.4968 15.4356 31.4862 15.4335V15.4584C31.474 15.4748 31.4577 15.4877 31.4389 15.4961C31.4201 15.5044 31.3994 15.5079 31.3788 15.5061C31.3957 15.4895 31.4231 15.4812 31.4315 15.446C31.402 15.446 31.3662 15.477 31.3388 15.4853C31.3568 15.4646 31.373 15.4424 31.3873 15.419C31.3873 15.3796 31.3557 15.446 31.3346 15.4439C31.3342 15.4242 31.3393 15.4049 31.3494 15.3879C31.3178 15.4024 31.2967 15.4004 31.2841 15.3631C31.2841 15.3631 31.3262 15.3361 31.3241 15.2988C31.2651 15.3154 31.2314 15.3755 31.1683 15.3941C31.0819 15.4646 31.0798 15.2967 31.0187 15.3527C31.0187 15.3776 31.0335 15.4045 31.004 15.4128C31.023 15.3651 31.004 15.3776 31.004 15.3568C30.9556 15.4211 30.9682 15.3299 30.9345 15.3734V15.3154C30.9535 15.2553 30.9092 15.2822 30.9766 15.2076C30.9071 15.2864 30.905 15.1641 30.8355 15.2947V15.3133L30.8018 15.2739C30.7871 15.2594 30.7808 15.2739 30.7703 15.2055C30.785 15.1931 30.8018 15.1952 30.8145 15.1848C30.8145 15.1226 30.7555 15.218 30.7302 15.2159C30.7408 15.1724 30.7597 15.2159 30.766 15.1516C30.7492 15.1392 30.7239 15.1682 30.705 15.1786V15.1537C30.6713 15.0895 30.6607 15.2719 30.6439 15.1827V15.2263C30.6439 15.1972 30.6186 15.1475 30.6439 15.1226C30.6292 15.1226 30.606 15.1371 30.5934 15.1641C30.5807 15.191 30.606 15.1848 30.5934 15.2325L30.526 15.247C30.526 15.247 30.526 15.2221 30.5428 15.2242C30.4923 15.0749 30.3765 15.3133 30.3154 15.1433C30.3154 15.1848 30.3154 15.1786 30.2922 15.2055C30.267 15.1889 30.2248 15.1952 30.2017 15.1661V15.1392C30.1322 15.1682 30.0837 15.2117 30.0437 15.191C30.0437 15.2035 30.0437 15.1496 30.0543 15.1433C30.0185 15.1931 29.989 15.0273 29.9742 15.1433H29.9869C29.9216 15.1185 29.85 15.1993 29.7763 15.2138C29.7616 15.1496 29.8142 15.2138 29.7995 15.1288C29.7531 15.104 29.7089 15.1599 29.6584 15.1288V15.1081C29.6057 15.0667 29.6584 15.1744 29.6226 15.1641C29.6226 15.133 29.6226 15.1247 29.6078 15.1081V15.1599C29.6037 15.1387 29.6037 15.1169 29.6078 15.0957C29.5931 15.1641 29.5341 15.1226 29.5236 15.1889C29.5255 15.1551 29.5255 15.1212 29.5236 15.0874C29.5004 15.0687 29.4878 15.0874 29.4752 15.1226C29.4562 15.077 29.4183 15.0874 29.4246 15.0791C29.3825 15.0604 29.4246 15.1164 29.3951 15.1579L29.4288 15.1848L29.3762 15.2035L29.3951 15.1703C29.3657 15.1475 29.3467 15.2055 29.3172 15.2076L29.3341 15.2428L29.3046 15.2698C29.292 15.1931 29.2604 15.2698 29.2667 15.1682C29.1972 15.1392 29.1719 15.2449 29.1193 15.2594V15.2304C29.0835 15.218 29.0708 15.2615 29.0582 15.3029C29.0603 15.285 29.0603 15.267 29.0582 15.2491C29.0203 15.2491 29.0435 15.2967 29.0056 15.3278C29.0056 15.2947 29.0056 15.2781 28.9908 15.2739C28.9949 15.2831 28.997 15.293 28.997 15.3029C28.997 15.3129 28.9949 15.3228 28.9908 15.332C28.9908 15.1744 28.9319 15.2822 28.9255 15.1579C28.9255 15.191 28.8771 15.2698 28.9108 15.3257V15.3133C28.9108 15.3548 28.9108 15.3403 28.8918 15.3465C28.8947 15.3377 28.8947 15.3283 28.8918 15.3195C28.8455 15.3838 28.7718 15.3485 28.7171 15.4045C28.7171 15.3879 28.736 15.3527 28.7171 15.3465C28.6455 15.3465 28.6286 15.4335 28.5781 15.4895C28.5444 15.3962 28.6434 15.4543 28.6181 15.3651C28.5476 15.4095 28.4867 15.4673 28.4391 15.5351C28.3612 15.4087 28.3885 15.6159 28.3022 15.5351C28.3233 15.5786 28.3022 15.6035 28.2833 15.6138C28.2833 15.5745 28.2496 15.5828 28.2475 15.5537C28.2475 15.6014 28.1885 15.647 28.1527 15.5537C28.1843 15.6387 28.1043 15.5724 28.1148 15.6387C28.0727 15.6201 28.0664 15.6822 28.02 15.6719C28.0579 15.7175 28.0011 15.7113 27.999 15.7382C28.0005 15.735 28.0013 15.7314 28.0013 15.7278C28.0013 15.7243 28.0005 15.7207 27.999 15.7175C27.9653 15.6781 27.9821 15.7755 27.9505 15.7589C27.9189 15.7424 27.9274 15.7113 27.9105 15.7154C27.9295 15.7506 27.9105 15.819 27.8642 15.7859V15.7465C27.8136 15.8522 27.6789 15.8336 27.6431 15.9538L27.6199 15.8874C27.5167 15.8481 27.6494 16.0014 27.6031 16.0201C27.4788 16.0678 27.304 16.0781 27.2345 16.2004C27.2345 16.2211 27.2556 16.2149 27.2767 16.2357C27.2619 16.2357 27.2219 16.1963 27.2345 16.2357L27.2619 16.2605C27.1503 16.2294 27.184 16.4222 27.0513 16.3455C27.0513 16.4263 26.9524 16.389 26.9713 16.4989C26.9313 16.4989 26.9397 16.4388 26.9123 16.4533V16.5341C26.9587 16.6502 26.7018 16.5859 26.7249 16.6958C26.7039 16.6792 26.6681 16.673 26.6681 16.6958C26.6681 16.7186 26.6933 16.7103 26.7165 16.7165C26.7155 16.7669 26.7033 16.8164 26.6807 16.8616C26.6618 16.8222 26.6386 16.8616 26.5923 16.8347C26.6133 16.8657 26.6449 16.8595 26.6512 16.901C26.6575 16.9424 26.567 16.9528 26.5291 16.9756C26.5628 17.0129 26.5291 17.0233 26.5902 17.0544C26.5785 17.1011 26.563 17.1469 26.5438 17.1912H26.5249C26.5817 17.2409 26.4638 17.2223 26.4954 17.2513C26.4743 17.2388 26.468 17.2264 26.4491 17.2202V17.2554C26.4364 17.2326 26.3775 17.1953 26.3585 17.2119C26.3943 17.2575 26.3922 17.2119 26.4259 17.2513L26.3606 17.2285C26.3606 17.2492 26.4259 17.2865 26.4554 17.2761C26.428 17.3342 26.4301 17.4026 26.3943 17.4482L26.3564 17.4254C26.3579 17.4343 26.3575 17.4434 26.3551 17.4522C26.3528 17.4609 26.3486 17.4691 26.3428 17.4761C26.3371 17.4832 26.3299 17.4889 26.3217 17.4931C26.3135 17.4972 26.3045 17.4995 26.2953 17.5C26.308 17.5 26.3269 17.5228 26.3417 17.5228C26.3859 17.5808 26.2722 17.4979 26.3185 17.5622C26.3109 17.544 26.2977 17.5288 26.2806 17.5186L26.3038 17.6098C26.2722 17.5995 26.1858 17.6098 26.2006 17.6575C26.2085 17.6611 26.2171 17.6629 26.2258 17.6629C26.2346 17.6629 26.2432 17.6611 26.2511 17.6575V17.6824L26.2069 17.6928L26.2595 17.7446L26.2069 17.7218C26.2069 17.7487 26.2848 17.7839 26.2743 17.7985C26.2153 17.8482 26.1985 17.8275 26.1248 17.8565C26.2427 17.8979 26.0974 17.929 26.1795 17.9643C26.0679 17.9995 26.1016 18.1073 26.0574 18.1715H26.0468C25.9837 18.1943 26.1311 18.2316 26.0974 18.2627L26.0805 18.2503C26.0026 18.2835 26.049 18.383 26.0932 18.4368C26.0763 18.4244 26.0363 18.4244 26.0384 18.4368C26.0405 18.4493 26.1269 18.4368 26.0995 18.4617H26.0595L26.1163 18.497C26.0616 18.555 26.0068 18.6317 26.0384 18.7042C26.0153 18.7167 25.9942 18.7042 25.9731 18.7042C25.9731 18.7623 26.0279 18.8203 26.0342 18.87H25.9626C25.9626 18.8949 26.0721 18.8908 26.0089 18.9198C26.0089 18.9198 26.0089 18.8991 25.971 18.8887C25.9163 18.9364 26.0405 18.9198 26.0321 18.9675L25.9479 18.9529C25.8994 18.9882 25.99 18.9965 26.0363 19.0089C26.1311 19.0607 25.8805 19.0441 25.95 19.1146H26.049C26.0279 19.1644 26.0869 19.1685 26.07 19.2162C25.95 19.2473 26.07 19.1913 25.9563 19.2162L25.9816 19.1789C25.9205 19.212 25.9647 19.1498 25.8931 19.1561C25.8742 19.1809 25.9352 19.2162 25.9626 19.2473C25.9079 19.2473 25.9626 19.21 25.8805 19.2286L25.9037 19.2431C25.8889 19.2431 25.8679 19.2431 25.8679 19.2307C25.8173 19.2307 25.8679 19.2514 25.8679 19.2659C25.9036 19.2686 25.9395 19.2686 25.9752 19.2659H25.9563C26.0363 19.2949 25.9795 19.3509 26.0426 19.3737C26.0316 19.3705 26.0199 19.3705 26.0089 19.3737C26.0089 19.3944 26.0805 19.4069 26.1037 19.4297C26.0658 19.4462 25.9837 19.4297 26.011 19.4711C26.0574 19.4711 26.1332 19.4483 26.1353 19.4711C26.1353 19.4711 26.0953 19.4462 26.0658 19.4711C26.1016 19.5001 26.0532 19.4836 26.0068 19.5188C26.0721 19.5188 25.9879 19.5561 26.0911 19.5457C26.0594 19.5528 26.0299 19.567 26.0047 19.5872C26.0574 19.5706 26.0637 19.6183 26.1311 19.6079C26.0553 19.6286 26.0321 19.5851 25.9584 19.6245C26.011 19.6369 26.0342 19.668 26.1163 19.6577C26.0974 19.6763 26.0721 19.6867 26.0679 19.7095C26.0637 19.7323 26.0553 19.7095 26.0468 19.7095C26.11 19.7385 26.0679 19.8069 26.1711 19.809C26.0511 19.8255 26.1711 19.8939 26.0595 19.8877C26.0595 19.9043 26.1206 19.9167 26.1437 19.9188C26.0532 19.9375 26.129 19.9644 26.0826 19.9934C26.1353 19.9934 26.1269 20.0224 26.1627 20.0328C26.1449 20.0268 26.1257 20.0268 26.1079 20.0328C26.1521 20.0328 26.1079 20.0473 26.0763 20.0763C26.1121 20.095 26.1437 20.0515 26.19 20.0556C26.1774 20.0846 26.1353 20.0763 26.0995 20.0908H26.1985C26.1861 20.1037 26.171 20.1136 26.1542 20.1199C26.1837 20.1199 26.2237 20.1199 26.1858 20.153V20.124L26.1437 20.1489L26.2069 20.1966C26.1407 20.2607 26.0548 20.3015 25.9626 20.3126L25.9395 20.296C25.9079 20.296 25.8952 20.3271 25.8952 20.3375L25.8721 20.1966ZM25.9584 18.727V18.7104V18.727ZM25.9163 18.6586C25.9163 18.6586 25.9352 18.6711 25.9563 18.6711C25.9551 18.6614 25.9551 18.6517 25.9563 18.642C25.9352 18.64 25.9226 18.6545 25.91 18.6483L25.9163 18.6586ZM25.5688 18.7623C25.568 18.7554 25.568 18.7484 25.5688 18.7415C25.5562 18.7415 25.5436 18.7415 25.552 18.7581L25.5688 18.7623ZM25.6088 18.7726H25.6236H25.6046H25.6088Z" fill="#2C2C2C"/>
<path d="M26.2784 17.7488L26.2637 17.7446L26.2742 17.7529L26.2784 17.7488ZM30.6291 15.2512C30.6281 15.2567 30.6281 15.2623 30.6291 15.2678C30.631 15.2624 30.631 15.2565 30.6291 15.2512ZM30.7933 15.2988L30.8123 15.3258C30.8086 15.3153 30.8021 15.3059 30.7933 15.2988ZM30.9092 15.361L30.9197 15.3382L30.9092 15.361ZM28.9234 15.3838C28.9107 15.4004 28.917 15.3942 28.9234 15.3838V15.3838ZM29.4982 15.16L29.4793 15.189C29.4919 15.1931 29.5004 15.1931 29.4982 15.16ZM28.3211 15.645L28.3169 15.6471L28.3211 15.645Z" fill="#2C2C2C"/>
<path d="M29.4519 15.1889C29.4645 15.2014 29.473 15.1889 29.4793 15.1889C29.4856 15.1889 29.4603 15.1807 29.4519 15.1889ZM31.423 15.5682C31.423 15.5682 31.4272 15.562 31.423 15.5682V15.5682ZM31.4504 15.5579H31.4314C31.4314 15.5579 31.4398 15.5703 31.4504 15.5579ZM31.2714 15.4812V15.4998C31.2722 15.4937 31.2722 15.4874 31.2714 15.4812ZM31.2208 15.4688C31.2208 15.4688 31.2335 15.5206 31.2545 15.5144V15.4998C31.2419 15.5268 31.2461 15.4397 31.2208 15.4688ZM31.1029 15.1496L31.1408 15.1786C31.1408 15.1558 31.1408 15.1226 31.1619 15.1247C31.1282 15.0418 31.1555 15.1744 31.1029 15.1496ZM30.9744 15.0791C31.0018 15.0791 30.9744 15.048 30.9871 15.0356C30.9997 15.0231 30.9618 15.0563 30.9744 15.0791ZM29.9573 14.9257V14.8739C29.9405 14.8801 29.9594 14.8946 29.9573 14.9257ZM29.7636 15.1993L29.7825 15.2325L29.7888 15.1848L29.7636 15.1993ZM29.6393 14.8242L29.6478 14.8179L29.6162 14.8366L29.6393 14.8242ZM27.9357 15.2553L27.9694 15.3133C27.9757 15.2967 27.9462 15.2221 27.9357 15.2553ZM27.3166 15.6905C27.2892 15.6677 27.2597 15.6636 27.2682 15.6905C27.285 15.6905 27.3145 15.703 27.3166 15.6905ZM25.8509 17.3839L25.8362 17.3611L25.8425 17.3964L25.8509 17.3839Z" fill="#2C2C2C"/>
<path d="M57.2155 35.9769C56.4515 34.3386 54.506 33.6324 52.8714 34.3986C51.7236 34.9373 50.6395 35.4476 49.6153 35.9311C44.2421 38.4644 39.5702 40.0021 36.5846 41.0346C36.5503 41.2082 36.2139 41.7527 36.1583 41.9235C35.6958 42.2791 35.0995 43.7333 33.2155 43.7333C32.7543 43.7333 32.8599 43.5555 32.2587 43.5021L25.0636 41.1227C25.0821 41.5112 25.0511 40.7336 25.0636 41.1227L27.5362 41.9402L32.2587 43.5021C32.5985 43.614 32.8763 43.7333 33.2155 43.7333C34.5262 43.7333 35.7751 42.8859 36.2891 41.6449C36.3218 41.5691 36.3593 41.497 36.3855 41.4179C36.9507 39.7005 36.0201 37.8488 34.3071 37.2823L20.7702 32.7953C20.431 32.6829 17.0866 31.6727 16.7545 31.6127C15.4836 31.3851 14.3946 31.6127 12.1943 32.4995L1.12231 37.9121L1.68992 40.2353C2.25671 42.5552 3.15445 44.7815 4.35551 46.8456L5.56676 48.9272L12.1921 46.1309C12.7671 45.9874 13.5174 45.6708 14.1 45.5513C14.8776 45.3903 15.5604 45.6228 16.4087 45.6643C23.2608 47.779 27.5798 48.9272 31.5753 48.9272C37.1195 48.9272 42.0679 46.7252 52.3972 41.8561C53.4181 41.3743 54.4973 40.8662 55.6419 40.3292C57.2754 39.563 57.9794 37.6147 57.2155 35.9769Z" fill="#D6D6D6"/>
<path d="M36.2713 38.9274L36.3336 38.9422L36.3096 38.9486C36.2982 38.9637 36.3243 38.9522 36.3311 38.9519C36.2942 38.9618 36.3401 38.9854 36.3449 39.0036L36.3716 38.9815C36.4692 38.9868 36.3347 39.0873 36.3899 39.101L36.4545 39.0986L36.4118 39.1251C36.4465 39.1263 36.4842 39.1132 36.4801 39.1427C36.4422 39.2578 36.5773 39.307 36.5527 39.414C36.5599 39.4095 36.566 39.4038 36.5706 39.3972C36.4761 39.5124 36.7326 39.4767 36.6632 39.5762L36.6455 39.5809C36.6645 39.6133 36.6279 39.5856 36.6063 39.6139C36.6656 39.598 36.6632 39.6466 36.6896 39.662C36.6784 39.665 36.6758 39.6552 36.6659 39.6504C36.656 39.6456 36.6178 39.6633 36.6332 39.6757C36.7228 39.6771 36.7267 39.73 36.7624 39.7609C36.724 39.7712 36.6958 39.8132 36.6351 39.843L36.7112 39.8451C36.6885 39.8631 36.7172 39.8674 36.7346 39.8748L36.7237 39.8342C36.7588 39.8113 36.7526 39.8265 36.7974 39.8145C36.8004 39.8256 36.8187 39.8492 36.7835 39.8587C36.7831 39.867 36.7799 39.8751 36.7743 39.8821C36.7769 39.8838 36.7786 39.8862 36.7794 39.889C36.7801 39.8918 36.7798 39.8947 36.7784 39.8975L36.764 39.9013C36.7472 39.9283 36.8218 39.9503 36.857 39.9663C36.7958 39.9558 36.7929 39.9835 36.7529 39.9942C36.755 39.9768 36.7543 39.9593 36.751 39.9423L36.7237 39.9496C36.6829 39.983 36.7717 39.9877 36.7455 40.0307C36.7357 40.0272 36.7248 40.027 36.7144 40.03C36.7046 40.0446 36.7391 40.0519 36.7646 40.051C36.723 40.0622 36.6954 40.0936 36.7155 40.1047C36.7356 40.1157 36.7648 40.1094 36.7644 40.1335L36.7334 40.1268C36.7122 40.1565 36.779 40.1431 36.7566 40.1686C36.7695 40.1651 36.7376 40.1617 36.7326 40.175C36.7517 40.2013 36.7669 40.2003 36.8276 40.2155L36.7813 40.2159C36.8113 40.2378 36.8655 40.2802 36.8001 40.2858C36.8956 40.2707 36.8514 40.3365 36.8487 40.3582C36.8487 40.3582 36.8261 40.3508 36.8157 40.3505C36.8784 40.3922 36.8197 40.4424 36.8162 40.4868L36.7463 40.495C36.7523 40.5174 36.8829 40.5243 36.878 40.5511L36.8463 40.5416C36.8534 40.5758 36.848 40.6119 36.831 40.6446L36.7844 40.6437C36.8069 40.6571 36.8026 40.6732 36.8219 40.6875C36.7066 40.7185 36.8564 40.8162 36.7296 40.8621L36.8151 40.8737C36.8107 40.8958 36.8186 40.9252 36.7524 40.928C36.6864 40.9187 36.7441 40.9482 36.7267 40.9603C36.7094 40.9724 36.7713 40.9858 36.7866 40.9787C36.7299 41.0299 36.7562 41.1217 36.6674 41.1425C36.6831 41.2013 36.7296 41.2593 36.7007 41.3179C36.6856 41.3348 36.6651 41.3471 36.6423 41.3533C36.6195 41.3594 36.5956 41.3589 36.5741 41.3519C36.5741 41.3968 36.6553 41.45 36.6116 41.4917L36.5896 41.4736C36.5703 41.4787 36.5997 41.5113 36.6019 41.5197C36.6042 41.5281 36.5891 41.5232 36.5777 41.5127C36.5664 41.5023 36.5837 41.5351 36.5867 41.5463L36.565 41.5356C36.5012 41.5602 36.5586 41.6527 36.5208 41.6973C36.5178 41.6861 36.4927 41.6824 36.4788 41.6816C36.5433 41.7303 36.4934 41.7811 36.4957 41.8089L36.4754 41.7844C36.4919 41.8459 36.3801 41.7875 36.403 41.8473L36.4581 41.8415C36.4341 41.8479 36.4408 41.8731 36.4697 41.8848C36.4345 41.8943 36.4139 41.8623 36.3899 41.8882C36.3709 41.8813 36.3832 41.8631 36.3581 41.8593L36.2844 41.879C36.2844 41.879 36.2732 41.882 36.2722 41.8973C36.3596 41.9353 36.2537 41.9307 36.3502 41.9513C36.3177 42.0095 36.2309 42.0253 36.235 42.0916C36.1441 42.0665 36.1621 42.1786 36.0688 42.1122C36.0476 42.1358 36.0527 42.1674 36.0791 42.2083C36.0903 42.2053 36.0837 42.1936 36.0835 42.1861C36.103 42.2079 36.0825 42.2403 36.0704 42.2526C36.0696 42.2153 36.0599 42.179 36.0419 42.1463C36.0384 42.1807 36.04 42.215 36.0469 42.2484L35.9912 42.2199C36.0036 42.266 35.94 42.2081 35.971 42.2597L35.9884 42.2671C35.9548 42.2955 36.0052 42.33 35.9791 42.367L35.961 42.3508C35.9434 42.3555 35.9753 42.4039 35.9195 42.3814L35.9381 42.3614C35.9116 42.347 35.8816 42.3377 35.8501 42.3341C35.8385 42.3612 35.8963 42.3847 35.8913 42.398C35.8565 42.3773 35.8743 42.386 35.8506 42.3549C35.8311 42.3934 35.8278 42.4359 35.8413 42.4743C35.8397 42.4708 35.8387 42.467 35.8383 42.4631C35.8085 42.4801 35.8385 42.547 35.7968 42.5387C35.7346 42.5179 35.783 42.6218 35.7087 42.5623C35.6852 42.5581 35.7333 42.5452 35.6818 42.526C35.6299 42.531 35.7224 42.6006 35.6753 42.6042L35.6723 42.593C35.6508 42.614 35.6322 42.6371 35.6169 42.6618C35.535 42.6253 35.5454 42.7409 35.4544 42.6964C35.4848 42.7137 35.4642 42.7327 35.4804 42.7419C35.4804 42.7374 35.4792 42.7331 35.477 42.7293C35.4626 42.7331 35.4849 42.7586 35.4882 42.7712C35.4606 42.7577 35.4731 42.8172 35.4553 42.8085C35.4598 42.8253 35.4598 42.8253 35.4429 42.8328C35.4515 42.8006 35.4225 42.7948 35.4126 42.7645C35.3742 42.7748 35.4373 42.8568 35.3873 42.8687L35.3446 42.8502C35.3764 42.8986 35.3293 42.9022 35.3442 42.9192C35.3241 42.9111 35.3075 42.8979 35.2962 42.8811C35.2895 42.9009 35.2514 42.8931 35.2653 42.9194L35.2871 42.924C35.2326 42.9386 35.2517 43.0159 35.1953 43.0041L35.1483 42.9312C35.1059 42.9141 35.1312 42.9958 35.0844 42.9619C35.1071 42.9827 35.1033 42.9748 35.0971 43.0094C35.1083 43.0064 35.1135 42.981 35.1284 42.9725L35.1242 43.0336L35.1593 42.9852C35.1578 43.0246 35.154 43.0166 35.175 43.044C35.16 43.084 35.1207 43.027 35.11 43.0704C35.0933 43.0658 35.0883 43.0342 35.0669 43.025C35.0567 43.0637 34.9869 42.9955 34.9916 43.0451C34.9836 43.0473 35.0029 43.0421 34.9857 43.0228C34.9723 43.0369 34.9594 43.0403 34.9678 43.065L34.9838 43.0607C34.971 43.0642 34.9928 43.0943 34.9522 43.0902C34.9486 43.1151 34.9694 43.1545 34.9767 43.1495C34.984 43.1446 34.9477 43.1438 34.941 43.1187C34.9009 43.1294 34.9649 43.2081 34.9102 43.1898C34.911 43.1876 34.9111 43.1852 34.9105 43.183C34.9099 43.1808 34.9086 43.1788 34.9069 43.1773L34.8828 43.1837C34.9115 43.1625 34.8404 43.1276 34.8855 43.123C34.8598 43.085 34.8534 43.1316 34.8326 43.1177C34.828 43.1519 34.8602 43.1763 34.8554 43.203C34.8517 43.189 34.8424 43.193 34.8297 43.1904L34.8543 43.2183C34.8495 43.2198 34.8449 43.2222 34.841 43.2253C34.8371 43.2284 34.834 43.2322 34.8317 43.2364L34.842 43.2171C34.8228 43.2223 34.7721 43.1804 34.7558 43.2222C34.7521 43.2082 34.7618 43.1742 34.7405 43.1649C34.7171 43.1996 34.7275 43.1549 34.6975 43.139C34.67 43.1583 34.7136 43.1991 34.6618 43.198C34.6618 43.198 34.667 43.2175 34.6789 43.2234C34.639 43.222 34.6294 43.2501 34.5881 43.2372C34.6048 43.2417 34.6202 43.2481 34.6075 43.271C34.6 43.243 34.5707 43.2553 34.5522 43.2438L34.5566 43.2606C34.539 43.2459 34.5499 43.2354 34.548 43.2284C34.5462 43.2215 34.551 43.2396 34.5599 43.2343C34.5688 43.2289 34.5393 43.1574 34.5141 43.1596C34.4934 43.1846 34.513 43.2258 34.5239 43.2409C34.4813 43.2358 34.5176 43.3265 34.4728 43.313C34.4728 43.313 34.4156 43.2594 34.3888 43.2621C34.3881 43.3043 34.4296 43.2797 34.4257 43.3167C34.3546 43.2368 34.3553 43.4 34.2816 43.3553L34.2692 43.3092C34.2546 43.3079 34.2396 43.3119 34.2276 43.3203L34.2535 43.3403C34.2437 43.3549 34.2103 43.3519 34.2109 43.3158C34.1922 43.3613 34.1802 43.342 34.1484 43.3325C34.1773 43.3248 34.1503 43.3395 34.1664 43.3097C34.1312 43.2937 34.1321 43.3099 34.1135 43.3239C34.109 43.3071 34.1023 43.282 34.0875 43.2844C34.0745 43.3194 34.0402 43.3196 34.0151 43.3413L34.0118 43.3287C33.9675 43.3555 33.907 43.3028 33.8683 43.3506C33.8919 43.3938 33.837 43.3875 33.8238 43.409C33.8208 43.3978 33.8156 43.3782 33.8072 43.379C33.8184 43.4209 33.7916 43.4042 33.7869 43.4249C33.77 43.413 33.7834 43.3734 33.7562 43.3807C33.7289 43.388 33.7461 43.4074 33.749 43.4246C33.7463 43.4155 33.7412 43.4073 33.734 43.4006C33.7269 43.3939 33.7179 43.3889 33.7078 43.3861C33.7052 43.3764 33.719 43.3831 33.7222 43.3823C33.7254 43.3814 33.7185 43.3683 33.711 43.3403C33.6998 43.3433 33.7099 43.3811 33.693 43.3691L33.704 43.3332C33.7017 43.3248 33.6895 43.3371 33.6863 43.338C33.6922 43.3169 33.6928 43.2952 33.6882 43.2745C33.6534 43.3048 33.687 43.3662 33.6888 43.4047C33.6505 43.3835 33.6266 43.4289 33.5959 43.4296L33.5989 43.3898C33.5924 43.3934 33.5868 43.3984 33.5826 43.4042C33.5785 43.41 33.576 43.4165 33.5752 43.4232L33.556 43.4283C33.5688 43.4097 33.5739 43.3882 33.5706 43.3675C33.5485 43.3809 33.5194 43.3812 33.513 43.4279L33.5107 43.4195C33.4803 43.4021 33.419 43.3976 33.4206 43.3777C33.3896 43.3965 33.3506 43.3665 33.3477 43.4197C33.3253 43.4257 33.3018 43.3511 33.2839 43.4188C33.2642 43.3836 33.2802 43.4048 33.2936 43.3653C33.2739 43.3301 33.2448 43.4203 33.2418 43.3447C33.2154 43.3682 33.2459 43.3601 33.2361 43.3942C33.2358 43.3223 33.1889 43.3843 33.1689 43.3417C33.154 43.3697 33.1737 43.3599 33.1557 43.3887L33.1493 43.365L33.1402 43.4079L33.1278 43.2973C33.0862 43.3474 33.126 43.3742 33.0743 43.3926C33.0623 43.3478 33.0335 43.426 33.0046 43.3887C33.0076 43.3999 33.0126 43.3671 33.018 43.3552L32.9953 43.3733C32.9956 43.3698 32.9947 43.3664 32.9927 43.3635C32.9833 43.3285 32.9733 43.3807 32.9598 43.3498C32.9759 43.3455 32.9761 43.308 32.9736 43.2922L32.9361 43.3382L32.9583 43.2798C32.9337 43.2714 32.8723 43.3628 32.8773 43.279L32.8934 43.2747C32.89 43.2621 32.8964 43.2154 32.8732 43.2441C32.85 43.2728 32.8533 43.2854 32.8617 43.2847L32.8572 43.2679C32.8636 43.2544 32.8736 43.2423 32.8864 43.2328C32.8992 43.2234 32.9143 43.2168 32.9303 43.2139C32.9205 43.2285 32.9011 43.2396 32.9011 43.2651C32.9235 43.2591 32.9451 43.2309 32.9645 43.2197C32.9545 43.2373 32.9462 43.2556 32.9396 43.2743C32.9467 43.3009 32.9588 43.2497 32.9752 43.2468C32.9791 43.2599 32.9787 43.2741 32.9741 43.2875C32.9955 43.2713 33.0119 43.2684 33.0282 43.291C33.0282 43.291 33.0011 43.3178 33.0094 43.3425C33.0513 43.3193 33.066 43.2719 33.1107 43.2464C33.1636 43.1813 33.1956 43.2941 33.2319 43.2439C33.2274 43.2271 33.2113 43.212 33.2323 43.2004C33.2265 43.2364 33.2386 43.2241 33.2424 43.2381C33.2676 43.1849 33.2745 43.249 33.2923 43.2128L33.3027 43.2519C33.2992 43.2963 33.328 43.2691 33.2902 43.3332C33.3288 43.2659 33.3525 43.348 33.3818 43.2457L33.3784 43.2331L33.4111 43.2528C33.425 43.2596 33.4272 43.2486 33.4475 43.2925C33.4386 43.3039 33.4254 43.306 33.4176 43.3155C33.4289 43.3575 33.4565 43.2812 33.4761 43.2774C33.476 43.3089 33.4537 43.2834 33.4605 43.328C33.4755 43.333 33.4895 43.3083 33.5021 43.2974L33.5066 43.3142C33.5438 43.3507 33.5188 43.2255 33.5478 43.2822L33.5399 43.2528C33.5451 43.2724 33.5734 43.3008 33.5586 43.3227C33.5698 43.3197 33.5848 43.3052 33.5896 43.2845C33.5943 43.2637 33.5762 43.273 33.5772 43.2383L33.6259 43.2148C33.6259 43.2148 33.6304 43.2316 33.6172 43.2336C33.6826 43.324 33.7276 43.1396 33.8048 43.2418C33.7973 43.2138 33.7984 43.218 33.8112 43.1951C33.8334 43.2012 33.8643 43.1884 33.8872 43.2032L33.892 43.2214C33.9396 43.1877 33.9686 43.1484 34.0028 43.1543C34.0005 43.1459 34.0103 43.1822 34.0034 43.1886C34.0216 43.1477 34.074 43.2536 34.0643 43.1722L34.0547 43.1748C34.1088 43.1783 34.1487 43.1092 34.2021 43.0844C34.2249 43.1247 34.1733 43.0921 34.1998 43.1464C34.2396 43.1537 34.2631 43.107 34.3072 43.1177L34.3109 43.1316C34.3585 43.1489 34.2989 43.0869 34.328 43.0866C34.3337 43.1076 34.3352 43.1132 34.3494 43.1213L34.34 43.0864C34.347 43.0999 34.3509 43.1146 34.3516 43.1297C34.3505 43.0806 34.4028 43.0965 34.3988 43.0496C34.4035 43.0728 34.4096 43.0957 34.4172 43.1181C34.4382 43.126 34.4444 43.1109 34.4477 43.0845C34.4703 43.1114 34.4973 43.0967 34.494 43.1036C34.5294 43.1076 34.4872 43.0784 34.5022 43.0444L34.4717 43.0331L34.5083 43.0098L34.4999 43.036C34.5265 43.0454 34.5304 43.0024 34.5524 42.995L34.5333 42.9747L34.5508 42.9505C34.5743 42.9996 34.5844 42.9415 34.598 43.0113C34.6561 43.0167 34.6562 42.9402 34.6936 42.9197L34.6989 42.9393C34.7284 42.9404 34.7301 42.9084 34.7322 42.8779C34.7339 42.8904 34.7372 42.9026 34.742 42.9142C34.7708 42.9065 34.7446 42.8791 34.7678 42.8504C34.7738 42.8727 34.7768 42.8839 34.7887 42.8837C34.784 42.8784 34.7806 42.8721 34.7788 42.8654C34.777 42.8587 34.7768 42.8516 34.7782 42.8446C34.8067 42.9508 34.8321 42.8661 34.8594 42.9487C34.8534 42.9263 34.876 42.8633 34.8402 42.8325L34.8425 42.8408C34.835 42.8129 34.8376 42.8227 34.8509 42.8146C34.8503 42.8211 34.852 42.8275 34.8558 42.8328C34.8794 42.78 34.9418 42.7888 34.9734 42.7398C34.9764 42.751 34.9683 42.7787 34.9839 42.779C35.0383 42.7644 35.0354 42.7022 35.0637 42.6542C35.1062 42.7102 35.0204 42.6913 35.0558 42.7462C35.1014 42.7019 35.1372 42.6505 35.1612 42.5951C35.2433 42.6645 35.185 42.5303 35.2653 42.5672C35.2414 42.5421 35.253 42.5211 35.2655 42.5102C35.2726 42.5368 35.2968 42.5243 35.3036 42.5435C35.295 42.5113 35.3316 42.4685 35.3757 42.5241C35.3363 42.4733 35.4092 42.5017 35.3892 42.4591C35.4246 42.4631 35.4181 42.4199 35.4552 42.4174C35.4182 42.3944 35.4625 42.387 35.4593 42.3684C35.4587 42.3709 35.4588 42.3734 35.4594 42.3758C35.46 42.3782 35.4613 42.3805 35.463 42.3824C35.4958 42.4021 35.4653 42.3398 35.4924 42.3445C35.5194 42.3493 35.5186 42.372 35.5307 42.3657C35.5099 42.3458 35.5119 42.2958 35.5532 42.3088L35.5603 42.3353C35.5796 42.2537 35.6855 42.2388 35.691 42.1504L35.7206 42.1905C35.8062 42.196 35.6776 42.1196 35.7095 42.0975C35.7954 42.0401 35.9264 41.9974 35.9572 41.9008C35.9535 41.8868 35.9386 41.8953 35.9188 41.8856C35.93 41.8826 35.9676 41.901 35.9508 41.877L35.9255 41.8658C36.016 41.864 35.9556 41.7409 36.0703 41.7656C36.0557 41.711 36.1378 41.716 36.1035 41.6458C36.1339 41.6376 36.1384 41.6799 36.1566 41.6645L36.142 41.61C36.0857 41.5412 36.2928 41.5321 36.2553 41.4628C36.2743 41.4696 36.3027 41.4665 36.2986 41.4512C36.2944 41.4358 36.2767 41.4465 36.258 41.4471C36.2496 41.4129 36.25 41.377 36.259 41.3419C36.2805 41.3646 36.291 41.3333 36.3311 41.342C36.3095 41.3254 36.2866 41.336 36.2743 41.3093C36.262 41.2826 36.329 41.2572 36.3537 41.2341C36.3213 41.2158 36.3451 41.2019 36.293 41.1934C36.2934 41.1595 36.2969 41.1255 36.3035 41.0917L36.3179 41.0878C36.2657 41.0659 36.3588 41.0544 36.3295 41.0413C36.3478 41.0454 36.3548 41.0525 36.3704 41.0528L36.364 41.029C36.3777 41.0418 36.4293 41.055 36.4407 41.0399C36.4053 41.0165 36.4151 41.0468 36.3824 41.0271L36.4361 41.0292C36.4324 41.0152 36.376 41.0033 36.3554 41.0163C36.3658 40.9716 36.3518 40.9259 36.3708 40.8878L36.4038 40.8955C36.401 40.8898 36.3997 40.8835 36.3999 40.8771C36.4001 40.8708 36.4018 40.8644 36.4049 40.8585C36.408 40.8526 36.4125 40.8472 36.4179 40.8428C36.4234 40.8383 36.4298 40.8349 36.4367 40.8327C36.4271 40.8353 36.4086 40.8238 36.3974 40.8268C36.3532 40.7966 36.4547 40.8294 36.4079 40.7955C36.4169 40.8062 36.4298 40.8138 36.4446 40.8171L36.4105 40.7603C36.4364 40.7609 36.5002 40.7363 36.4803 40.7071C36.4737 40.7064 36.4668 40.7069 36.4601 40.7087C36.4535 40.7104 36.4473 40.7134 36.4419 40.7174L36.4374 40.7007L36.4692 40.6847L36.4197 40.6604L36.4639 40.6651C36.459 40.6469 36.3934 40.639 36.3988 40.6271C36.4347 40.5815 36.4512 40.5921 36.502 40.5575C36.4048 40.5535 36.5097 40.5029 36.4409 40.4959C36.5194 40.4494 36.4743 40.3836 36.4963 40.3312L36.5044 40.3291C36.5483 40.3008 36.4294 40.3057 36.4494 40.2778L36.4645 40.2828C36.5178 40.2445 36.4645 40.1869 36.4212 40.1595C36.4362 40.1645 36.4667 40.1563 36.4628 40.1484C36.459 40.1404 36.3955 40.1664 36.4119 40.144L36.4423 40.1359L36.3927 40.1237C36.4238 40.0734 36.4516 40.0105 36.4145 39.968C36.4299 39.9549 36.4481 39.959 36.4641 39.9547C36.4537 39.9156 36.4015 39.8876 36.3877 39.8553L36.4422 39.8407C36.4377 39.8239 36.3551 39.8491 36.3979 39.8166C36.3979 39.8166 36.4017 39.8306 36.4324 39.8298C36.4654 39.7865 36.3739 39.823 36.3717 39.7892L36.4384 39.7818C36.4689 39.7481 36.3985 39.761 36.361 39.7621C36.2796 39.7464 36.4732 39.7065 36.4076 39.6732L36.3323 39.6933C36.3393 39.6555 36.2937 39.6647 36.2979 39.6291C36.3836 39.5837 36.3024 39.6459 36.3844 39.6059L36.3719 39.6363C36.4124 39.6014 36.39 39.6524 36.4433 39.6336C36.4533 39.613 36.4004 39.6016 36.374 39.5862C36.4156 39.5751 36.3807 39.6114 36.4398 39.5821L36.4196 39.577C36.4308 39.574 36.4468 39.5697 36.4491 39.5781C36.4875 39.5678 36.4453 39.5641 36.4427 39.5543C36.415 39.5598 36.3877 39.5671 36.361 39.5762L36.3754 39.5724C36.3093 39.5691 36.3425 39.5198 36.2903 39.5173C36.2992 39.5172 36.3081 39.5148 36.3159 39.5104C36.3122 39.4964 36.2554 39.5026 36.2337 39.492C36.2595 39.4731 36.325 39.4675 36.2967 39.4451C36.2615 39.4546 36.2079 39.4854 36.2022 39.4704C36.2022 39.4704 36.2371 39.4791 36.255 39.4563C36.2226 39.444 36.2624 39.4453 36.2913 39.4121C36.2416 39.4254 36.299 39.3831 36.2223 39.4111C36.2451 39.3999 36.265 39.3843 36.2805 39.3655C36.2435 39.3874 36.23 39.3566 36.1807 39.3773C36.2346 39.3479 36.2601 39.3725 36.309 39.3309C36.2667 39.3333 36.2435 39.317 36.1829 39.3407C36.1939 39.3243 36.2113 39.3122 36.2104 39.2959C36.2094 39.2797 36.22 39.2933 36.2264 39.2916C36.1731 39.2849 36.1928 39.2302 36.1139 39.2498C36.2022 39.2142 36.0985 39.1925 36.1845 39.174C36.1816 39.1628 36.1329 39.1668 36.1149 39.1702C36.1804 39.1391 36.1178 39.1364 36.1478 39.1074C36.1078 39.1181 36.1089 39.0968 36.0798 39.0971C36.0944 39.0976 36.1091 39.0936 36.1215 39.086C36.0878 39.095 36.1189 39.0762 36.1376 39.0502C36.107 39.0449 36.0909 39.0807 36.0549 39.0873C36.0593 39.0652 36.0928 39.0622 36.1174 39.0451L36.0421 39.0653C36.0492 39.0541 36.0589 39.0443 36.0705 39.0367C36.0481 39.0427 36.0176 39.0508 36.0405 39.0207L36.0457 39.0403L36.0733 39.015L36.0166 38.9957C36.0554 38.9389 36.1133 38.8939 36.1814 38.8676L36.2021 38.8741C36.2261 38.8676 36.2301 38.8441 36.2282 38.8371L36.2713 38.9274ZM36.4712 39.9363L36.4742 39.9475L36.4712 39.9363ZM36.5156 39.9739C36.5156 39.9739 36.499 39.9694 36.483 39.9736C36.4856 39.9799 36.4873 39.9865 36.4882 39.9932C36.5046 39.9903 36.5116 39.978 36.5223 39.9796L36.5156 39.9739ZM36.7612 39.8332C36.7631 39.8376 36.7643 39.8423 36.765 39.8471C36.7746 39.8446 36.7842 39.842 36.7748 39.8325L36.7612 39.8332ZM36.7289 39.8343L36.7177 39.8373L36.7321 39.8335L36.7289 39.8343Z" fill="#2C2C2C"/>
<path d="M17.3948 38.3951L17.5105 38.3808L17.5025 38.4075C17.5141 38.4292 17.5316 38.4035 17.5374 38.398C17.5189 38.4362 17.6177 38.4368 17.6591 38.4566L17.6543 38.4169C17.7948 38.3717 17.8121 38.5592 17.9159 38.5431L17.9987 38.5043L17.9958 38.5599C18.0432 38.5414 18.0617 38.5032 18.1188 38.5405C18.3092 38.6944 18.5757 38.6563 18.7801 38.7781C18.7831 38.768 18.7752 38.762 18.7637 38.7494C18.9196 38.9349 19.1052 38.7121 19.2505 38.8634L19.2322 38.8779C19.3246 38.8948 19.2146 38.8945 19.2705 38.9404C19.3019 38.8825 19.3983 38.9279 19.4564 38.92C19.4434 38.9306 19.4273 38.924 19.4095 38.9277C19.4157 38.9441 19.4084 38.982 19.437 38.9797C19.5199 38.9081 19.64 38.9534 19.7375 38.9537C19.7369 38.9972 19.8037 39.0575 19.8224 39.1341C19.8448 39.1147 19.8664 39.0939 19.8872 39.0717C19.9116 39.1064 19.9434 39.0886 19.972 39.0772L19.8992 39.0553C19.8947 39.0547 19.8904 39.0534 19.8864 39.0514L19.8608 39.0437C19.8372 38.9928 19.8704 39.012 19.8845 38.9652C19.9139 38.9741 19.9797 38.9775 19.9755 39.0145C19.9914 39.0217 20.0063 39.0311 20.0201 39.0425C20.0333 39.04 20.0461 39.0439 20.0558 39.0533L20.059 39.0706C20.1117 39.1084 20.2133 39.0625 20.2706 39.0433C20.2065 39.0896 20.2633 39.114 20.2502 39.1574C20.2091 39.1398 20.1664 39.1269 20.1224 39.1189C20.1247 39.123 20.126 39.1278 20.1264 39.133C20.1268 39.1381 20.1262 39.1435 20.1246 39.1487C20.1744 39.2147 20.2453 39.1414 20.3277 39.2008C20.3277 39.2008 20.3053 39.2105 20.3053 39.2287C20.3183 39.2363 20.3337 39.2377 20.3489 39.2327C20.3641 39.2277 20.3782 39.2165 20.3889 39.2011C20.3853 39.2455 20.4465 39.2967 20.4865 39.2888C20.5265 39.2808 20.5272 39.2464 20.5811 39.2663L20.5478 39.289C20.6054 39.3337 20.6145 39.2618 20.6611 39.3013C20.6429 39.2831 20.6321 39.3144 20.6454 39.3257C20.7181 39.3294 20.7257 39.3135 20.7924 39.268L20.7693 39.3121C20.8349 39.3027 20.9606 39.2786 20.9432 39.3408C20.9545 39.2385 21.0861 39.3292 21.1341 39.3455C21.1162 39.3401 21.1066 39.3627 21.101 39.372C21.2262 39.3405 21.3144 39.4363 21.4217 39.4686L21.4171 39.5438C21.4734 39.5607 21.5328 39.4238 21.5867 39.4437L21.5536 39.4701C21.6368 39.483 21.7173 39.5073 21.7938 39.5425L21.7792 39.591C21.8169 39.5768 21.856 39.5904 21.895 39.5767C21.9318 39.7135 22.1967 39.602 22.2895 39.7703L22.3238 39.6841C22.3749 39.6995 22.4433 39.7037 22.4467 39.7758L22.4365 39.7727C22.4163 39.8395 22.4863 39.7877 22.5124 39.812C22.5386 39.8363 22.5748 39.7761 22.5584 39.7566C22.673 39.8385 22.8905 39.8567 22.9491 39.9582C23.0886 39.9462 23.2262 39.9552 23.359 39.9852L23.356 39.9952C23.401 40.0215 23.4911 40.0742 23.4689 40.1477C23.5787 40.1625 23.6741 40.082 23.7884 40.151L23.753 40.1713C23.7804 40.196 23.8408 40.176 23.8561 40.1715C23.8714 40.167 23.8516 40.1865 23.8486 40.1965C23.8704 40.2304 23.8998 40.1974 23.9266 40.1964L23.9089 40.2183C23.9921 40.2981 24.1789 40.2469 24.3032 40.2971C24.2802 40.2902 24.2824 40.3291 24.2891 40.3439C24.3661 40.2778 24.5031 40.341 24.5611 40.3384L24.5196 40.3605C24.6391 40.3382 24.5828 40.4743 24.7016 40.45L24.6569 40.3855C24.6951 40.4116 24.7336 40.4086 24.7362 40.3675C24.7767 40.4089 24.7176 40.4293 24.7943 40.4615C24.7872 40.4849 24.7361 40.4604 24.7513 40.4978L24.8349 40.5904L24.8834 40.605C24.9065 40.5008 24.9677 40.6304 24.9484 40.5098C25.0927 40.5533 25.1959 40.65 25.3281 40.637C25.349 40.7526 25.5733 40.7109 25.5221 40.8394C25.5518 40.8513 25.584 40.8552 25.6168 40.8511C25.6496 40.8469 25.6824 40.8346 25.7133 40.8151C25.7023 40.8008 25.6814 40.8054 25.6638 40.8129C25.6926 40.7869 25.7776 40.8053 25.8129 40.8177C25.7502 40.824 25.6872 40.8425 25.6263 40.8726C25.6955 40.8736 25.7654 40.8673 25.8355 40.8537L25.8324 40.9238C25.9007 40.8916 25.861 40.9908 25.9343 40.9418L25.9302 40.9187C26.0285 40.9483 26.0479 40.8886 26.1411 40.9076L26.1336 40.9326C26.162 40.9539 26.2266 40.906 26.2422 40.9654L26.1834 40.9476C26.1698 40.9927 26.2144 41.0299 26.2283 41.0577C26.2944 41.0649 26.2726 40.9891 26.3061 40.9937C26.307 41.0414 26.299 41.0171 26.2686 41.0535C26.347 41.0692 26.43 41.0611 26.5111 41.03C26.5112 41.0329 26.5107 41.0359 26.5099 41.0388C26.509 41.0416 26.5077 41.0443 26.5061 41.0467C26.5802 41.0691 26.6657 41.0165 26.6988 41.0684L26.6848 41.0642C26.7244 41.1453 26.8549 41.0499 26.835 41.1623C26.8553 41.1921 26.7711 41.143 26.8007 41.2066C26.8788 41.2666 26.8859 41.1321 26.953 41.1869C26.9427 41.1838 26.9466 41.185 26.9392 41.1955C27.0039 41.2116 27.0698 41.2229 27.1366 41.2295C27.1853 41.3407 27.3744 41.2775 27.4292 41.4052C27.413 41.362 27.4635 41.37 27.4699 41.3536C27.4682 41.356 27.4669 41.3587 27.4661 41.3616C27.4652 41.3645 27.4648 41.3674 27.4648 41.3703C27.4968 41.38 27.5102 41.3494 27.5262 41.3378C27.5434 41.3776 27.6244 41.331 27.635 41.356C27.6415 41.3343 27.6655 41.347 27.6931 41.3572C27.6294 41.3653 27.6594 41.3998 27.6245 41.4276C27.7041 41.4643 27.7506 41.3563 27.8332 41.4012L27.8673 41.4589C27.8977 41.3951 27.9714 41.4465 27.9759 41.4224C27.9852 41.447 28.0034 41.4653 27.9907 41.4979C28.0303 41.4916 28.0721 41.5424 28.0982 41.5066L28.0688 41.4795C28.1698 41.5373 28.2636 41.4617 28.3318 41.5315L28.3021 41.63C28.3449 41.6866 28.4209 41.6057 28.4515 41.675C28.445 41.6366 28.4382 41.6455 28.4835 41.6246C28.4631 41.6184 28.4179 41.6248 28.3839 41.6128L28.4751 41.5783L28.3503 41.5717C28.4122 41.5466 28.4054 41.5555 28.3983 41.5096C28.4781 41.4991 28.4591 41.5808 28.5384 41.5628C28.5586 41.5834 28.5238 41.6112 28.5445 41.6393C28.6151 41.6223 28.6379 41.7458 28.6961 41.705C28.7072 41.7193 28.6719 41.6977 28.6676 41.7256C28.709 41.7271 28.7341 41.7456 28.7549 41.7136L28.7252 41.6919C28.7545 41.7008 28.7707 41.6656 28.8199 41.7059C28.8589 41.6922 28.8914 41.6491 28.8569 41.6387C28.8709 41.643 28.8955 41.6722 28.8755 41.6972C28.9623 41.7233 28.9493 41.6047 29.0203 41.6789C29.0203 41.6789 29.0088 41.6754 29.0086 41.6899C29.0237 41.7018 29.0419 41.7073 29.061 41.7057C28.9839 41.6934 29.0599 41.7928 28.9772 41.7479C28.9714 41.8044 29.0401 41.7796 29.0622 41.8081C29.1167 41.7845 29.0849 41.733 29.1197 41.7143C29.1147 41.731 29.1313 41.736 29.151 41.7492L29.1427 41.703C29.1598 41.7132 29.1789 41.719 29.1989 41.7199L29.1401 41.7532C29.1784 41.7648 29.2155 41.8543 29.2948 41.8363C29.2724 41.8459 29.2265 41.8686 29.2652 41.9021C29.3468 41.8994 29.2781 41.9242 29.3099 41.9666C29.384 41.9889 29.3438 41.9003 29.4453 41.9564C29.4581 41.9602 29.4524 41.933 29.4452 41.9199C29.5071 41.9403 29.5674 41.9658 29.6256 41.9962C29.5967 41.9765 29.5765 41.9558 29.6247 41.9485C29.5967 41.9765 29.6757 41.9967 29.6959 42.0265L29.7096 42.0087C29.7248 42.037 29.7006 42.0388 29.6794 42.0397C29.6582 42.0406 29.677 42.0244 29.6625 42.0218C29.623 42.0281 29.6131 42.1071 29.6668 42.1324C29.7329 42.1305 29.7382 42.0756 29.7341 42.0525C29.8085 42.0968 29.8371 41.9834 29.9042 42.0382C29.9221 42.0436 29.9554 42.1411 30.0058 42.1636C30.0487 42.1273 29.9469 42.1094 29.9904 42.0806C30.0499 42.2206 30.2019 42.0678 30.3021 42.1745L30.2696 42.2267C30.2974 42.2405 30.327 42.2495 30.3578 42.2533L30.3259 42.2109C30.3576 42.2077 30.4205 42.2394 30.3862 42.2746C30.4636 42.2487 30.4689 42.2777 30.5229 42.3158C30.4603 42.2969 30.5229 42.3158 30.4691 42.3233C30.4845 42.3391 30.5029 42.3505 30.5231 42.3566C30.5433 42.3626 30.5649 42.3634 30.5866 42.3587C30.5729 42.3764 30.5881 42.4138 30.6047 42.4188C30.6694 42.4103 30.7334 42.4124 30.7951 42.4252L30.79 42.4419C30.8975 42.4506 30.9824 42.5618 31.1005 42.5354L31.0928 42.5331C31.0744 42.4693 31.1818 42.5199 31.2203 42.5078C31.2226 42.5231 31.2186 42.5456 31.236 42.5526C31.2511 42.5025 31.2837 42.5378 31.3043 42.5204C31.3337 42.5475 31.2867 42.5788 31.3426 42.592C31.3656 42.599 31.3767 42.5713 31.3802 42.5505C31.3935 42.586 31.4168 42.6129 31.4463 42.6269C31.4326 42.6355 31.4195 42.6189 31.4118 42.6165C31.4042 42.6142 31.4234 42.6382 31.4133 42.6717C31.4414 42.6801 31.4389 42.6284 31.4679 42.6571L31.4244 42.6859C31.4354 42.7002 31.4563 42.6955 31.4657 42.6874C31.4423 42.6913 31.4327 42.7321 31.4287 42.7546C31.5191 42.7509 31.4766 42.6561 31.4935 42.6138C31.5611 42.667 31.6362 42.635 31.6973 42.6497L31.6717 42.693C31.6825 42.6951 31.6939 42.6941 31.7052 42.6903C31.7164 42.6865 31.7272 42.6798 31.7369 42.6708L31.7854 42.6854C31.7731 42.6869 31.761 42.6933 31.7508 42.7037C31.7406 42.7142 31.733 42.728 31.729 42.7431C31.7803 42.744 31.8414 42.777 31.8759 42.7182L31.8729 42.7282C31.9284 42.7704 32.0578 42.8222 32.0474 42.8427C32.1216 42.8414 32.1974 42.9043 32.2173 42.8429C32.2627 42.8402 32.2997 42.9534 32.3527 42.8838C32.3879 42.9381 32.3482 42.8988 32.3218 42.94C32.3583 42.9947 32.4375 42.9075 32.428 42.9993C32.4922 42.9896 32.4195 42.9767 32.4451 42.9426C32.4332 43.0282 32.5458 42.9875 32.5841 43.05C32.6184 43.024 32.5671 43.0231 32.6173 42.9999C32.6113 43.02 32.6282 43.0287 32.6386 43.0355L32.6645 42.9868L32.6804 43.1283C32.7777 43.092 32.6899 43.0364 32.803 43.045C32.8163 43.1073 32.8912 43.0297 32.9563 43.0912C32.9325 43.0731 32.9378 43.1111 32.9256 43.1238L32.9738 43.1165L32.9702 43.1282C32.9957 43.1778 33.0082 43.1178 33.0416 43.1643C33.0092 43.1654 33.006 43.2082 33.0138 43.2288L33.0935 43.1908L33.0473 43.2516C33.1086 43.2701 33.231 43.1922 33.2325 43.2983L33.1988 43.2991C33.1968 43.3082 33.1968 43.3174 33.1987 43.3258C33.2007 43.3341 33.2045 43.3413 33.2099 43.3465C33.2152 43.3517 33.2219 43.3547 33.229 43.3552C33.2362 43.3557 33.2437 43.3537 33.2506 43.3493C33.2646 43.3536 33.2869 43.3074 33.2647 43.3026L33.289 43.3281C33.2619 43.3673 33.1825 43.3579 33.1299 43.3567C33.1508 43.3429 33.1923 43.3391 33.1894 43.3072C33.1427 43.3095 33.0928 43.3273 33.0435 43.3288C33.0636 43.3144 33.082 43.2958 33.0977 43.2741C33.0592 43.2352 33.0541 43.2937 33.0181 43.2884C33.0109 43.2661 33.0042 43.2514 33.0176 43.239C32.9941 43.244 32.9707 43.2431 32.9487 43.2365C32.9268 43.2299 32.9068 43.2176 32.8899 43.2005C32.8899 43.2005 32.9523 43.1829 32.9323 43.1477C32.8382 43.1503 32.8054 43.1987 32.7052 43.2031C32.576 43.248 32.5136 43.0944 32.4237 43.1292C32.4176 43.1493 32.468 43.1809 32.4167 43.18C32.437 43.1405 32.3954 43.1444 32.3979 43.1269C32.3287 43.1716 32.3265 43.0908 32.2769 43.1214C32.2904 43.1091 32.2643 43.0848 32.2496 43.064C32.2647 43.0139 32.1982 43.0266 32.2952 42.9775C32.1941 43.0309 32.1628 42.9176 32.0701 43.0172L32.0865 43.0367L32.0156 42.9898C31.9994 42.9859 31.9847 42.9772 31.9726 42.9644C31.9605 42.9516 31.9514 42.935 31.9459 42.916C31.9686 42.9101 31.9967 42.9185 32.0199 42.9109C31.9921 42.8552 31.9227 42.9236 31.88 42.9125C31.8911 42.8758 31.9313 42.9134 31.9304 42.8657C31.8984 42.8561 31.8643 42.8677 31.8301 42.8701L31.8366 42.8484C31.7685 42.7787 31.7745 42.939 31.7351 42.8524L31.724 42.8892C31.7076 42.8605 31.667 42.8101 31.7262 42.7987C31.6977 42.7907 31.6661 42.7976 31.6382 42.8178C31.6535 42.8552 31.6649 42.8404 31.6617 42.8832L31.542 42.8689C31.5292 42.8651 31.557 42.8516 31.5736 42.8566C31.4717 42.7093 31.2751 42.8668 31.1636 42.6911C31.1714 42.7299 31.1443 42.7181 31.1225 42.7352C31.067 42.7163 31.0132 42.6921 30.9617 42.663L30.9823 42.6456C30.8834 42.6521 30.7864 42.6407 30.6943 42.6116C30.6913 42.6216 30.7039 42.5799 30.7212 42.5778C30.6511 42.6022 30.6211 42.4474 30.5807 42.5354L30.5986 42.55C30.4782 42.5216 30.3547 42.5063 30.2292 42.5042C30.2185 42.4427 30.2956 42.5242 30.2932 42.4488C30.2193 42.4028 30.124 42.4233 30.0378 42.3718C30.0518 42.376 30.052 42.3615 30.0607 42.3605C29.9844 42.2992 30.054 42.415 29.9832 42.3863C29.9913 42.3596 29.9933 42.3529 29.973 42.3322L29.9387 42.3675C29.9394 42.358 29.9418 42.3486 29.9459 42.34C29.9499 42.3314 29.9555 42.3238 29.962 42.318C29.9135 42.3635 29.8287 42.2979 29.785 42.3412C29.789 42.3278 29.8164 42.2832 29.8097 42.2593C29.7955 42.2492 29.7792 42.2437 29.7619 42.2433C29.7447 42.2428 29.7269 42.2474 29.7102 42.2566C29.6944 42.2118 29.6252 42.1964 29.6413 42.194C29.5773 42.1565 29.622 42.221 29.5588 42.2365L29.6079 42.2768L29.506 42.2589L29.5519 42.2454C29.5132 42.2119 29.4524 42.2427 29.4005 42.2253L29.4157 42.2626L29.3496 42.2646C29.3624 42.1992 29.2775 42.2264 29.3324 42.1646C29.2295 42.099 29.1333 42.1593 29.0296 42.1335C29.0475 42.1389 29.0451 42.1236 29.052 42.1147C29.0304 42.1035 29.0063 42.0989 28.9815 42.1012C28.9567 42.1035 28.9318 42.1127 28.9086 42.128C28.9211 42.1099 28.9371 42.1074 28.9435 42.0911C28.8732 42.07 28.8889 42.1148 28.8068 42.1101C28.8353 42.0895 28.8329 42.0742 28.8145 42.0614C28.8074 42.0847 28.7871 42.0968 28.7715 42.0976C28.8675 41.9917 28.6997 42.0213 28.7665 41.9339C28.7584 41.9607 28.6146 41.9756 28.6378 42.0373L28.6582 42.0434C28.6482 42.0768 28.6266 42.0558 28.6039 42.0526C28.6141 42.0556 28.6309 42.0461 28.6335 42.0378C28.511 42.0464 28.4086 41.97 28.2754 41.9681C28.2897 41.9578 28.346 41.9511 28.3171 41.9315C28.2085 41.9002 28.0935 41.8939 27.9772 41.9128C28.0008 41.8343 28.1084 41.9396 28.1413 41.8676C27.9982 41.8455 27.8532 41.8328 27.7068 41.8295C27.6918 41.6993 27.5517 41.8356 27.4895 41.7185C27.4869 41.7596 27.4381 41.7594 27.3891 41.7465C27.4152 41.7198 27.3634 41.7023 27.3852 41.6852C27.3312 41.7072 27.2041 41.6853 27.2318 41.6116C27.1987 41.68 27.1399 41.5839 27.09 41.6199C27.0431 41.5766 26.9687 41.6016 26.906 41.5645C26.9162 41.6185 26.8326 41.5678 26.8028 41.5789C26.8028 41.5789 26.8262 41.575 26.8244 41.5672C26.8168 41.523 26.7372 41.5791 26.7059 41.5442C26.6931 41.5221 26.7185 41.5025 26.6952 41.4918C26.6857 41.5235 26.5719 41.5311 26.5456 41.4795C26.5635 41.4849 26.5686 41.4682 26.5823 41.4596C26.3869 41.4608 26.2146 41.3342 26.0118 41.3459L26.0603 41.3004C25.967 41.194 25.9578 41.3679 25.8696 41.3322C25.6381 41.2038 25.3941 41.1046 25.1409 41.036C25.118 41.0473 25.1451 41.0592 25.1419 41.0837C25.1201 41.0772 25.1311 41.0222 25.0927 41.0434L25.09 41.0754C25.0036 40.96 24.7546 41.0325 24.7093 40.8823C24.5892 40.8971 24.5397 40.7929 24.3891 40.8258C24.3562 40.7868 24.4519 40.7883 24.399 40.7651L24.2661 40.776C24.1245 40.8299 23.9923 40.5842 23.827 40.6054C23.8331 40.5854 23.8151 40.5526 23.7888 40.552C23.7625 40.5513 23.7899 40.576 23.7984 40.5986C23.7068 40.5993 23.6168 40.588 23.5298 40.565C23.5828 40.5464 23.497 40.526 23.505 40.481C23.4696 40.5013 23.5067 40.5307 23.4409 40.5364C23.3636 40.507 23.2902 40.4671 23.2218 40.4175C23.1821 40.4474 23.1473 40.4242 23.1314 40.4722C23.0356 40.4434 22.9759 40.4472 22.8584 40.4118L22.8634 40.3951C22.8133 40.4456 22.7698 40.3359 22.7357 40.3566C22.7422 40.3349 22.7601 40.3311 22.7607 40.315L22.7028 40.3175C22.7326 40.3065 22.7646 40.256 22.727 40.2374C22.6684 40.2653 22.7312 40.2696 22.6994 40.2965L22.7015 40.2388C22.693 40.2362 22.6836 40.2382 22.6752 40.2442C22.6669 40.2502 22.6603 40.2599 22.657 40.2709C22.6536 40.282 22.6538 40.2936 22.6574 40.3033C22.6611 40.3129 22.6678 40.3198 22.6763 40.3223C22.5588 40.2869 22.435 40.2769 22.3328 40.237L22.3553 40.2037C22.2928 40.2044 22.2348 40.1799 22.1897 40.1337C22.1862 40.1454 22.1653 40.1592 22.1771 40.1755C22.0935 40.2031 22.1871 40.1147 22.0941 40.1504C22.1168 40.1445 22.1423 40.1431 22.1521 40.1242L21.9973 40.1249C22.0053 40.0982 21.9361 40.0136 21.869 40.0188C21.8645 40.0339 21.8725 40.0581 21.8873 40.0644L21.8449 40.0662L21.8342 39.9956L21.7626 40.0341L21.7782 39.9824C21.7343 39.9801 21.6989 40.0423 21.6672 40.0272C21.6063 39.9895 21.5532 39.937 21.5104 39.8725C21.471 39.9663 21.3711 39.8305 21.328 39.8904C21.2344 39.7802 21.0509 39.7741 20.9042 39.7062L20.9195 39.7017C20.8666 39.6365 20.8214 39.7541 20.7572 39.7129L20.7784 39.7028C20.6764 39.6349 20.5547 39.6128 20.4308 39.64C20.4532 39.6303 20.4538 39.5959 20.4247 39.5908C20.3956 39.5857 20.4271 39.6662 20.3841 39.6332C20.3986 39.6266 20.3937 39.6015 20.3847 39.5988L20.3216 39.6326C20.2036 39.5487 20.0715 39.4941 19.9313 39.4712C19.912 39.4472 19.9418 39.4361 19.9469 39.4194C19.8416 39.3986 19.7256 39.4092 19.6311 39.3898L19.638 39.33C19.5933 39.3165 19.5837 39.4083 19.54 39.3405C19.5285 39.3279 19.5784 39.3521 19.6035 39.3287C19.5247 39.2575 19.5333 39.3676 19.4471 39.3344L19.4898 39.2762C19.4344 39.2194 19.4026 39.2881 19.3672 39.3176C19.2508 39.3663 19.338 39.174 19.1932 39.1922C19.1632 39.2178 19.1855 39.2409 19.1555 39.2665C19.0711 39.2228 19.046 39.2645 18.9616 39.2208C18.9417 39.111 19.0076 39.2347 18.9806 39.13L19.043 39.1725C18.9994 39.1047 19.1007 39.1753 19.1089 39.1158C19.0692 39.0857 18.9882 39.1141 18.9239 39.1147C18.9365 39.073 18.9916 39.1351 18.9834 39.0652L18.949 39.0731C18.9602 39.0637 18.9665 39.0474 18.9839 39.0545C18.985 39.0092 18.9481 39.0437 18.92 39.0352C18.9097 39.0636 18.904 39.0936 18.9033 39.1231C18.9038 39.1163 18.9029 39.1097 18.9006 39.1041C18.8245 39.1485 18.7403 39.0721 18.6753 39.1072C18.6883 39.0965 18.6804 39.0905 18.6834 39.0805C18.6489 39.0701 18.5957 39.1124 18.5447 39.1152C18.5275 39.0754 18.5875 39.0242 18.5066 39.0199C18.4832 39.0511 18.4978 39.1229 18.4344 39.102C18.4344 39.102 18.4992 39.0905 18.4761 39.0563C18.4072 39.0628 18.4605 39.0388 18.4151 38.9814C18.368 39.0219 18.3593 38.9445 18.3282 39.0244C18.3239 38.9648 18.323 38.9864 18.2967 38.9348C18.2997 38.9849 18.209 38.9575 18.1955 39.0118C18.1975 38.945 18.2833 38.9562 18.2526 38.8778C18.2047 38.9071 18.1351 38.9024 18.1098 38.9677C18.0875 38.9446 18.0836 38.9161 18.0434 38.8967C18.0434 38.8967 18.0588 38.9013 18.0671 38.8874C17.9794 38.9102 17.8844 38.8324 17.8181 38.8998C17.8622 38.8093 17.6645 38.8408 17.7474 38.7692C17.711 38.7677 17.6734 38.7798 17.6394 38.804C17.662 38.7289 17.5688 38.7609 17.5474 38.7071C17.5182 38.7438 17.466 38.7135 17.4257 38.7269C17.4411 38.7315 17.4553 38.7121 17.4562 38.6905C17.4088 38.709 17.4281 38.6821 17.4049 38.6387C17.3473 38.645 17.3981 38.6985 17.3573 38.7227C17.3176 38.6925 17.3638 38.6736 17.3652 38.6412L17.2761 38.6964C17.2707 38.6903 17.2665 38.6827 17.2639 38.6741C17.2612 38.6654 17.2601 38.6559 17.2606 38.6461C17.231 38.6609 17.2015 38.6848 17.1802 38.6401L17.2517 38.6617L17.2415 38.6167L17.1592 38.6448C17.0788 38.5604 17.1336 38.4895 17.1644 38.4149L17.2068 38.4131C17.2148 38.3864 17.1912 38.3629 17.1751 38.3562L17.3948 38.3951ZM19.9353 39.4068L19.966 39.4161L19.9353 39.4068ZM20.0606 39.4027C20.0478 39.3988 20.0382 39.4123 20.0383 39.4306L20.0919 39.4467C20.0973 39.3919 20.0615 39.3811 20.0747 39.365L20.0606 39.4027ZM19.9284 39.0276L19.9629 39.038C19.9659 39.028 19.96 39.0153 19.9375 39.0158C19.9343 39.0195 19.9312 39.0234 19.9284 39.0276Z" fill="#2C2C2C"/>
<path d="M9.80168 54.332C9.70585 54.2824 9.69875 54.371 9.91881 54.5588L10.146 54.6154L9.80168 54.332ZM11.0688 55.8057C11.3634 55.9829 11.7219 56.16 11.6261 55.9368C11.2995 55.8057 11.2711 55.7172 10.9162 55.5826C10.689 55.4019 10.5612 55.2106 10.6358 55.2283C10.5435 55.1823 10.3305 54.9059 10.1673 54.8528C10.4214 55.2272 10.7546 55.5416 11.1433 55.7739C11.2001 55.8518 11.1007 55.8057 11.0688 55.8057ZM37.3271 63.4364H37.1425C37.1922 63.4505 37.2561 63.4435 37.3271 63.4364ZM53.0295 56.0466C52.9301 56.1352 52.8947 56.1813 52.8982 56.1919C52.9869 56.1069 53.0615 56.0325 53.0295 56.0466ZM55.2727 54.0522L55.145 54.1726C55.1932 54.1389 55.2362 54.0983 55.2727 54.0522ZM37.3271 63.4364L37.7956 63.3939C37.8204 63.3443 37.5543 63.4045 37.3271 63.4364ZM14.2916 57.9561C14.2205 57.911 14.1457 57.8719 14.068 57.8392L14.2703 57.9632L14.2916 57.9561ZM29.6001 63.8863H29.4581L29.3374 63.9252L29.6001 63.8863ZM23.7259 62.9121C23.8572 62.951 23.9282 62.866 23.9885 62.8377C23.8892 62.8603 23.7861 62.8603 23.6868 62.8377C23.6833 62.8448 23.6833 62.8731 23.7259 62.9121ZM15.1648 59.0153L15.0157 58.9373L15.1648 59.0153ZM33.8665 63.9465C33.8817 63.9626 33.9015 63.9737 33.9232 63.9784C33.9232 63.9784 33.8984 63.9536 33.8665 63.9465ZM5.69505 48.8659C5.69505 48.8659 5.71635 48.9049 5.69505 48.8659V48.8659ZM9.56387 54.4631L9.49288 54.3994C9.47316 54.4025 9.45471 54.4111 9.43964 54.4242L9.56387 54.4631ZM58.8221 49.8153L58.8044 49.8366C58.7405 49.9605 58.7866 49.8826 58.8221 49.8153ZM49.3666 5.18283C49.8031 5.55834 48.5147 4.78252 49.1926 5.32453C49.143 5.24659 49.9487 5.60085 49.3666 5.18283ZM14.4088 58.0553L14.6075 58.1899C14.5188 58.1261 14.4549 58.0836 14.4088 58.0553ZM49.1926 5.32453L49.2601 5.37767L49.1926 5.32453ZM63.5428 38.0612C63.5137 38.0973 63.4909 38.138 63.4753 38.1816C63.4753 38.1816 63.5037 38.1533 63.5428 38.0612ZM60.3128 46.9246L60.4264 46.7227C60.3843 46.7875 60.3463 46.8549 60.3128 46.9246ZM63.9332 33.1689C63.944 33.0511 63.944 32.9325 63.9332 32.8147C63.9307 32.8323 63.9307 32.8502 63.9332 32.8678C63.9526 32.9672 63.9526 33.0695 63.9332 33.1689ZM63.6954 28.0783V28.1739L63.7167 28.3333L63.6954 28.0783ZM0.857252 34.6497C0.844724 34.7321 0.819585 34.8122 0.782715 34.887C0.846604 34.8197 0.92469 35.5495 0.857252 34.6497ZM14.2632 58.0057C14.3164 58.0024 14.3687 58.0203 14.4088 58.0553L14.2703 57.9632C14.249 57.9667 14.2384 57.9773 14.2632 58.0057ZM63.1523 32.9386L63.1878 32.1487C63.1701 32.3718 63.1594 32.6588 63.1523 32.9386ZM16.8685 4.80023L16.7123 4.89942C16.7685 4.8733 16.821 4.83996 16.8685 4.80023ZM63.0814 29.8035C63.1055 29.6547 63.1186 29.5043 63.1204 29.3536C63.112 29.3228 63.1001 29.2931 63.0849 29.265L63.0814 29.8035Z" fill="#2C2C2C"/>
<path d="M7.76068 52.6351L7.31701 52.1923L6.89818 51.7317L6.93013 51.6857C6.87538 51.5734 6.78741 51.4807 6.67812 51.42C6.73846 51.42 6.58584 51.2251 6.38352 50.9665C6.18121 50.7079 5.95405 50.3749 5.81208 50.1659L5.85822 50.3572C5.64088 50.1185 5.44492 49.8613 5.27257 49.5885C5.1235 49.337 4.99927 49.0925 4.88569 48.8587C4.77211 48.6249 4.65853 48.3947 4.5485 48.1502C4.43879 47.9041 4.30941 47.6671 4.16161 47.4417C3.99834 47.2327 3.82797 47.0237 3.6718 46.8111L3.6931 46.6128C3.41455 46.2779 3.18838 45.9028 3.02226 45.5004C2.57149 44.2428 2.02134 42.9817 1.60251 41.6603C1.36471 41.012 1.20498 40.3389 1.01332 39.6765C0.94233 39.3399 0.867793 39.0034 0.796806 38.6704L0.708071 38.1921L0.640633 37.6891C0.624747 37.7829 0.624747 37.8787 0.640633 37.9725C0.561046 36.9752 0.419987 35.9838 0.218257 35.0038C0.14727 34.561 0.0762825 34.1253 0.0265912 33.6612C-0.00886374 33.1683 -0.00886374 32.6734 0.0265912 32.1804L0.0691833 32.3292C0.0514365 31.2452 0.0975787 32.4745 0.172116 31.688C0.0407887 31.5392 0.0975787 30.31 0.111776 29.683C0.121374 29.8481 0.121374 30.0137 0.111776 30.1789C0.19685 30.037 0.237627 29.8729 0.228906 29.7078C0.194041 29.491 0.175061 29.2719 0.172116 29.0524C0.172116 28.7973 0.193411 28.5104 0.214708 28.2093C0.250201 27.6106 0.356683 26.9694 0.420572 26.438C0.512855 26.3175 0.77551 25.4 1.03106 24.9537C1.03106 24.8332 0.99912 24.6207 0.988472 24.4258C1.11313 24.121 1.18745 23.7979 1.20853 23.4693C1.1198 23.8236 1.03816 24.107 0.977824 24.3373V24.3089C0.97092 24.3604 0.960244 24.4113 0.94588 24.4612C0.892639 24.6951 0.874892 24.8155 0.892639 24.7659C0.71872 25.1804 0.835849 24.7199 0.732917 24.7269C0.801027 24.3306 0.920334 23.9448 1.08785 23.5792C1.14464 23.3701 1.19079 23.2249 1.26532 23.023C1.2947 22.8757 1.33625 22.7312 1.38955 22.5908V22.6652C1.41217 22.64 1.43237 22.6127 1.44989 22.5837C1.58489 22.2102 1.69399 21.8279 1.77643 21.4395C1.88292 21.0427 1.97165 20.653 2.04264 20.3767C1.95745 20.9648 2.2272 20.2881 2.31239 20.3236C2.33369 20.2598 2.06038 20.9293 1.75869 21.7725C1.79063 21.7158 1.81903 21.6733 1.85807 21.6662C2.01689 21.3385 2.14521 20.997 2.2414 20.6459C2.29819 20.4653 2.35143 20.2917 2.42952 20.065C2.50761 19.8382 2.61054 19.6328 2.73831 19.3812C2.72057 19.4521 2.68152 19.5938 2.73831 19.5584C2.87945 19.3029 2.96417 19.0203 2.98677 18.7294C3.28783 18.3773 3.52777 17.9774 3.69665 17.5462C3.75861 17.2169 3.88921 16.9043 4.07998 16.6287L3.99124 16.9156C4.42782 16.2532 4.2184 16.2992 4.60174 15.7608C4.44202 15.9698 4.48461 16.0265 4.60174 15.8635C4.85756 15.448 5.05914 15.0016 5.20158 14.535L5.22643 14.6838C5.58136 14.0674 6.24155 12.9126 6.37288 12.9799C6.07118 13.0366 7.22118 11.6798 7.6471 11.2334C7.51577 11.3999 7.52287 11.4566 7.52642 11.4849C7.71099 11.2192 7.90976 10.9606 8.11917 10.7091C8.32858 10.4576 8.56639 10.2309 8.7971 10.0006C9.25497 9.52235 9.76253 9.10079 10.2169 8.65089L10.4689 8.61546C10.9729 8.14784 10.9409 7.80776 11.5159 7.31889L11.3526 7.54916C11.6011 7.32597 11.8176 7.1453 12.0235 6.98943L12.5736 6.56079C12.9286 6.29155 13.2587 6.06837 13.7094 5.77434L13.7485 5.86645C14.036 5.60784 14.4335 5.33152 14.7423 5.09417C15.0392 4.98508 15.3226 4.84245 15.5871 4.66907L16.7371 3.99244C17.5376 3.49142 18.4035 3.10282 19.3104 2.83758V2.62502C19.8747 2.36996 20.6094 2.07239 20.9289 2.09718L20.7975 2.14324C20.7975 2.30265 21.3725 1.92006 21.7523 1.84212C22.0221 1.73939 22.2741 1.56226 22.0256 1.61186C22.4232 1.50912 22.8597 1.37096 23.3247 1.2576C23.7897 1.14424 24.2546 1.00254 24.7161 0.903348C25.1775 0.804157 25.6176 0.708508 26.0116 0.65537C26.341 0.609017 26.6728 0.581811 27.0054 0.573891C27.4065 0.481785 27.7863 0.428648 28.1554 0.357797C28.5245 0.286946 28.8653 0.216095 29.2486 0.177127C29.6319 0.138159 29.9833 0.0850206 30.3738 0.0425101C30.7642 -3.77434e-07 31.1759 0.00708508 31.6231 0L31.6018 0.0212551C32.2017 0.0212551 33.3978 0.131074 33.3765 0.276318C34.0119 0.29403 34.5336 0.276318 35.0909 0.276318C35.725 0.282336 36.3572 0.347568 36.9791 0.471158H36.6455C37.0257 0.547017 37.4115 0.590862 37.799 0.602232C37.9304 0.627029 37.8274 0.6412 37.799 0.662455C38.082 0.731016 38.3708 0.772533 38.6615 0.786444L38.5338 0.814784C39.698 1.1407 41.5933 1.46307 43.0592 2.02633C42.7824 1.94131 42.9066 2.05113 43.006 2.1149C43.6697 2.15741 45.2847 2.873 45.8845 3.13869L45.4906 3.02179C45.8721 3.15122 46.2313 3.33884 46.5554 3.57797C46.8726 3.81114 47.2156 4.00726 47.5776 4.16249L46.9919 3.71967C47.4285 3.99953 47.826 4.1802 47.7586 4.05267C48.2484 4.40692 47.7586 4.19437 48.5288 4.67261C48.5288 4.70095 48.3904 4.62302 48.2768 4.56279C48.1632 4.50257 48.0638 4.47069 48.1774 4.56279L49.1677 5.32798C49.3276 5.44964 49.4961 5.55973 49.6717 5.65744C49.7037 5.41655 50.5271 6.23841 50.1296 5.70703C50.8135 6.17615 51.4711 6.68231 52.0995 7.22324L52.9691 7.98489L53.4092 8.33914L53.8422 8.6934C54.1723 9.24603 55.9719 10.8189 55.6418 10.911C56.0891 11.4402 56.5743 11.9362 57.0935 12.3954C56.9887 12.2418 56.8699 12.0983 56.7385 11.9667C57.1335 12.3662 57.4978 12.7949 57.8282 13.2491C57.4085 12.766 56.9593 12.3093 56.483 11.8817C56.7456 12.1651 57.0402 12.5193 57.3313 12.8311L57.7572 13.2845C57.8708 13.4191 57.9666 13.5325 58.034 13.6175V13.8584C58.4884 14.3402 58.2612 14.365 58.7439 14.8362L58.7155 14.7086C59.3367 15.7289 59.4857 15.658 60.0394 16.6287H59.9685C60.0768 16.8237 60.1953 17.0129 60.3234 17.1955C60.4489 17.3806 60.5358 17.589 60.5789 17.8084C60.4654 17.5923 60.366 17.3726 60.2418 17.1601C60.2834 17.4587 60.3609 17.7513 60.4725 18.0315C60.8274 18.7082 60.7351 18.2051 60.9197 18.5452C60.9197 18.733 60.8913 18.6019 60.6925 18.4C60.9055 18.7755 61.1078 19.236 61.3279 19.6576C61.5479 20.0791 61.7396 20.4759 61.9029 20.7451C61.9029 20.7841 61.8674 20.7451 61.8674 20.7451C62.1868 21.5812 62.5772 22.2897 62.666 22.8388L62.5985 22.6758C62.6757 23.0752 62.7825 23.4683 62.918 23.8519C63.0387 24.2274 63.138 24.5356 63.0351 24.6348C63.0777 24.9891 62.8541 23.8874 62.8789 24.44C63.0493 25.5028 63.2339 25.0847 63.3617 26.0129C63.3404 25.8853 63.3368 25.9279 63.3049 25.8889C63.3794 26.2219 63.4433 26.5974 63.5214 27.0083C63.5995 27.4193 63.6705 27.8089 63.7237 28.1809C63.6847 29.1055 64.0112 30.9831 63.8018 32.0423C63.8728 31.688 63.8941 32.3044 63.9225 32.308C63.9509 32.3115 63.9047 32.2655 63.887 32.308C63.8735 32.5043 63.9026 32.7013 63.9721 32.8854C63.9462 33.1102 63.9462 33.3372 63.9721 33.562C63.9926 33.7575 63.9926 33.9546 63.9721 34.1501C64.0093 34.3682 64.0093 34.5909 63.9721 34.809C63.9721 34.1005 63.8834 34.5823 63.8302 34.267C63.7414 35.2873 63.9438 35.4573 63.7805 36.5201C63.7308 36.7114 63.6598 36.9027 63.5995 37.0904C63.7166 37.2321 63.4965 38.2028 63.5498 38.1886C63.4717 38.3622 63.3865 38.6172 63.3297 38.5641C63.2281 38.9675 63.1522 39.3769 63.1026 39.7898C63.1522 39.6552 63.1877 39.5206 63.2339 39.3824C63.0671 40.0272 62.9393 40.5408 62.8505 41.0262C62.7525 41.5041 62.6087 41.9715 62.4211 42.4219L62.2294 42.3334C61.9384 42.9462 61.9029 43.5485 61.5834 44.0515C61.7183 43.885 61.7254 43.8389 61.6225 44.2641C61.7396 44.0373 61.8496 43.5555 62.0023 43.1694L61.7964 44.0657L62.2436 42.7124C62.1052 43.3111 62.1016 43.2651 62.2685 43.0667C62.0164 43.8992 61.8638 43.9133 61.6012 44.6998C61.4556 44.9619 61.5089 44.6502 61.335 44.9442C61.122 45.6527 60.6038 46.1416 60.476 46.6659C60.3802 46.8076 60.6038 46.3931 60.5399 46.4073C60.4016 46.6905 60.283 46.9828 60.185 47.2823L60.405 46.928C60.2616 47.2644 60.0919 47.5889 59.8975 47.8987C59.7484 48.253 59.7271 48.5151 59.9401 48.1396C59.8691 48.3026 59.6242 48.6001 59.6384 48.4513C59.0705 49.3511 59.5603 49.004 58.9285 49.8188C58.964 49.7585 58.9924 49.6877 58.9604 49.716C58.8319 49.8862 58.7134 50.0636 58.6055 50.2474C59.106 49.4858 58.3109 50.3891 58.9427 49.5212C58.7936 49.5637 58.46 50.1766 58.2328 50.4352C57.9986 50.9063 58.3322 50.5733 58.2328 50.8248C58.2044 50.7965 58.0873 50.9807 57.9169 51.1791C57.9918 51.1336 58.0641 51.0839 58.1334 51.0303C58.0092 51.2074 57.8708 51.3846 57.7288 51.5936L57.9702 51.2393C57.8175 51.42 57.6152 51.6361 57.3739 51.8911C57.2603 52.0187 57.1396 52.1568 57.0189 52.3056C56.8982 52.4544 56.7705 52.6067 56.664 52.7768C56.7811 52.589 57.0189 52.2135 56.6214 52.6067C56.0712 53.3152 56.4546 52.7414 56.0748 53.0885C55.4998 53.7793 56.0748 53.3117 55.1413 54.2434C55.0419 54.3461 55.1697 54.2824 55.2868 54.1938C54.6408 54.835 54.3001 55.1963 53.6257 55.7631C53.9203 55.5152 54.1546 55.331 53.8067 55.7171C53.86 55.6144 53.7216 55.7171 53.5263 55.8907C53.3311 56.0643 53.0791 56.2449 52.9336 56.3406L52.8946 56.4291C52.6567 56.5708 52.8661 56.3689 53.0259 56.213C53.0259 56.213 53.1004 56.1882 53.2211 56.0784C53.5263 55.7702 53.2992 55.7525 52.7739 56.1847C52.245 56.6913 52.4189 56.7019 52.529 56.6523C51.7446 57.2404 51.9256 57.3608 51.1447 57.9028C50.9708 58.0304 50.2822 58.2996 49.725 58.6751C49.4871 58.9585 50.4632 58.25 50.1864 58.544C49.1216 58.9869 48.2981 59.9363 46.9032 60.5137L47.0168 60.3259C46.7044 60.4747 46.3956 60.6164 46.0514 60.8006L46.5376 60.6341C46.2395 60.8113 45.4977 61.1513 45.6964 60.953C45.2165 61.2393 44.7042 61.4676 44.1702 61.6331C44.8801 61.3356 44.1702 61.6331 44.6813 61.3604C44.2311 61.5173 43.7892 61.697 43.3574 61.8988C43.4284 61.828 43.1302 61.874 42.9314 61.9484C42.635 62.1002 42.3263 62.227 42.0086 62.3275C41.6537 62.4479 41.2668 62.5932 40.919 62.6994V62.6676C40.3163 62.8518 39.7021 62.9962 39.0804 63.0997L38.1398 63.2804C37.8274 63.33 37.5187 63.3938 37.2205 63.4682L37.1602 63.4859H37.256C37.4761 63.5071 37.256 63.5638 36.9011 63.6311C36.5461 63.6984 36.1273 63.7445 35.9427 63.7941C35.8299 63.7502 35.7071 63.7379 35.5878 63.7587C35.5878 63.8614 35.1193 63.872 34.9489 63.9252C34.5194 63.9252 34.9915 63.7976 34.2639 63.8543C33.9835 63.8826 33.9551 63.9393 33.9906 63.9783C33.6564 63.9336 33.3197 63.9111 32.9825 63.911C33.1243 63.9008 33.2667 63.9008 33.4085 63.911C33.4582 63.8543 33.1991 63.8826 33.2026 63.8118C32.8477 63.8118 33.0677 63.911 32.6418 63.8862L33.0358 63.7941C32.8777 63.7874 32.7194 63.7981 32.5637 63.826C32.8228 63.7976 32.7838 63.7161 32.7447 63.6666C31.7616 63.7516 32.5566 63.8968 32.5069 63.9854C32.0349 63.9854 31.6196 63.957 31.2256 63.9854C30.8496 64.0049 30.4729 64.0049 30.0969 63.9854L30.2424 63.8968C30.0219 63.879 29.8 63.8897 29.5822 63.9287L29.0356 63.8897C29.3551 63.8897 29.4616 63.8543 29.49 63.7799C28.9079 63.7799 28.1199 63.6276 27.9531 63.748L27.9779 63.7303C27.2062 63.6107 26.4427 63.4427 25.6921 63.2273C25.2804 63.16 24.8225 63.0572 24.4605 62.9722C24.0985 62.8872 23.8394 62.8199 23.811 62.8801C23.5285 62.8081 23.252 62.7146 22.984 62.6002C22.7525 62.4828 22.4981 62.4175 22.2386 62.4089C21.7026 62.1468 22.2386 62.3664 22.4196 62.331C22.1637 62.2192 21.8957 62.1372 21.621 62.0866C21.3832 62.0193 21.1951 61.9555 21.1347 61.8351C20.4745 61.6473 21.2696 61.9272 21.0247 61.9201C20.9892 61.8138 20.6946 61.6969 20.3361 61.5658C19.9782 61.4347 19.6316 61.2747 19.2997 61.0876C19.0087 61.0344 19.5517 61.2435 19.0654 61.1124C19.1293 61.0911 18.8915 60.9778 18.7708 60.9246L18.6111 60.9671L18.0042 60.3826C17.0849 60.0638 18.0929 60.6518 16.9394 60.0957L17.0104 60.124C16.8283 59.9705 16.6204 59.8506 16.3963 59.7698C16.0416 59.6236 15.7075 59.4319 15.4025 59.1994C15.6616 59.3872 15.5409 59.2242 15.6438 59.2525L15.1647 59.0152C15.2073 59.0364 15.2321 59.04 15.1966 59.0152C14.8417 58.7034 14.8417 58.8487 14.43 58.4944C14.7459 58.6786 14.6997 58.5476 14.5861 58.4307L13.894 58.0977L14.2312 58.1508C13.933 57.9347 13.5213 57.7293 13.1664 57.5061C12.8834 57.3498 12.6404 57.1304 12.4565 56.8649L12.7582 57.0703C12.7582 57.0278 12.6517 56.8082 12.2151 56.5638C12.0803 56.4858 11.9489 56.4823 12.1158 56.6133C12.0235 56.5283 11.9418 56.4362 11.8531 56.3477C12.348 56.6188 12.8225 56.9255 13.2729 57.2652C13.106 57.1872 12.7334 56.9393 12.8043 57.0703C13.0173 57.212 13.2303 57.3502 13.4432 57.4777C13.6562 57.6053 13.8763 57.7222 14.0857 57.8497C13.9501 57.7915 13.8084 57.7488 13.6633 57.7222C14.0892 58.0764 14.0431 57.9064 14.3909 58.1366C14.5009 58.2606 14.5755 58.3456 14.4726 58.3102C14.9064 58.5404 15.3228 58.8021 15.7184 59.0931C15.7184 59.0931 15.1505 58.8204 15.4131 59.0506C15.7453 59.2387 16.0933 59.3975 16.4531 59.5253C16.7548 59.6387 17.0529 59.7698 17.557 59.9894C18.7602 60.418 19.7469 61.1407 20.6236 61.3426C20.684 61.3178 20.0309 61.038 20.5775 61.2151C20.4533 61.2612 20.8792 61.3887 20.8934 61.4312C21.1396 61.4708 21.3787 61.546 21.6032 61.6544C21.7904 61.7366 21.9872 61.7949 22.1889 61.828C22.0824 61.828 22.4161 61.9661 22.6361 62.0689C22.5367 62.1503 23.2821 62.3204 22.3664 62.1858C22.5876 62.2212 22.8068 62.2685 23.023 62.3275L23.6051 62.4798C23.9479 62.5936 24.3092 62.6416 24.6699 62.6215C24.5954 62.5932 24.5208 62.5719 24.4463 62.54L25.3514 62.7915H25.3123C25.6458 62.8622 25.9724 62.9617 26.2884 63.0891C26.0506 63.0891 25.717 63.0112 25.4827 62.9864C25.9548 63.1954 26.5262 63.0997 27.0728 63.1883C27.0373 63.2627 26.4978 63.121 26.6434 63.2414C27.0069 63.3045 27.3748 63.3389 27.7437 63.3442L27.6869 63.3796C28.6523 63.5957 28.0915 63.2166 28.7907 63.4469C28.7694 63.4186 28.8617 63.4009 28.8227 63.3725C29.0818 63.4469 29.6994 63.5603 29.0747 63.5744C29.3786 63.6 29.6845 63.5929 29.9869 63.5532C29.7029 63.4682 29.6319 63.4965 29.5255 63.4044C29.9833 63.4044 30.4376 63.454 30.8955 63.4398C31.0517 63.4398 30.7819 63.4788 30.5903 63.4753C30.9932 63.5369 31.4001 63.57 31.8077 63.5744C32.2159 63.5744 32.6312 63.5319 33.05 63.5036C33.4688 63.4753 33.8947 63.4221 34.3278 63.3973C34.5443 63.3973 34.7643 63.3725 34.9879 63.3725H35.6623C35.4529 63.3265 35.7866 63.2946 35.9534 63.2273C36.5461 63.1954 37.4157 63.0006 37.9623 62.9616L37.799 63.036C38.4841 62.8766 39.052 62.7101 39.5737 62.5684C40.0955 62.4267 40.5321 62.2779 40.9935 62.1645C41.029 62.1291 40.9935 62.2389 40.848 62.2956C41.4762 62.0122 42.3423 62.0193 42.4629 61.7819C42.3813 61.8103 42.2997 61.828 42.218 61.8492C43.5509 61.3718 44.8395 60.7791 46.0691 60.078C46.424 60.0319 45.3592 60.4322 45.668 60.4322C46.5709 59.9964 47.4511 59.5152 48.3052 58.9904C48.1668 59.0931 48.2058 59.086 48.1384 59.1356C49.0683 58.6397 47.9822 59.1002 48.7418 58.6468C48.7418 58.7176 48.7737 58.707 49.0399 58.5759L49.2103 58.3634C49.2564 58.3634 49.2884 58.413 49.1925 58.5051C49.4587 58.1969 50.4668 57.5876 50.6513 57.3183C50.7294 57.29 50.6158 57.5096 50.7401 57.4671C51.0466 57.2636 51.3288 57.0259 51.5813 56.7586C51.8617 56.5958 52.1288 56.411 52.3799 56.206C53.0472 55.6852 52.4402 56.0713 52.8839 55.6037L52.3408 56.004C52.6319 55.7348 52.9371 55.4868 53.214 55.2034C53.1146 55.3239 53.0117 55.4443 52.9016 55.5577C53.3418 55.2318 53.6719 54.7641 54.1368 54.3355L53.8813 54.4878C54.0481 54.3142 54.2114 54.1336 54.364 53.9529C54.506 53.9919 55.0206 53.3046 54.8574 53.6978C55.2872 53.2917 55.6759 52.8444 56.018 52.3623C56.3481 51.9407 56.6249 51.4908 56.9976 51.009C56.8663 51.1755 56.9373 51.126 56.9302 51.172C57.2739 50.7751 57.5552 50.3284 57.7643 49.8471C57.7643 49.9392 57.6649 50.088 57.6898 50.1092C57.8269 49.9252 57.9457 49.7282 58.0447 49.5212C58.105 49.3972 58.1654 49.2555 58.3996 48.8516C58.3073 49.0996 58.3748 49.0465 58.5203 48.8516C58.46 48.8516 58.5452 48.6603 58.6232 48.4974C58.4742 49.2307 59.2692 47.672 59.2124 48.1431C59.1911 48.0723 59.7945 46.7509 59.4999 47.0804L59.3935 47.3106C59.3154 47.3106 59.507 47.0131 59.6313 46.7863C59.5861 46.8687 59.5527 46.9569 59.5319 47.0485C59.6774 46.7545 59.8194 46.4533 59.9614 46.1487C60.1033 45.844 60.256 45.5394 60.4086 45.2276C60.7113 44.5792 60.9779 43.9145 61.2072 43.2367C61.1859 43.3678 61.0226 43.9452 61.1752 43.591C61.4241 43.0084 61.6247 42.4066 61.7751 41.7914C61.8425 41.5115 61.9171 41.2281 61.9845 40.9234C62.0519 40.6188 62.1087 40.2964 62.1904 39.9351C62.2791 39.9351 62.1904 40.3106 62.0803 40.7144C61.9703 41.1183 61.8354 41.5221 61.91 41.5753C62.3671 40.0071 62.6784 38.4003 62.8399 36.7751C63.17 36.2119 62.9712 35.096 63.2197 34.0438C63.1274 34.1395 63.1487 33.6081 63.1487 33.0271C63.2126 33.229 63.2303 32.6162 63.2729 32.7862C63.2339 32.2761 63.1487 30.8095 63.3155 30.8591C63.17 30.7315 63.2516 29.7644 63.1168 29.3535C63.1105 29.01 63.076 28.6676 63.0138 28.3297C62.9641 27.9754 62.9144 27.5858 62.8576 27.1855C62.808 27.4795 62.6802 26.4026 62.5879 26.1227C62.6127 26.2042 62.6482 26.3671 62.6589 26.3246C62.705 26.0696 62.3891 25.4319 62.3465 24.9785C62.3465 24.7694 62.4459 25.0068 62.382 24.6773C62.3075 24.6773 61.9242 23.526 61.8709 23.069C61.9066 23.1803 61.9593 23.2855 62.0271 23.3808C61.3172 21.3544 60.5754 19.1687 59.4006 17.3053L59.6952 17.5887C59.5823 17.2338 59.3864 16.9108 59.1237 16.6464C58.8876 16.4508 58.6933 16.2098 58.5523 15.9379C57.8034 14.6394 56.9636 13.3952 56.0393 12.2147C55.1205 11.0457 54.0963 9.96302 52.9797 8.98034C52.7987 8.8599 53.0401 9.09725 53.033 9.15747C52.8626 8.96971 52.8697 8.85635 52.568 8.67922V8.77487C52.3035 8.49389 52.0214 8.23003 51.7233 7.98489C51.3683 7.71211 51.0134 7.43934 50.6371 7.16302C50.2609 6.8867 49.8918 6.65643 49.5723 6.41554C49.4126 6.29864 49.2706 6.18173 49.1429 6.06129C49.0272 5.97108 48.9181 5.87282 48.8163 5.76726C48.252 5.47323 47.8047 5.16502 47.3043 4.88516C47.0558 4.73992 46.7967 4.59113 46.5128 4.44235C46.2288 4.29356 45.9058 4.16957 45.5438 4.03141C45.1321 3.76572 46.0975 4.18374 45.5154 3.87908C45.0753 3.68779 44.6174 3.54963 44.1702 3.38313L44.2447 3.40438C44.0655 3.35439 43.889 3.29527 43.7159 3.22725C43.5277 3.16349 43.3361 3.0891 43.1338 3.01116C42.7327 2.85175 42.3103 2.65691 41.8595 2.48332C40.9928 2.10942 40.0868 1.83373 39.1585 1.66145H39.233C39.2827 1.62603 38.9455 1.4985 38.6686 1.45244C38.5657 1.45244 38.7467 1.51975 38.9029 1.5906L37.9517 1.42764L37.2418 1.332C36.8123 1.27177 36.429 1.20446 35.822 1.15133C36.3545 1.15133 35.3429 1.03442 35.3003 0.938773C34.9737 0.963571 35.4742 1.04505 34.7608 1.02734C34.2532 0.998996 33.767 0.93523 33.302 0.896263L31.9674 0.797072C31.6125 0.889178 31.1759 0.875008 31.1546 0.977741C30.5832 0.977741 30.1395 1.02734 29.6639 1.07693L28.9043 1.14778L27.9815 1.26469L27.9424 1.2328C27.5875 1.38868 26.7285 1.35679 26.4801 1.46661C26.512 1.41702 26.6576 1.37451 26.6114 1.34617L25.9903 1.49141C26.2813 1.40639 26.4304 1.2576 25.9051 1.33908C25.3869 1.54101 26.0648 1.36388 25.8164 1.49141L25.6318 1.41347C25.2307 1.51621 25.1455 1.66854 25.6318 1.59414C24.3108 1.88688 23.0073 2.25352 21.7275 2.69233L21.8304 2.57897C21.5003 2.69587 21.1205 2.85883 20.7656 2.98282C20.4107 3.10681 20.0912 3.20954 19.8889 3.26977C19.8889 3.29811 19.7398 3.40084 19.8534 3.37958C19.1435 3.80115 19.7221 3.30165 18.9377 3.76218C19.1274 3.69368 19.3057 3.59694 19.4665 3.47523C18.9554 3.71967 18.4621 3.99953 17.9722 4.27939C17.7637 4.30624 17.561 4.36728 17.3724 4.46006C17.0215 4.6137 16.6823 4.79247 16.3573 4.99498C16.3573 5.03749 16.5489 4.97373 16.7122 4.88871L16.3253 5.13668C16.2011 5.15794 16.0769 5.17565 15.9704 5.20045L15.4664 5.65035L15.3989 5.56533C14.9943 5.84519 14.902 6.0542 14.5755 6.27384C13.3226 7.05674 13.5462 6.85482 12.6482 7.41808C12.6695 7.54207 12.3252 7.77234 11.9951 8.06282C11.7109 8.25972 11.4584 8.49862 11.2462 8.77133C10.0926 9.58966 8.71192 11.1059 7.52997 12.5193L7.60806 12.3883C7.05081 12.9551 7.17149 13.1853 6.63908 13.8443L6.73491 13.653C5.88469 14.6988 5.18024 15.8547 4.64078 17.0892C4.71532 16.8908 4.60529 16.9511 4.44911 17.2451C4.34973 17.5108 4.71177 17.0786 4.39232 17.5675C4.44556 17.4328 4.34618 17.5108 4.28584 17.6277L4.12257 18.1874C3.74634 18.8357 3.3914 19.5725 3.05776 20.3129C2.72648 21.0574 2.44546 21.8231 2.21656 22.605C2.09233 22.8706 2.12072 22.6581 2.11007 22.5802C1.78227 23.7349 1.51921 24.9069 1.32211 26.0908L1.18369 26.1758C1.0914 26.7178 1.30792 26.5301 1.08431 27.2386C1.04171 27.3945 1.15529 26.7745 1.134 26.5726C0.867793 27.6354 1.134 27.228 0.984922 28.2624L0.881991 27.9754C0.754652 28.3705 0.754652 28.7955 0.881991 29.1905C0.926825 29.5316 0.881552 29.8784 0.750664 30.1966C0.694398 30.3458 0.652794 30.5 0.626436 30.6572C0.60121 30.9424 0.60121 31.2292 0.626436 31.5144C0.690325 31.7589 0.729368 31.4365 0.789707 31.6774C0.758725 32.057 0.758725 32.4385 0.789707 32.8181C0.821651 33.1192 0.818102 33.4203 0.846497 33.9588C0.686775 34.5433 0.807454 33.4097 0.661929 34.0474V33.222C0.573195 33.9305 0.619337 32.5772 0.502208 32.6906C0.497847 33.0113 0.514446 33.332 0.551899 33.6506L0.711621 34.7134C0.619337 34.7134 0.640633 33.9057 0.54125 34.2351L0.605139 34.5894C0.551635 34.4916 0.523566 34.382 0.523504 34.2705C0.445417 34.4052 0.548349 34.6921 0.573195 35.0322C0.622886 35.0499 0.690324 35.0322 0.747114 34.9082C0.73183 34.9366 0.723327 34.9681 0.722269 35.0003C0.921034 35.6805 0.963627 36.8566 1.18369 37.4269C1.1411 37.3348 1.14819 37.4269 1.13045 37.4517C1.17026 37.6673 1.22723 37.8793 1.30082 38.0859C1.38245 38.3055 1.47474 38.5393 1.54927 38.7944C1.54927 39.1097 1.31856 38.6668 1.54927 39.5383C1.6664 39.6765 1.6877 39.2584 1.88291 39.9847C1.88291 39.9847 1.64866 39.3683 1.69125 39.719C1.93616 40.4275 1.73029 39.9563 1.82258 40.6329C2.02134 40.9872 2.00004 41.3415 2.17751 41.3804C2.14202 41.6461 2.17751 41.5682 2.2272 42.0393C2.2272 41.926 2.33014 42.1314 2.42952 42.3546C2.5289 42.5778 2.66023 42.8116 2.70282 42.7762C2.65313 43.0029 2.2769 42.0925 2.34788 42.7089C2.57859 43.0631 2.88384 43.7894 3.03291 43.7964C3.11315 44.1077 3.21152 44.4141 3.32751 44.714C3.30066 44.6435 3.26094 44.5786 3.21038 44.5227C3.32041 44.7175 3.42689 44.9371 3.53692 45.1674L3.89186 45.8511C4.05375 46.22 4.27163 46.5617 4.53785 46.8643C4.27165 46.8076 5.44294 48.5116 4.94248 48.0191C5.14532 48.321 5.37456 48.6043 5.62751 48.8658C5.54942 48.8906 5.663 49.0925 5.81562 49.3334C5.98252 49.5558 6.12866 49.793 6.2522 50.0419C6.44031 50.1659 6.7988 50.7256 7.0934 51.0055C6.96917 50.8744 6.89109 50.8142 6.89463 50.8922C7.22473 51.211 7.10405 51.1578 7.28507 51.5085C7.69679 51.9655 7.30991 51.3456 7.59386 51.5936C7.89201 52.0328 7.56547 51.7211 7.57257 51.8345L8.2079 52.3375C8.28142 52.4293 8.33464 52.5355 8.36408 52.6492C8.60944 52.8275 8.822 53.0468 8.99232 53.2975C8.83614 53.1346 8.67642 52.9716 8.5309 52.798L8.64093 53.0496L9.27272 53.5668C9.98259 54.4843 9.62765 54.3426 9.43954 54.3957L9.0846 54.0698C9.05265 54.1194 9.25852 54.3816 9.40049 54.5339L7.76068 52.6351ZM1.97165 22.9344C1.99649 22.8529 2.03554 22.7289 2.07813 22.5802C2.03199 22.7608 1.99295 22.86 1.97165 22.9344ZM2.32659 21.6095C2.2698 21.7512 2.29109 21.8185 2.32659 21.7795C2.40467 21.5528 2.48986 21.3438 2.55375 21.1738C2.45791 21.3722 2.31239 21.6945 2.31949 21.6095H2.32659ZM0.967176 24.1105V24.0787C1.00622 23.9086 1.03816 23.7775 1.06656 23.6677C0.995254 23.7729 0.953574 23.8952 0.94588 24.022C0.949131 24.0523 0.956289 24.0821 0.967176 24.1105Z" fill="#2C2C2C"/>
<path d="M0.967285 24.4543V24.5535C0.985032 24.5074 1.00278 24.4614 1.02408 24.4189V24.3303L0.967285 24.4543ZM37.1106 63.4541H37.0751H37.1106ZM15.4665 5.68237L15.4523 5.66111L15.3529 5.74968L15.4665 5.68237ZM28.8441 63.3727C28.8109 63.3541 28.775 63.3409 28.7376 63.3337C28.7713 63.3511 28.8071 63.3642 28.8441 63.3727ZM25.3338 62.7917L24.851 62.65C25.0569 62.7137 25.2095 62.7598 25.3338 62.7917ZM22.7037 62.0548C22.6803 62.0561 22.6579 62.0648 22.6398 62.0796L22.7037 62.0548ZM59.6314 46.7794L59.6775 46.6837C59.7733 46.457 59.7059 46.6129 59.6314 46.7794ZM51.5849 56.7587C51.6843 56.6595 51.7802 56.5639 51.8866 56.4682C51.6985 56.6135 51.5565 56.7091 51.5849 56.7587ZM52.3445 56.075C52.1803 56.192 52.0271 56.3237 51.8866 56.4682C52.0458 56.345 52.1986 56.2137 52.3445 56.075ZM12.3466 56.5037L12.2437 56.4222H12.2224L12.3466 56.5037ZM12.2224 56.4222C12.1798 56.3974 12.1407 56.3655 12.1017 56.3407C12.1514 56.3832 12.1975 56.4222 12.2224 56.4222ZM11.8532 56.16L12.1017 56.3407C12.0295 56.2671 11.9455 56.206 11.8532 56.16ZM15.2571 58.6327H15.3139C15.3051 58.6281 15.2954 58.6257 15.2855 58.6257C15.2756 58.6257 15.2658 58.6281 15.2571 58.6327ZM16.1977 59.1995C15.9705 59.0685 15.6794 58.7886 15.3565 58.6186H15.3139C15.4878 58.6646 15.9492 59.1322 16.1977 59.1995ZM20.1339 61.6191C19.8464 61.4987 19.5696 61.357 19.2856 61.2294C19.4205 61.3286 19.598 61.4597 19.204 61.3003C20.2546 61.8706 19.0265 61.1302 20.1339 61.6191ZM22.8634 62.6358C22.3807 62.4977 22.8634 62.6889 22.8208 62.7031C23.1402 62.7456 23.2148 62.7563 22.8634 62.6358ZM43.4285 61.8387V61.9415C43.7728 61.7927 43.4036 61.906 43.4285 61.8387ZM46.8465 59.7663C46.7294 59.8089 46.6158 59.8549 46.4916 59.8903L46.3709 60.0427C46.5377 59.9576 46.6939 59.8655 46.8465 59.7663ZM49.2069 59.1322L49.0684 59.235L49.6008 58.863L49.2069 59.1322ZM63.8906 28.9817L63.7912 29.1092C63.8303 29.3572 63.9652 29.3997 63.8906 28.9817ZM58.8221 14.7902C58.7319 14.5148 58.5774 14.2646 58.3713 14.0605C58.5488 14.3439 58.7085 14.645 58.8221 14.7902ZM18.5544 2.99358L18.8206 2.83771C18.6467 2.92273 18.4657 3.00421 18.306 3.1034C18.3876 3.06443 18.4693 3.02546 18.5544 2.99358ZM53.3667 9.39849C53.3667 9.35244 53.3064 9.31702 53.2496 9.39849L53.2886 9.52603L53.3667 9.39849ZM52.7882 9.67835C52.7527 9.79172 52.7385 9.95113 52.8627 9.97593C52.8627 9.8236 52.9089 9.83777 52.8947 9.66419C52.9515 9.58979 53.0331 9.57916 53.0544 9.61813C53.0544 9.57562 53.1715 9.53665 53.1538 9.45163C53.0792 9.46343 53.0097 9.49696 52.9542 9.54801C52.8986 9.59906 52.8594 9.66536 52.8414 9.73858C52.7882 9.74212 52.7882 9.69607 52.7882 9.67835ZM46.3603 15.8247L46.4099 15.7963C46.391 15.8009 46.3738 15.8107 46.3603 15.8247ZM42.4169 19.6719C42.4417 19.64 42.4488 19.6187 42.4417 19.6081C42.4347 19.5975 42.4027 19.6683 42.4169 19.6719ZM41.6573 20.2422L41.7035 20.2103C41.6822 20.2174 41.6609 20.228 41.6573 20.2422ZM46.3603 15.8247L46.2289 15.9026C46.2467 15.938 46.3035 15.8743 46.3603 15.8247ZM52.1102 10.7411C52.1271 10.7177 52.1391 10.6912 52.1457 10.6632L52.1031 10.7269C52.1068 10.7309 52.1093 10.7358 52.1102 10.7411ZM48.0107 14.0428L48.0427 14.0109C48.0458 13.9909 48.0458 13.9706 48.0427 13.9507L48.0107 14.0428ZM49.3169 12.7143C49.2814 12.7427 49.3417 12.8241 49.363 12.8666C49.3548 12.8489 49.3505 12.8295 49.3505 12.81C49.3505 12.7904 49.3548 12.771 49.363 12.7533C49.3508 12.737 49.335 12.7237 49.3169 12.7143ZM51.5317 10.7517L51.5565 10.7057L51.5317 10.7517ZM47.0524 14.9709C47.0395 14.9685 47.0262 14.9685 47.0133 14.9709C47.0195 14.9735 47.0262 14.9749 47.0329 14.9749C47.0396 14.9749 47.0462 14.9735 47.0524 14.9709ZM10.6997 52.3093C10.6997 52.3093 10.689 52.3199 10.6997 52.3093V52.3093ZM8.82205 53.4854V53.4606C8.8122 53.4449 8.80026 53.4306 8.78656 53.4181L8.82205 53.4854ZM40.3654 21.3687C40.3831 21.3262 40.3654 21.3439 40.3654 21.3687V21.3687ZM29.2239 32.5773C29.412 32.5136 29.0961 32.8643 29.3587 32.7438C29.3126 32.7368 29.4226 32.4604 29.2239 32.5773ZM52.0783 10.7659L52.0251 10.8226C52.0465 10.8075 52.0646 10.7882 52.0783 10.7659ZM29.3623 32.7438H29.3871H29.3623ZM37.5862 24.2099C37.6059 24.2153 37.6268 24.2153 37.6465 24.2099C37.6465 24.2099 37.6217 24.2063 37.5862 24.2099ZM39.7762 22.226L39.7158 22.2685C39.7382 22.2579 39.7586 22.2435 39.7762 22.226ZM36.5995 25.3931C36.5675 25.4179 36.5498 25.4179 36.5178 25.4639H36.5391C36.5423 25.448 36.5495 25.4331 36.5601 25.4207C36.5707 25.4083 36.5842 25.3988 36.5995 25.3931ZM35.4708 26.5231H35.5063L35.5382 26.4842L35.4708 26.5231ZM14.1 48.8482C14.0625 48.8558 14.0239 48.8558 13.9864 48.8482C14.0538 48.8695 13.9048 49.0537 14.1 48.8482Z" fill="#2C2C2C"/>
</svg>
