<svg width="64" height="64" viewBox="0 0 64 64" fill="none" xmlns="http://www.w3.org/2000/svg">
<path d="M9.8018 54.332C9.70597 54.2824 9.69887 54.371 9.91893 54.5587L10.1461 54.6154L9.8018 54.332ZM11.0689 55.8057C11.3635 55.9828 11.722 56.1599 11.6262 55.9368C11.2996 55.8057 11.2712 55.7171 10.9163 55.5825C10.6891 55.4018 10.5614 55.2282 10.6359 55.2282C10.5436 55.1822 10.3307 54.9059 10.1674 54.8492C10.4212 55.2258 10.7543 55.5426 11.1435 55.7773C11.2003 55.8517 11.1009 55.8057 11.0689 55.8057ZM37.3272 63.4363H37.1426C37.1923 63.4505 37.2562 63.4434 37.3272 63.4363ZM53.0296 56.0466C52.9303 56.1351 52.8948 56.1812 52.8983 56.1918C52.9871 56.1068 53.0616 56.0324 53.0296 56.0466ZM55.2729 54.0521L55.1451 54.1726C55.1933 54.1388 55.2363 54.0983 55.2729 54.0521ZM37.3272 63.4363L37.7957 63.3938C37.8206 63.3442 37.5544 63.4044 37.3272 63.4363ZM14.2918 57.956C14.2206 57.9109 14.1458 57.8718 14.0682 57.8391L14.2705 57.9631L14.2918 57.956ZM29.6002 63.8862H29.4582L29.3376 63.9252L29.6002 63.8862ZM23.726 62.912C23.8573 62.951 23.9283 62.866 23.9887 62.8376C23.8894 62.8602 23.7862 62.8602 23.687 62.8376C23.6834 62.8447 23.6834 62.8731 23.726 62.912ZM15.1649 59.0152L15.0158 58.9373L15.1649 59.0152ZM33.8666 63.9464C33.8818 63.9625 33.9016 63.9737 33.9234 63.9783C33.9234 63.9783 33.8985 63.9535 33.8666 63.9464ZM5.69517 48.8658C5.69517 48.8658 5.71647 48.9048 5.69517 48.8658V48.8658ZM9.56399 54.4631L9.49301 54.3993C9.47328 54.4024 9.45483 54.411 9.43976 54.4241L9.56399 54.4631ZM58.8222 49.8152L58.8045 49.8365C58.7406 49.9605 58.7867 49.8826 58.8222 49.8152ZM49.3667 5.18276C49.8033 5.55827 48.5148 4.78246 49.1928 5.32447C49.1431 5.24653 49.9488 5.60078 49.3667 5.18276ZM14.4089 58.0552L14.6077 58.1898C14.5189 58.126 14.455 58.0835 14.4089 58.0552ZM49.1928 5.32447L49.2602 5.3776L49.1928 5.32447ZM63.5429 38.0611C63.5138 38.0972 63.491 38.1379 63.4755 38.1815C63.4755 38.1815 63.5039 38.1532 63.5429 38.0611ZM60.313 46.9245L60.4266 46.7226C60.3844 46.7874 60.3465 46.8549 60.313 46.9245ZM63.9333 33.1688C63.9441 33.051 63.9441 32.9324 63.9333 32.8146C63.9309 32.8322 63.9309 32.8501 63.9333 32.8677C63.9528 32.9672 63.9528 33.0694 63.9333 33.1688ZM63.6955 28.0782V28.1739L63.7168 28.3333L63.6955 28.0782ZM0.857374 34.6496C0.844846 34.7321 0.819707 34.8121 0.782837 34.887C0.846726 34.8197 0.924812 35.5494 0.857374 34.6496ZM14.2634 58.0056C14.3165 58.0024 14.3688 58.0202 14.4089 58.0552L14.2705 57.9631C14.2492 57.9666 14.2385 57.9773 14.2634 58.0056ZM63.1525 32.9386L63.188 32.1486C63.1702 32.3718 63.1596 32.6587 63.1525 32.9386ZM16.8686 4.80017L16.7124 4.89936C16.7686 4.87324 16.8211 4.8399 16.8686 4.80017ZM63.0815 29.8034C63.1057 29.6546 63.1187 29.5043 63.1205 29.3535C63.1121 29.3228 63.1002 29.293 63.085 29.265L63.0815 29.8034Z" fill="#2C2C2C"/>
<path d="M7.76068 52.6351L7.31701 52.1923L6.89818 51.7317L6.93013 51.6857C6.87538 51.5734 6.78741 51.4807 6.67812 51.42C6.73846 51.42 6.58584 51.2251 6.38352 50.9665C6.18121 50.7079 5.95405 50.3749 5.81208 50.1659L5.85822 50.3572C5.64088 50.1185 5.44492 49.8613 5.27257 49.5885C5.1235 49.337 4.99927 49.0925 4.88569 48.8587C4.77211 48.6249 4.65853 48.3982 4.5485 48.1502C4.43879 47.9041 4.30941 47.6671 4.16161 47.4417C3.99834 47.2327 3.82797 47.0237 3.6718 46.8111L3.6931 46.6128C3.41444 46.2773 3.18717 45.9024 3.01872 45.5004C2.57149 44.2428 2.02134 42.9817 1.59896 41.6603C1.36116 41.012 1.20143 40.3389 1.00977 39.6765L0.793256 38.6704L0.708071 38.1921L0.640633 37.6891C0.624747 37.7829 0.624747 37.8787 0.640633 37.9725C0.561046 36.9752 0.419987 35.9838 0.218257 35.0038C0.14727 34.561 0.0762825 34.1253 0.0265912 33.6612C-0.00886374 33.1683 -0.00886374 32.6734 0.0265912 32.1804L0.0691833 32.3292C0.0514365 31.2452 0.0975787 32.4745 0.172116 31.688C0.0407887 31.5392 0.0975787 30.31 0.111776 29.683C0.121374 29.8481 0.121374 30.0137 0.111776 30.1789C0.19685 30.037 0.237627 29.8729 0.228906 29.7078C0.194041 29.491 0.175061 29.2719 0.172116 29.0524C0.172116 28.7973 0.193411 28.5104 0.214708 28.2093C0.250201 27.6106 0.356683 26.9694 0.420572 26.438C0.512855 26.3175 0.77551 25.4 1.03106 24.9537C1.03106 24.8332 0.99912 24.6207 0.988472 24.4258C1.11313 24.121 1.18745 23.7979 1.20853 23.4693C1.1198 23.8236 1.03816 24.107 0.977824 24.3373V24.3089C0.970537 24.3603 0.959866 24.4112 0.94588 24.4612C0.892639 24.6951 0.874892 24.8155 0.892639 24.7659C0.71872 25.1804 0.835849 24.7199 0.732917 24.7269C0.801027 24.3306 0.920334 23.9448 1.08785 23.5792C1.14464 23.3701 1.19079 23.2249 1.26532 23.023C1.2947 22.8757 1.33625 22.7312 1.38955 22.5908V22.6652C1.41217 22.64 1.43237 22.6127 1.44989 22.5837C1.58489 22.2102 1.69399 21.8279 1.77643 21.4395C1.88292 21.0427 1.97165 20.653 2.04264 20.3767C1.95745 20.9648 2.2272 20.2881 2.31239 20.3236C2.33369 20.2598 2.06038 20.9293 1.75869 21.7725C1.79063 21.7158 1.81903 21.6733 1.85807 21.6662C2.01689 21.3385 2.14521 20.997 2.2414 20.6459C2.29819 20.4653 2.35143 20.2917 2.42952 20.065C2.50761 19.8382 2.61054 19.6328 2.73831 19.3812C2.72057 19.4521 2.68152 19.5938 2.73831 19.5584C2.87945 19.3029 2.96417 19.0203 2.98677 18.7294C3.28783 18.3773 3.52777 17.9774 3.69665 17.5462C3.75861 17.2169 3.88921 16.9043 4.07998 16.6287L3.99124 16.9156C4.42782 16.2532 4.2184 16.2992 4.60174 15.7608C4.44202 15.9698 4.48461 16.0265 4.60174 15.8635C4.85756 15.448 5.05914 15.0016 5.20158 14.535L5.22643 14.6838C5.58136 14.0674 6.24155 12.9126 6.37288 12.9799C6.07118 13.0366 7.22118 11.6798 7.6471 11.2334C7.51577 11.3999 7.52287 11.4566 7.52642 11.4849C7.71099 11.2192 7.90976 10.9606 8.11917 10.7091C8.32858 10.4576 8.56639 10.2309 8.7971 10.0006C9.25497 9.52235 9.76253 9.10079 10.2169 8.65089L10.4689 8.61546C10.9729 8.14784 10.9409 7.80776 11.5159 7.31889L11.3526 7.54916C11.6011 7.32597 11.8176 7.1453 12.0235 6.98943L12.5736 6.56079C12.9286 6.29155 13.2587 6.06837 13.7094 5.77434L13.7485 5.86645C14.036 5.60784 14.4335 5.33152 14.7423 5.09417C15.0392 4.98508 15.3226 4.84245 15.5871 4.66907L16.7371 3.99244C17.5376 3.49142 18.4035 3.10282 19.3104 2.83758V2.62502C19.8747 2.36996 20.6094 2.07239 20.9289 2.10073L20.7975 2.14324C20.7975 2.30265 21.3725 1.92006 21.7523 1.84212C22.0221 1.73939 22.2741 1.56226 22.0256 1.61186C22.4232 1.50912 22.8597 1.37096 23.3247 1.2576C23.7897 1.14424 24.2546 1.00254 24.7161 0.903348C25.1775 0.804157 25.6176 0.708508 26.0116 0.65537C26.341 0.609017 26.6728 0.581811 27.0054 0.573891C27.4065 0.481785 27.7863 0.428648 28.1554 0.357797C28.5245 0.286946 28.8653 0.216095 29.2486 0.177127C29.6319 0.138159 29.9833 0.0850207 30.3738 0.0460527C30.7642 0.00708479 31.1759 0.00708508 31.6231 0L31.6018 0.0212551C32.2017 0.0212551 33.3978 0.131074 33.3765 0.276318C34.0119 0.29403 34.5336 0.276318 35.0909 0.276318C35.725 0.282336 36.3572 0.347568 36.9791 0.471158H36.6455C37.0257 0.547017 37.4115 0.590862 37.799 0.602232C37.9304 0.627029 37.8274 0.6412 37.799 0.662455C38.082 0.731016 38.3708 0.772533 38.6615 0.786444L38.5338 0.814784C39.698 1.1407 41.5933 1.46307 43.0592 2.02633C42.7824 1.94131 42.9066 2.04759 43.006 2.1149C43.6697 2.15741 45.2847 2.873 45.8845 3.13869L45.4906 3.02179C45.8721 3.15122 46.2313 3.33884 46.5554 3.57797C46.8726 3.81114 47.2156 4.00726 47.5776 4.16249L46.9919 3.71967C47.4285 3.99953 47.826 4.1802 47.7586 4.05267C48.2484 4.40692 47.7586 4.19437 48.5288 4.67261C48.5288 4.70095 48.3904 4.62302 48.2768 4.56279C48.1632 4.50257 48.0638 4.47069 48.1774 4.56279L49.1677 5.32798C49.3276 5.44964 49.4961 5.55973 49.6717 5.65744C49.7037 5.41655 50.5271 6.23841 50.1296 5.70703C50.8135 6.17615 51.4711 6.68231 52.0995 7.22324L52.9691 7.98489L53.4092 8.33914L53.8422 8.6934C54.1723 9.24603 55.9719 10.8189 55.6418 10.911C56.0891 11.4402 56.5743 11.9362 57.0935 12.3954C56.9887 12.2418 56.8699 12.0983 56.7385 11.9667C57.1335 12.3662 57.4978 12.7949 57.8282 13.2491C57.4085 12.766 56.9593 12.3093 56.483 11.8817C56.7456 12.1651 57.0402 12.5193 57.3313 12.8311L57.7572 13.2845C57.8708 13.4191 57.9666 13.5325 58.034 13.6175V13.8584C58.4884 14.3402 58.2612 14.365 58.7439 14.8362L58.7155 14.7086C59.3367 15.7289 59.4857 15.658 60.0394 16.6287H59.9685C60.0768 16.8237 60.1953 17.0129 60.3234 17.1955C60.4489 17.3806 60.5358 17.589 60.5789 17.8084C60.4654 17.5923 60.366 17.3726 60.2418 17.1601C60.2834 17.4587 60.3609 17.7513 60.4725 18.0315C60.8274 18.7082 60.7351 18.2051 60.9197 18.5452C60.9197 18.733 60.8913 18.6019 60.6925 18.4C60.9055 18.7755 61.1078 19.236 61.3279 19.6576C61.5479 20.0791 61.7396 20.4759 61.9029 20.7451C61.9029 20.7841 61.8674 20.7451 61.8674 20.7451C62.1868 21.5812 62.5772 22.2897 62.666 22.8388L62.5985 22.6758C62.6757 23.0752 62.7825 23.4683 62.918 23.8519C63.0387 24.2274 63.138 24.5356 63.0351 24.6348C63.0777 24.9891 62.8541 23.8874 62.8789 24.44C63.0493 25.5028 63.2339 25.0847 63.3617 26.0129C63.3404 25.8853 63.3368 25.9279 63.3049 25.8889C63.3794 26.2219 63.4433 26.5974 63.5214 27.0083C63.5995 27.4193 63.6705 27.8089 63.7237 28.1809C63.6847 29.1055 64.0112 30.9831 63.8018 32.0423C63.8728 31.688 63.8941 32.3044 63.9225 32.308C63.9509 32.3115 63.9047 32.2655 63.887 32.308C63.8735 32.5043 63.9026 32.7013 63.9721 32.8854C63.9462 33.1102 63.9462 33.3372 63.9721 33.562C63.9926 33.7575 63.9926 33.9546 63.9721 34.1501C64.0093 34.3682 64.0093 34.5909 63.9721 34.809C63.9721 34.1005 63.8834 34.5823 63.8302 34.267C63.7414 35.2873 63.9438 35.4573 63.7805 36.5201C63.7308 36.7114 63.6598 36.9027 63.5995 37.0904C63.7166 37.2321 63.4965 38.2028 63.5498 38.1886C63.4717 38.3622 63.3865 38.6172 63.3297 38.5641C63.2281 38.9675 63.1522 39.3769 63.1026 39.7898C63.1522 39.6552 63.1877 39.5206 63.2339 39.3824C63.0671 40.0272 62.9393 40.5408 62.8505 41.0262C62.7525 41.5041 62.6087 41.9715 62.4211 42.4219L62.2294 42.3334C61.9384 42.9462 61.9029 43.5485 61.5834 44.0515C61.7183 43.885 61.7254 43.8389 61.6225 44.2641C61.7396 44.0373 61.8496 43.5555 62.0023 43.1694L61.7964 44.0657L62.2436 42.7124C62.1052 43.3111 62.1016 43.2651 62.2685 43.0667C62.0164 43.8992 61.8638 43.9133 61.6012 44.6998C61.4556 44.9619 61.5089 44.6502 61.335 44.9442C61.122 45.6527 60.6038 46.1416 60.476 46.6659C60.3802 46.8076 60.6038 46.3931 60.5399 46.4073C60.4016 46.6905 60.283 46.9828 60.185 47.2823L60.405 46.928C60.2616 47.2644 60.0919 47.5889 59.8975 47.8987C59.7484 48.253 59.7271 48.5151 59.9401 48.1396C59.8691 48.3026 59.6242 48.6001 59.6384 48.4513C59.0705 49.3511 59.5603 49.004 58.9285 49.8188C58.964 49.7585 58.9924 49.6877 58.9604 49.716C58.8319 49.8862 58.7134 50.0636 58.6055 50.2474C59.106 49.4858 58.3109 50.3891 58.9427 49.5212C58.7936 49.5637 58.46 50.1766 58.2328 50.4352C57.9986 50.9063 58.3322 50.5733 58.2328 50.8248C58.2044 50.7965 58.0873 50.9807 57.9169 51.1791C57.9918 51.1336 58.0641 51.0839 58.1334 51.0303C58.0092 51.2074 57.8708 51.3846 57.7288 51.5936L57.9702 51.2393C57.8175 51.42 57.6152 51.6361 57.3739 51.8911C57.2603 52.0187 57.1396 52.1568 57.0189 52.3056C56.8982 52.4544 56.7705 52.6067 56.664 52.7768C56.7811 52.589 57.0189 52.2135 56.6214 52.6067C56.0712 53.3152 56.4546 52.7414 56.0748 53.0885C55.4998 53.7758 56.0748 53.3117 55.1413 54.2434C55.0419 54.3461 55.1697 54.2824 55.2868 54.1938C54.6408 54.835 54.3001 55.1963 53.6257 55.7631C53.9203 55.5152 54.1546 55.331 53.8067 55.7171C53.86 55.6144 53.7216 55.7171 53.5263 55.8907C53.3311 56.0643 53.0791 56.2449 52.9336 56.3406L52.8946 56.4291C52.6567 56.5708 52.8661 56.3689 53.0259 56.213C53.0259 56.213 53.1004 56.1882 53.2211 56.0784C53.5263 55.7702 53.2992 55.7525 52.7739 56.1847C52.245 56.6913 52.4189 56.7019 52.529 56.6523C51.7446 57.2404 51.9256 57.3608 51.1447 57.9028C50.9708 58.0304 50.2822 58.2996 49.725 58.6751C49.4871 58.9585 50.4632 58.25 50.1864 58.544C49.1216 58.9869 48.2981 59.9363 46.9032 60.5137L47.0168 60.3259C46.7044 60.4747 46.3956 60.6164 46.0514 60.8006L46.5376 60.6341C46.2395 60.8113 45.4977 61.1513 45.6964 60.953C45.2165 61.2393 44.7042 61.4676 44.1702 61.6331C44.8801 61.3356 44.1702 61.6331 44.6813 61.3604C44.2311 61.5173 43.7892 61.697 43.3574 61.8988C43.4284 61.828 43.1302 61.874 42.9314 61.9484C42.635 62.1002 42.3263 62.227 42.0086 62.3275C41.6537 62.4479 41.2668 62.5932 40.919 62.6994V62.6676C40.3163 62.8518 39.7021 62.9962 39.0804 63.0997L38.1398 63.2804C37.8274 63.33 37.5187 63.3938 37.2205 63.4682L37.1602 63.4859H37.256C37.4761 63.5071 37.256 63.5638 36.9011 63.6311C36.5461 63.6984 36.1273 63.7445 35.9427 63.7941C35.8299 63.7502 35.7071 63.7379 35.5878 63.7587C35.5878 63.8614 35.1193 63.872 34.9489 63.9252C34.5194 63.9252 34.9915 63.7976 34.2639 63.8543C33.9835 63.8826 33.9551 63.9393 33.9906 63.9783C33.6564 63.9336 33.3197 63.9111 32.9825 63.911C33.1243 63.9008 33.2667 63.9008 33.4085 63.911C33.4582 63.8543 33.1991 63.8826 33.2026 63.8118C32.8477 63.8118 33.0677 63.911 32.6418 63.8862L33.0358 63.7941C32.8777 63.7874 32.7194 63.7981 32.5637 63.826C32.8228 63.7976 32.7838 63.7161 32.7447 63.6666C31.7616 63.7516 32.5566 63.8933 32.5069 63.9854C32.0349 63.9854 31.6196 63.957 31.2256 63.9854C30.8496 64.0049 30.4729 64.0049 30.0969 63.9854L30.2424 63.8968C30.0219 63.879 29.8 63.8897 29.5822 63.9287L29.0356 63.8897C29.3551 63.8897 29.4616 63.8543 29.49 63.7799C28.9079 63.7799 28.1199 63.6276 27.9531 63.748L27.9779 63.7303C27.2062 63.6107 26.4427 63.4427 25.6921 63.2273C25.2804 63.16 24.8225 63.0572 24.4605 62.9722C24.0985 62.8872 23.8394 62.8199 23.811 62.8801C23.5285 62.8081 23.252 62.7146 22.984 62.6002C22.7525 62.4828 22.4981 62.4175 22.2386 62.4089C21.7026 62.1468 22.2386 62.3664 22.4196 62.331C22.1637 62.2192 21.8957 62.1372 21.621 62.0866C21.3832 62.0193 21.1951 61.9555 21.1347 61.8351C20.4745 61.6473 21.2696 61.9272 21.0247 61.9236C20.9892 61.8173 20.6946 61.6969 20.3361 61.5694C19.9782 61.4382 19.6316 61.2783 19.2997 61.0911C19.0087 61.038 19.5517 61.247 19.0654 61.1159C19.1293 61.0947 18.8915 60.9813 18.7708 60.9282L18.6111 60.9671L18.0042 60.3826C17.0849 60.0638 18.0929 60.6518 16.9394 60.0957L17.0104 60.124C16.8283 59.9705 16.6204 59.8506 16.3963 59.7698C16.0416 59.6236 15.7075 59.4319 15.4025 59.1994C15.6616 59.3872 15.5409 59.2242 15.6438 59.2525L15.1647 59.0152C15.2073 59.0364 15.2321 59.04 15.1966 59.0152C14.8417 58.7034 14.8417 58.8487 14.43 58.4944C14.7459 58.6786 14.6997 58.5476 14.5861 58.4307L13.894 58.0977L14.2312 58.1508C13.933 57.9347 13.5213 57.7293 13.1664 57.5061C12.8834 57.3498 12.6404 57.1304 12.4565 56.8649L12.7582 57.0703C12.7582 57.0278 12.6517 56.8082 12.2151 56.5673C12.0803 56.4858 11.9489 56.4823 12.1158 56.6133C12.0235 56.5283 11.9418 56.4362 11.8531 56.3477C12.348 56.6188 12.8225 56.9255 13.2729 57.2652C13.106 57.1872 12.7334 56.9393 12.8043 57.0703C13.0173 57.212 13.2303 57.3502 13.4432 57.4777C13.6562 57.6053 13.8763 57.7222 14.0857 57.8497C13.9501 57.7915 13.8084 57.7488 13.6633 57.7222C14.0892 58.0764 14.0431 57.9064 14.3909 58.1366C14.5009 58.2606 14.5755 58.3456 14.4726 58.3102C14.9064 58.5404 15.3228 58.8021 15.7184 59.0931C15.7184 59.0931 15.1505 58.8204 15.4131 59.0506C15.7453 59.2387 16.0933 59.3975 16.4531 59.5253C16.7548 59.6387 17.0529 59.7698 17.557 59.9894C18.7602 60.418 19.7469 61.1407 20.6236 61.3426C20.684 61.3178 20.0309 61.038 20.5775 61.2151C20.4533 61.2612 20.8792 61.3887 20.8934 61.4312C21.1396 61.4708 21.3787 61.546 21.6032 61.6544C21.7904 61.7366 21.9872 61.7949 22.1889 61.828C22.0824 61.828 22.4161 61.9661 22.6361 62.0689C22.5367 62.1503 23.2821 62.3204 22.3664 62.1858C22.5876 62.2212 22.8068 62.2685 23.023 62.3275L23.6051 62.4798C23.9479 62.5936 24.3092 62.6416 24.6699 62.6215C24.5954 62.5932 24.5208 62.5719 24.4463 62.54L25.3514 62.7915H25.3123C25.6458 62.8622 25.9724 62.9617 26.2884 63.0891C26.0506 63.0891 25.717 63.0112 25.4827 62.9864C25.9548 63.1954 26.5262 63.0997 27.0728 63.1883C27.0373 63.2627 26.4978 63.121 26.6434 63.2414C27.0069 63.3045 27.3748 63.3389 27.7437 63.3442L27.6869 63.3796C28.6523 63.5957 28.0915 63.2166 28.7907 63.4469C28.7694 63.4186 28.8617 63.4009 28.8227 63.3725C29.0818 63.4469 29.6994 63.5603 29.0747 63.5744C29.3786 63.6 29.6845 63.5929 29.9869 63.5532C29.7029 63.4682 29.6319 63.4965 29.5255 63.4044C29.9833 63.4044 30.4376 63.454 30.8955 63.4398C31.0517 63.4398 30.7819 63.4788 30.5903 63.4753C30.9932 63.5369 31.4001 63.57 31.8077 63.5744C32.2159 63.5744 32.6312 63.5319 33.05 63.5036C33.4688 63.4753 33.8947 63.4221 34.3278 63.3973C34.5443 63.3973 34.7643 63.3725 34.9879 63.3725H35.6623C35.4529 63.3265 35.7866 63.2946 35.9534 63.2273C36.5461 63.1954 37.4157 63.0006 37.9623 62.9616L37.799 63.036C38.4841 62.8766 39.052 62.7101 39.5737 62.5684C40.0955 62.4267 40.5356 62.2779 40.9935 62.1645C41.029 62.1291 40.9935 62.2389 40.848 62.2956C41.4762 62.0122 42.3423 62.0193 42.4629 61.7819C42.3813 61.8103 42.2997 61.828 42.218 61.8492C43.5509 61.3718 44.8395 60.7791 46.0691 60.078C46.424 60.0319 45.3592 60.4322 45.668 60.4322C46.5709 59.9964 47.4511 59.5152 48.3052 58.9904C48.1668 59.0931 48.2058 59.086 48.1384 59.1356C49.0683 58.6397 47.9822 59.1002 48.7418 58.6468C48.7418 58.7176 48.7737 58.707 49.0399 58.5759L49.2103 58.3634C49.2564 58.3634 49.2884 58.413 49.1925 58.5051C49.4587 58.1969 50.4668 57.5876 50.6513 57.3183C50.7294 57.29 50.6158 57.5096 50.7401 57.4671C51.0466 57.2636 51.3288 57.0259 51.5813 56.7586C51.8617 56.5958 52.1288 56.411 52.3799 56.206C53.0472 55.6852 52.4402 56.0713 52.8839 55.6037L52.3408 56.004C52.6319 55.7348 52.9371 55.4868 53.214 55.2034C53.1146 55.3239 53.0117 55.4443 52.9016 55.5577C53.3418 55.2318 53.6719 54.7641 54.1368 54.3355L53.8813 54.4878C54.0481 54.3142 54.2114 54.1336 54.364 53.9529C54.506 53.9919 55.0206 53.3046 54.8574 53.6978C55.2872 53.2917 55.6759 52.8444 56.018 52.3623C56.3481 51.9407 56.6249 51.4908 56.9976 51.0055C56.8663 51.1755 56.9373 51.126 56.9302 51.172C57.2739 50.7751 57.5552 50.3284 57.7643 49.8471C57.7643 49.9392 57.6649 50.088 57.6898 50.1092C57.8269 49.9252 57.9457 49.7282 58.0447 49.5212C58.105 49.3972 58.1654 49.2555 58.3996 48.8516C58.3073 49.0996 58.3748 49.0465 58.5203 48.8516C58.46 48.8516 58.5452 48.6603 58.6232 48.4974C58.4742 49.2307 59.2692 47.672 59.2124 48.1431C59.1911 48.0723 59.7945 46.7509 59.4999 47.0804L59.3935 47.3106C59.3154 47.3106 59.507 47.0131 59.6313 46.7863C59.5861 46.8687 59.5527 46.9569 59.5319 47.0485C59.6774 46.7545 59.8194 46.4533 59.9614 46.1487C60.1033 45.844 60.256 45.5394 60.4086 45.2276C60.7113 44.5792 60.9779 43.9145 61.2072 43.2367C61.1859 43.3678 61.0226 43.9452 61.1752 43.591C61.4241 43.0084 61.6247 42.4066 61.7751 41.7914C61.8425 41.5115 61.9171 41.2281 61.9845 40.9234C62.0519 40.6188 62.1087 40.2964 62.1904 39.9351C62.2791 39.9351 62.1904 40.3106 62.0803 40.7144C61.9703 41.1183 61.8354 41.5221 61.91 41.5753C62.3671 40.0071 62.6784 38.4003 62.8399 36.7751C63.17 36.2119 62.9712 35.096 63.2197 34.0438C63.1274 34.1395 63.1487 33.6081 63.1487 33.0271C63.2126 33.229 63.2303 32.6162 63.2729 32.7862C63.2339 32.2761 63.1487 30.8095 63.3155 30.8591C63.17 30.7315 63.2516 29.7644 63.1168 29.3535C63.1105 29.01 63.076 28.6676 63.0138 28.3297C62.9641 27.9754 62.9144 27.5858 62.8576 27.1855C62.808 27.4795 62.6802 26.4026 62.5879 26.1227C62.6127 26.2042 62.6482 26.3671 62.6589 26.3246C62.705 26.0696 62.3891 25.4319 62.3465 24.9785C62.3465 24.7694 62.4459 25.0068 62.382 24.6773C62.3075 24.6773 61.9242 23.526 61.8709 23.069C61.9066 23.1803 61.9593 23.2855 62.0271 23.3808C61.3172 21.3544 60.5754 19.1687 59.4006 17.3053L59.6952 17.5887C59.5823 17.2338 59.3864 16.9108 59.1237 16.6464C58.8876 16.4508 58.6933 16.2098 58.5523 15.9379C57.8034 14.6394 56.9636 13.3952 56.0393 12.2147C55.1205 11.0457 54.0963 9.96302 52.9797 8.98034C52.7987 8.8599 53.0401 9.09725 53.033 9.15747C52.8626 8.96971 52.8697 8.85635 52.568 8.67922V8.77487C52.3035 8.49389 52.0214 8.23003 51.7233 7.98489C51.3683 7.71211 51.0134 7.43934 50.6371 7.16302C50.2609 6.8867 49.8918 6.65643 49.5723 6.41554C49.4126 6.29864 49.2706 6.18173 49.1429 6.06129C49.0272 5.97108 48.9181 5.87282 48.8163 5.76726C48.252 5.47323 47.8047 5.16502 47.3043 4.88516C47.0558 4.73992 46.7967 4.59113 46.5128 4.44235C46.2288 4.29356 45.9058 4.16957 45.5438 4.03141C45.1321 3.76572 46.0975 4.18374 45.5154 3.87908C45.0753 3.68779 44.6174 3.54963 44.1702 3.38313L44.2447 3.40438C44.0655 3.35439 43.889 3.29527 43.7159 3.22725C43.5277 3.16349 43.3361 3.0891 43.1338 3.01116C42.7327 2.85175 42.3103 2.65691 41.8595 2.48332C40.9928 2.10942 40.0868 1.83373 39.1585 1.66145H39.233C39.2827 1.62603 38.9455 1.4985 38.6686 1.45244C38.5657 1.45244 38.7467 1.51975 38.9029 1.5906L37.9517 1.42764L37.2418 1.332C36.8123 1.27177 36.429 1.20446 35.822 1.15133C36.3545 1.15133 35.3429 1.03442 35.3003 0.938773C34.9737 0.963571 35.4742 1.04505 34.7608 1.02734C34.2532 0.998996 33.767 0.93523 33.302 0.896263L31.9674 0.797072C31.6125 0.889178 31.1759 0.875008 31.1546 0.977741C30.5832 0.977741 30.1395 1.02734 29.6639 1.07693L28.9043 1.14778L27.9815 1.26469L27.9424 1.2328C27.5875 1.38868 26.7285 1.35679 26.4801 1.46661C26.512 1.41702 26.6576 1.37451 26.6114 1.34617L25.9903 1.49141C26.2813 1.40639 26.4304 1.2576 25.9051 1.33908C25.3869 1.54101 26.0648 1.36388 25.8164 1.49141L25.6318 1.41347C25.2307 1.51621 25.1455 1.66854 25.6318 1.59414C24.3108 1.88688 23.0073 2.25352 21.7275 2.69233L21.8304 2.57897C21.5003 2.69587 21.1205 2.85883 20.7656 2.98282C20.4107 3.10681 20.0912 3.20954 19.8889 3.26977C19.8889 3.29811 19.7398 3.40084 19.8534 3.37958C19.1435 3.80115 19.7221 3.30165 18.9377 3.76218C19.1274 3.69368 19.3057 3.59694 19.4665 3.47523C18.9554 3.71967 18.4621 3.99953 17.9722 4.27939C17.7637 4.30624 17.561 4.36728 17.3724 4.46006C17.0215 4.6137 16.6823 4.79247 16.3573 4.99498C16.3573 5.03395 16.5489 4.97373 16.7122 4.88871L16.3253 5.13668C16.2011 5.15794 16.0769 5.17565 15.9704 5.20045L15.4664 5.65035L15.3989 5.56533C14.9943 5.84519 14.902 6.0542 14.5755 6.27384C13.3226 7.05674 13.5462 6.85482 12.6482 7.41808C12.6695 7.54207 12.3252 7.77234 11.9951 8.06282C11.7109 8.25972 11.4584 8.49862 11.2462 8.77133C10.0926 9.58966 8.71192 11.1059 7.52997 12.5193L7.60806 12.3883C7.05081 12.9551 7.17149 13.1853 6.63908 13.8443L6.73491 13.653C5.88543 14.6993 5.18105 15.8551 4.64078 17.0892C4.71532 16.8908 4.60529 16.9511 4.44911 17.2451C4.34973 17.5108 4.71177 17.0786 4.39232 17.5675C4.44556 17.4328 4.34618 17.5108 4.28584 17.6277L4.12257 18.1874C3.74634 18.8357 3.3914 19.5725 3.05776 20.3129C2.72648 21.0574 2.44546 21.8231 2.21656 22.605C2.09233 22.8706 2.12072 22.6581 2.11007 22.5802C1.78227 23.7349 1.51921 24.9069 1.32211 26.0908L1.18369 26.1758C1.0914 26.7178 1.30792 26.5301 1.08431 27.2386C1.04171 27.3945 1.15529 26.7745 1.134 26.5726C0.867793 27.6354 1.134 27.228 0.984922 28.2624L0.881991 27.9754C0.75489 28.3705 0.75489 28.7954 0.881991 29.1905C0.926825 29.5316 0.881552 29.8784 0.750664 30.1966C0.694398 30.3458 0.652794 30.5 0.626436 30.6572C0.60121 30.9424 0.60121 31.2292 0.626436 31.5144C0.690325 31.7589 0.729368 31.4365 0.789707 31.6774C0.758725 32.057 0.758725 32.4385 0.789707 32.8181C0.821651 33.1192 0.818102 33.4203 0.846497 33.9588C0.686775 34.5433 0.807454 33.4097 0.661929 34.0474V33.222C0.573195 33.9305 0.619337 32.5772 0.502208 32.6906C0.497847 33.0113 0.514446 33.332 0.551899 33.6506L0.711621 34.7134C0.619337 34.7134 0.640633 33.9057 0.54125 34.2351L0.605139 34.5894C0.551635 34.4916 0.523566 34.382 0.523504 34.2705C0.445417 34.4052 0.548349 34.6921 0.573195 35.0322C0.622886 35.0499 0.690324 35.0322 0.747114 34.9082C0.73179 34.9368 0.722148 34.9681 0.718719 35.0003C0.921034 35.6805 0.963627 36.8566 1.18369 37.4269C1.1411 37.3348 1.14819 37.4269 1.13045 37.4517C1.17026 37.6673 1.22723 37.8793 1.30082 38.0859C1.38245 38.3055 1.47474 38.5393 1.54927 38.7944C1.54927 39.1097 1.31856 38.6668 1.54927 39.5383C1.6664 39.6765 1.6877 39.2584 1.88291 39.9882C1.88291 39.9882 1.64866 39.3683 1.69125 39.719C1.93616 40.4275 1.73029 39.9563 1.82258 40.6329C2.02134 40.9872 2.00004 41.3415 2.17751 41.3804C2.14202 41.6461 2.17751 41.5682 2.2272 42.0393C2.2272 41.926 2.33014 42.1314 2.42952 42.3546C2.5289 42.5778 2.66023 42.8116 2.70282 42.7762C2.65313 43.0029 2.2769 42.0925 2.34788 42.7089C2.57859 43.0631 2.88384 43.7894 3.03291 43.7964C3.11315 44.1077 3.21152 44.4141 3.32751 44.714C3.30066 44.6435 3.26094 44.5786 3.21038 44.5227C3.32041 44.7175 3.42689 44.9371 3.53692 45.1674L3.89186 45.8511C4.05375 46.22 4.27163 46.5617 4.53785 46.8643C4.27165 46.8076 5.44294 48.5116 4.94248 48.0191C5.14532 48.321 5.37456 48.6043 5.62751 48.8658C5.54942 48.8906 5.663 49.0925 5.81562 49.3334C5.98252 49.5558 6.12866 49.793 6.2522 50.0419C6.44031 50.1659 6.7988 50.7256 7.0934 51.0055C6.96917 50.8744 6.89109 50.8142 6.89463 50.8922C7.22473 51.211 7.10405 51.1578 7.28507 51.5085C7.69679 51.9655 7.30991 51.3456 7.59386 51.5936C7.89201 52.0328 7.56547 51.7211 7.57257 51.8345L8.2079 52.3375C8.28142 52.4293 8.33464 52.5355 8.36408 52.6492C8.60944 52.8275 8.822 53.0468 8.99232 53.2975C8.83614 53.1346 8.67642 52.9716 8.5309 52.798L8.64093 53.0496L9.27272 53.5668C9.98259 54.4843 9.62765 54.3426 9.43954 54.3957L9.0846 54.0698C9.05265 54.1194 9.25852 54.3816 9.40049 54.5339L7.76068 52.6351ZM1.97165 22.9344C1.99649 22.8529 2.03554 22.7289 2.07813 22.5802C2.03199 22.7608 1.99295 22.86 1.97165 22.9344ZM2.32659 21.6095C2.2698 21.7512 2.29109 21.8185 2.32659 21.7795C2.40467 21.5528 2.48986 21.3438 2.55375 21.1738C2.45791 21.3722 2.31239 21.6945 2.31949 21.6095H2.32659ZM0.967176 24.1105V24.0787C1.00622 23.9086 1.03816 23.7775 1.06656 23.6677C0.995254 23.7729 0.953574 23.8952 0.94588 24.022C0.949131 24.0523 0.956289 24.0821 0.967176 24.1105Z" fill="#2C2C2C"/>
<path d="M20.5005 53.0249C20.5005 52.4431 20.4865 51.9185 20.503 51.3952C20.5879 48.7304 19.4601 46.7249 17.2653 45.2578C15.7574 44.2493 14.1176 44.0296 12.3689 44.2671C12.1763 44.2938 11.9064 44.45 11.786 44.2265C11.6707 44.0143 11.9229 43.8556 12.0534 43.7006C13.7033 41.7433 14.0632 39.5256 13.3485 37.1085C12.9024 35.5982 11.6758 34.765 10.4707 33.9445C9.57729 33.3361 8.59015 32.9004 7.55739 32.5765C7.41927 32.5333 7.22158 32.5257 7.20131 32.3606C7.17343 32.132 7.40152 32.1244 7.55232 32.0761C9.33019 31.5185 10.9408 30.6802 12.2422 29.3059C13.0849 28.4155 13.5702 27.379 13.6576 26.1495C13.7996 24.1706 13.3523 22.3771 12.047 20.8402C11.9583 20.7348 11.7923 20.6091 11.914 20.4617C12.0306 20.322 12.2422 20.3589 12.3955 20.4071C13.2306 20.6726 14.0505 20.576 14.8919 20.4046C17.4554 19.8825 19.2206 18.3926 20.171 15.987C20.6525 14.7689 20.9047 13.4746 20.5296 12.1473C20.4865 11.9923 20.427 11.8183 20.6259 11.6214C20.8743 11.8246 21.1214 12.0444 21.385 12.24C23.339 13.688 25.4881 14.0817 27.7754 13.2548C29.3265 12.6947 30.2553 11.3852 31.0499 10.0248C31.5035 9.24621 31.9318 8.43458 32.17 7.54674C32.2055 7.4121 32.2131 7.20379 32.3855 7.19744C32.6123 7.18982 32.5857 7.43242 32.6402 7.57722C33.275 9.29829 34.1228 10.8733 35.4293 12.2044C36.5495 13.3463 37.9104 13.6842 39.407 13.6308C41.0695 13.5711 42.6079 13.1151 43.8295 11.892C43.9372 11.784 44.0702 11.6824 44.2198 11.7713C44.3427 11.845 44.311 11.9974 44.2844 12.1206C43.8143 14.3497 44.4377 16.3045 45.8367 18.0243C46.8505 19.2716 48.1696 20.0731 49.7599 20.3843C50.6533 20.5595 51.5479 20.7005 52.4476 20.4008C52.5972 20.3512 52.8202 20.3144 52.9165 20.477C53.0432 20.6904 52.824 20.8072 52.7049 20.9482C51.7507 22.0799 51.1868 23.3793 51.1564 24.8667C51.1361 25.8294 51.0664 26.7884 51.5049 27.7283C52.1739 29.1598 53.2865 30.1086 54.5955 30.8758C55.4686 31.3877 56.3721 31.8449 57.3453 32.1459C57.4619 32.1815 57.6254 32.2044 57.5924 32.3708C57.5646 32.5079 57.4036 32.5194 57.2845 32.5562C55.5966 33.0935 54.0798 33.9318 52.7873 35.1524C51.7621 36.1203 51.2159 37.2863 51.1348 38.7267C51.0259 40.6509 51.6202 42.2945 52.8075 43.7641C52.919 43.9026 53.1421 44.0423 53.0103 44.2442C52.9076 44.403 52.6947 44.2874 52.5325 44.2722C51.1374 44.135 49.7625 44.0944 48.4497 44.7459C46.9531 45.4903 45.8076 46.5293 45.0257 48.0534C44.3427 49.3846 44.273 50.75 44.3161 52.1713C44.3224 52.391 44.4276 52.6768 44.1754 52.8077C43.9017 52.9499 43.7839 52.6463 43.6039 52.5206C41.8438 51.2924 39.9569 50.7843 37.8065 51.2962C36.1566 51.6899 35.1251 52.8051 34.209 54.0867C33.5196 55.0508 33.0051 56.1152 32.6503 57.252C32.6072 57.3879 32.5933 57.5835 32.4184 57.5924C32.1916 57.6038 32.1903 57.3764 32.146 57.2253C31.667 55.5944 30.7951 54.1667 29.6838 52.9271C28.1176 51.1793 26.0939 50.8059 23.8433 51.2593C22.5521 51.5197 21.5548 52.2869 20.4979 53.0185L20.5005 53.0249ZM32.5591 16.5674C23.5747 16.3388 16.4493 23.7769 16.4949 32.3936C16.5418 41.286 23.6292 48.2173 32.2486 48.2833C41.2178 48.3532 48.3001 41.3165 48.3052 32.2641C48.3103 23.6549 41.1798 16.4544 32.5591 16.5674Z" fill="#D6D6D6"/>
<path d="M24.0429 37.1842C22.8785 37.1842 21.9667 36.8908 21.3078 36.3041C20.6488 35.7083 20.3193 34.8778 20.3193 33.8127H22.5129C22.5129 34.3272 22.6483 34.7289 22.9191 35.0177C23.1989 35.3066 23.578 35.451 24.0565 35.451C24.4627 35.451 24.7741 35.3608 24.9907 35.1802C25.2164 34.9997 25.3292 34.7424 25.3292 34.4084C25.3292 34.1196 25.2435 33.8894 25.072 33.7179C24.9095 33.5373 24.6116 33.3613 24.1783 33.1898L22.4722 32.5263C21.8404 32.2916 21.3619 31.9576 21.037 31.5243C20.712 31.082 20.5495 30.554 20.5495 29.9401C20.5495 29.3895 20.6849 28.9066 20.9557 28.4913C21.2356 28.0671 21.6282 27.7421 22.1337 27.5164C22.6483 27.2817 23.244 27.1644 23.9211 27.1644C24.6071 27.1644 25.2119 27.2907 25.7355 27.5435C26.259 27.7872 26.6652 28.1348 26.9541 28.5861C27.2429 29.0374 27.3874 29.5655 27.3874 30.1703H25.1938C25.1938 29.728 25.081 29.3895 24.8553 29.1548C24.6297 28.9201 24.3047 28.8027 23.8804 28.8027C23.5284 28.8027 23.2486 28.8885 23.0409 29.06C22.8423 29.2225 22.743 29.4482 22.743 29.737C22.743 29.9988 22.8423 30.2245 23.0409 30.414C23.2395 30.5946 23.5735 30.7796 24.0429 30.9692L25.6136 31.592C26.2635 31.8448 26.742 32.1923 27.0489 32.6346C27.3648 33.077 27.5228 33.6186 27.5228 34.2595C27.5228 34.8462 27.3783 35.3608 27.0895 35.8031C26.8006 36.2454 26.3944 36.5884 25.8709 36.8321C25.3473 37.0668 24.738 37.1842 24.0429 37.1842Z" fill="#D6D6D6"/>
<path d="M33.0194 27.4352C33.6693 27.4352 34.2515 27.5841 34.7661 27.882C35.2806 28.1709 35.6823 28.5771 35.9712 29.1006C36.269 29.6152 36.418 30.2019 36.418 30.8609C36.418 31.5108 36.269 32.0975 35.9712 32.6211C35.6823 33.1447 35.2806 33.5554 34.7661 33.8533C34.2515 34.1421 33.6693 34.2866 33.0194 34.2866H31.1779V36.9134H28.9844V27.4352H33.0194ZM32.6809 32.4992C33.1232 32.4992 33.4843 32.3458 33.7641 32.0389C34.053 31.732 34.1974 31.3393 34.1974 30.8609C34.1974 30.3824 34.053 29.9898 33.7641 29.6829C33.4843 29.3759 33.1232 29.2225 32.6809 29.2225H31.1779V32.4992H32.6809Z" fill="#D6D6D6"/>
<path d="M37.6351 27.4352H43.4304V29.2767H39.8286V31.8358H43.4304V33.6366H39.8286V36.9134H37.6351V27.4352Z" fill="#D6D6D6"/>
<path d="M21.1713 43.6868C21.123 43.6617 21.1194 43.7065 21.2304 43.8014L21.345 43.83L21.1713 43.6868ZM21.8105 44.4316C21.9591 44.5211 22.14 44.6107 22.0916 44.4979C21.9269 44.4316 21.9126 44.3869 21.7335 44.3188C21.6189 44.2275 21.5545 44.1308 21.5921 44.1398C21.5455 44.1165 21.4381 43.9768 21.3557 43.95C21.4839 44.1392 21.652 44.2981 21.8481 44.4155C21.8768 44.4549 21.8266 44.4316 21.8105 44.4316ZM35.0562 48.2882H34.9631C34.9881 48.2954 35.0204 48.2918 35.0562 48.2882ZM42.9771 44.5534C42.9269 44.5981 42.909 44.6214 42.9108 44.6268C42.9556 44.5838 42.9932 44.5462 42.9771 44.5534ZM44.1086 43.5453L44.0442 43.6062C44.0685 43.5892 44.0902 43.5687 44.1086 43.5453ZM35.0562 48.2882L35.2925 48.2667C35.305 48.2417 35.1708 48.2721 35.0562 48.2882ZM23.4362 45.5184C23.4003 45.4956 23.3626 45.4759 23.3234 45.4593L23.4255 45.522L23.4362 45.5184ZM31.1584 48.5156H31.0868L31.0259 48.5353L31.1584 48.5156ZM28.1952 48.0232C28.2615 48.0429 28.2973 48 28.3277 47.9856C28.2776 47.9971 28.2256 47.9971 28.1755 47.9856C28.1737 47.9892 28.1737 48.0035 28.1952 48.0232ZM23.8767 46.0537L23.8015 46.0144L23.8767 46.0537ZM33.3105 48.546C33.3182 48.5542 33.3282 48.5598 33.3391 48.5622C33.3391 48.5622 33.3266 48.5496 33.3105 48.546ZM19.0998 40.9241C19.0998 40.9241 19.1105 40.9438 19.0998 40.9241V40.9241ZM21.0514 43.753L21.0156 43.7208C21.0056 43.7224 20.9963 43.7267 20.9887 43.7333L21.0514 43.753ZM45.8991 41.404L45.8901 41.4147C45.8579 41.4774 45.8812 41.438 45.8991 41.404ZM41.1293 18.8463C41.3496 19.036 40.6996 18.6439 41.0416 18.9179C41.0165 18.8785 41.423 19.0575 41.1293 18.8463ZM23.4953 45.5685L23.5956 45.6366C23.5508 45.6043 23.5186 45.5829 23.4953 45.5685ZM41.0416 18.9179L41.0756 18.9447L41.0416 18.9179ZM48.2803 35.4633C48.2657 35.4816 48.2542 35.5021 48.2463 35.5242C48.2463 35.5242 48.2606 35.5099 48.2803 35.4633ZM46.651 39.943L46.7083 39.8409C46.6871 39.8737 46.6679 39.9078 46.651 39.943ZM48.4773 32.9907C48.4827 32.9312 48.4827 32.8712 48.4773 32.8117C48.476 32.8206 48.476 32.8296 48.4773 32.8385C48.4871 32.8888 48.4871 32.9405 48.4773 32.9907ZM48.3573 30.4179V30.4662L48.3681 30.5468L48.3573 30.4179ZM16.6594 33.7391C16.6531 33.7808 16.6404 33.8213 16.6218 33.8591C16.6541 33.8251 16.6934 34.1939 16.6594 33.7391ZM23.4219 45.5435C23.4487 45.5418 23.4751 45.5508 23.4953 45.5685L23.4255 45.522C23.4147 45.5238 23.4094 45.5291 23.4219 45.5435ZM48.0834 32.8743L48.1013 32.4751C48.0923 32.5879 48.087 32.7329 48.0834 32.8743ZM24.7361 18.6529L24.6573 18.703C24.6856 18.6898 24.7121 18.673 24.7361 18.6529ZM48.0476 31.2898C48.0598 31.2146 48.0664 31.1386 48.0673 31.0624C48.063 31.0469 48.057 31.0318 48.0494 31.0177L48.0476 31.2898Z" fill="#2C2C2C"/>
<path d="M20.1416 42.8292L19.9178 42.6054L19.7065 42.3726L19.7226 42.3493C19.695 42.2926 19.6506 42.2457 19.5955 42.2151C19.6259 42.2151 19.5489 42.1166 19.4469 41.9859C19.3448 41.8552 19.2303 41.6869 19.1586 41.5812L19.1819 41.6779C19.0723 41.5573 18.9734 41.4273 18.8865 41.2894C18.8113 41.1623 18.7486 41.0387 18.6913 40.9206C18.634 40.8024 18.5767 40.686 18.5212 40.5625C18.4659 40.4381 18.4006 40.3183 18.3261 40.2044C18.2437 40.0988 18.1578 39.9931 18.079 39.8857L18.0897 39.7854C17.9492 39.6162 17.8351 39.4266 17.7513 39.2232C17.524 38.5876 17.2464 37.9502 17.0352 37.2824C16.9152 36.9548 16.8346 36.6146 16.738 36.2798C16.7022 36.1097 16.6646 35.9396 16.6287 35.7713L16.584 35.5296L16.55 35.2753C16.542 35.3227 16.542 35.3712 16.55 35.4186C16.5098 34.9145 16.4387 34.4135 16.3369 33.9182C16.3011 33.6944 16.2653 33.4741 16.2402 33.2396C16.2223 32.9905 16.2223 32.7403 16.2402 32.4912L16.2617 32.5664C16.2528 32.0185 16.276 32.6398 16.3136 32.2423C16.2474 32.1671 16.276 31.5458 16.2832 31.2289C16.288 31.3124 16.288 31.3961 16.2832 31.4796C16.3261 31.4079 16.3467 31.325 16.3423 31.2415C16.3247 31.1319 16.3151 31.0212 16.3136 30.9102C16.3136 30.7813 16.3244 30.6363 16.3351 30.4841C16.353 30.1815 16.4067 29.8575 16.439 29.5889C16.4855 29.528 16.618 29.0643 16.7469 28.8387C16.7469 28.7778 16.7308 28.6704 16.7254 28.5719C16.7883 28.4179 16.8258 28.2546 16.8364 28.0885C16.7917 28.2676 16.7505 28.4108 16.7201 28.5272V28.5128C16.7166 28.5389 16.7112 28.5646 16.7039 28.5898C16.6771 28.708 16.6681 28.7689 16.6771 28.7438C16.5894 28.9533 16.6484 28.7205 16.5965 28.7241C16.6309 28.5238 16.6911 28.3288 16.7756 28.144C16.8042 28.0384 16.8275 27.965 16.8651 27.8629C16.8799 27.7885 16.9009 27.7154 16.9277 27.6445V27.6821C16.9392 27.6693 16.9493 27.6556 16.9582 27.6409C17.0263 27.4521 17.0813 27.2589 17.1229 27.0626C17.1766 26.8621 17.2214 26.6651 17.2572 26.5255C17.2142 26.8227 17.3503 26.4807 17.3933 26.4986C17.404 26.4664 17.2661 26.8048 17.114 27.2309C17.1301 27.2022 17.1444 27.1808 17.1641 27.1772C17.2442 27.0116 17.3089 26.839 17.3575 26.6615C17.3861 26.5702 17.413 26.4825 17.4523 26.3679C17.4917 26.2533 17.5437 26.1495 17.6081 26.0223C17.5992 26.0582 17.5795 26.1298 17.6081 26.1119C17.6793 25.9828 17.722 25.8399 17.7334 25.6929C17.8853 25.5149 18.0063 25.3128 18.0915 25.0949C18.1228 24.9285 18.1887 24.7705 18.2849 24.6312L18.2401 24.7762C18.4604 24.4414 18.3547 24.4647 18.5481 24.1925C18.4675 24.2982 18.489 24.3268 18.5481 24.2444C18.6771 24.0344 18.7788 23.8088 18.8507 23.573L18.8632 23.6482C19.0423 23.3367 19.3753 22.753 19.4415 22.787C19.2893 22.8157 19.8694 22.1299 20.0843 21.9043C20.018 21.9885 20.0216 22.0171 20.0234 22.0315C20.1165 21.8972 20.2168 21.7665 20.3224 21.6394C20.4281 21.5122 20.548 21.3977 20.6644 21.2813C20.8954 21.0396 21.1514 20.8265 21.3806 20.5991L21.5077 20.5812C21.7619 20.3449 21.7458 20.173 22.0359 19.9259L21.9535 20.0423C22.0788 19.9295 22.1881 19.8382 22.2919 19.7594L22.5694 19.5428C22.7485 19.4067 22.915 19.2939 23.1424 19.1453L23.1621 19.1918C23.3071 19.0611 23.5076 18.9215 23.6634 18.8015C23.8131 18.7464 23.9561 18.6743 24.0895 18.5867L24.6696 18.2447C25.0734 17.9915 25.5102 17.7951 25.9677 17.661V17.5536C26.2523 17.4247 26.623 17.2743 26.7841 17.2868L26.7179 17.3101C26.7179 17.3907 27.0079 17.1973 27.1995 17.1579C27.3356 17.106 27.4627 17.0165 27.3374 17.0415C27.5379 16.9896 27.7581 16.9198 27.9927 16.8625C28.2272 16.8052 28.4617 16.7336 28.6945 16.6834C28.9273 16.6333 29.1493 16.585 29.348 16.5581C29.5142 16.5347 29.6816 16.5209 29.8493 16.5169C30.0517 16.4704 30.2432 16.4435 30.4294 16.4077C30.6156 16.3719 30.7875 16.3361 30.9809 16.3164C31.1743 16.2967 31.3515 16.2698 31.5485 16.2484C31.7454 16.2269 31.9531 16.2304 32.1787 16.2269L32.168 16.2376C32.4705 16.2376 33.0739 16.2931 33.0632 16.3665C33.3837 16.3755 33.6469 16.3665 33.928 16.3665C34.2478 16.3696 34.5667 16.4025 34.8805 16.465H34.7122C34.9039 16.5033 35.0986 16.5255 35.2941 16.5312C35.3603 16.5438 35.3084 16.5509 35.2941 16.5617C35.4368 16.5963 35.5824 16.6173 35.7291 16.6243L35.6647 16.6387C36.2519 16.8034 37.208 16.9663 37.9475 17.251C37.8078 17.208 37.8705 17.2635 37.9206 17.2958C38.2554 17.3172 39.0701 17.6789 39.3727 17.8132L39.1739 17.7541C39.3664 17.8195 39.5476 17.9143 39.7111 18.0352C39.8711 18.1531 40.0441 18.2522 40.2267 18.3306L39.9313 18.1068C40.1515 18.2483 40.352 18.3396 40.318 18.2751C40.5651 18.4542 40.318 18.3467 40.7065 18.5885C40.7065 18.6028 40.6367 18.5634 40.5794 18.533C40.5221 18.5025 40.472 18.4864 40.5293 18.533L41.0288 18.9197C41.1095 18.9812 41.1945 19.0368 41.2831 19.0862C41.2992 18.9644 41.7146 19.3798 41.514 19.1113C41.859 19.3484 42.1907 19.6042 42.5077 19.8776L42.9464 20.2625L43.1684 20.4416L43.3868 20.6206C43.5533 20.8999 44.4611 21.6949 44.2946 21.7414C44.5202 22.0088 44.765 22.2596 45.0269 22.4916C44.974 22.414 44.9141 22.3415 44.8478 22.275C45.0471 22.4769 45.2308 22.6935 45.3975 22.9231C45.1858 22.6789 44.9592 22.4481 44.7189 22.232C44.8514 22.3752 45 22.5543 45.1468 22.7118L45.3617 22.941C45.419 23.009 45.4673 23.0663 45.5013 23.1093V23.2311C45.7305 23.4746 45.6159 23.4871 45.8594 23.7252L45.8451 23.6608C46.1584 24.1764 46.2336 24.1406 46.5129 24.6312H46.4771C46.5318 24.7297 46.5915 24.8253 46.6562 24.9177C46.7195 25.0112 46.7633 25.1165 46.7851 25.2274C46.7278 25.1182 46.6777 25.0072 46.615 24.8997C46.636 25.0507 46.6751 25.1986 46.7314 25.3402C46.9104 25.6822 46.8639 25.4279 46.957 25.5998C46.957 25.6947 46.9426 25.6285 46.8424 25.5264C46.9498 25.7162 47.0519 25.9489 47.1629 26.162C47.2739 26.3751 47.3706 26.5756 47.4529 26.7117C47.4529 26.7314 47.435 26.7117 47.435 26.7117C47.5962 27.1342 47.7931 27.4923 47.8379 27.7698L47.8038 27.6875C47.8428 27.8893 47.8966 28.088 47.965 28.2819C48.0259 28.4717 48.076 28.6274 48.0241 28.6776C48.0456 28.8566 47.9328 28.2998 47.9453 28.5791C48.0312 29.1162 48.1243 28.905 48.1888 29.374C48.178 29.3096 48.1763 29.3311 48.1601 29.3114C48.1977 29.4797 48.23 29.6695 48.2694 29.8772C48.3087 30.0849 48.3446 30.2818 48.3714 30.4698C48.3517 30.9371 48.5164 31.886 48.4108 32.4214C48.4466 32.2423 48.4574 32.5539 48.4717 32.5557C48.486 32.5574 48.4627 32.5342 48.4538 32.5557C48.447 32.6549 48.4616 32.7544 48.4967 32.8475C48.4837 32.9611 48.4837 33.0759 48.4967 33.1895C48.507 33.2883 48.507 33.3879 48.4967 33.4867C48.5155 33.5969 48.5155 33.7095 48.4967 33.8197C48.4967 33.4616 48.452 33.7051 48.4251 33.5458C48.3804 34.0614 48.4824 34.1474 48.4001 34.6845C48.375 34.7812 48.3392 34.8779 48.3087 34.9727C48.3678 35.0444 48.2568 35.5349 48.2837 35.5278C48.2443 35.6155 48.2013 35.7444 48.1727 35.7176C48.1214 35.9214 48.0831 36.1283 48.0581 36.3371C48.0832 36.269 48.1011 36.201 48.1243 36.1312C48.0402 36.457 47.9757 36.7166 47.931 36.9619C47.8815 37.2035 47.809 37.4397 47.7143 37.6674L47.6176 37.6226C47.4708 37.9323 47.4529 38.2367 47.2918 38.491C47.3598 38.4068 47.3634 38.3835 47.3115 38.5984C47.3706 38.4838 47.4261 38.2403 47.5031 38.0451L47.3992 38.4981L47.6248 37.8142C47.555 38.1168 47.5532 38.0935 47.6373 37.9932C47.5102 38.414 47.4332 38.4211 47.3007 38.8186C47.2273 38.9511 47.2542 38.7935 47.1664 38.9421C47.059 39.3002 46.7976 39.5473 46.7332 39.8123C46.6848 39.8839 46.7976 39.6744 46.7654 39.6816C46.6956 39.8247 46.6358 39.9725 46.5863 40.1238L46.6974 39.9448C46.625 40.1148 46.5394 40.2788 46.4413 40.4354C46.3661 40.6144 46.3554 40.7469 46.4628 40.5571C46.427 40.6395 46.3035 40.7899 46.3106 40.7147C46.0241 41.1694 46.2712 40.994 45.9525 41.4058C45.9704 41.3754 45.9848 41.3395 45.9686 41.3539C45.9038 41.4399 45.844 41.5295 45.7896 41.6224C46.0421 41.2375 45.641 41.694 45.9597 41.2554C45.8845 41.2769 45.7162 41.5866 45.6016 41.7173C45.4834 41.9555 45.6517 41.7871 45.6016 41.9143C45.5873 41.8999 45.5282 41.993 45.4423 42.0933C45.48 42.0703 45.5165 42.0452 45.5515 42.0181C45.4888 42.1076 45.419 42.1972 45.3474 42.3028L45.4691 42.1238C45.3921 42.2151 45.2901 42.3243 45.1683 42.4532C45.111 42.5176 45.0501 42.5875 44.9893 42.6627C44.9284 42.7379 44.8639 42.8149 44.8102 42.9008C44.8693 42.8059 44.9893 42.6161 44.7887 42.8149C44.5112 43.1729 44.7046 42.8829 44.513 43.0584C44.223 43.4075 44.513 43.1712 44.0421 43.642C43.992 43.694 44.0565 43.6617 44.1155 43.617C43.7897 43.941 43.6178 44.1237 43.2776 44.4101C43.4262 44.2848 43.5444 44.1917 43.3689 44.3869C43.3958 44.3349 43.326 44.3869 43.2275 44.4746C43.129 44.5623 43.0019 44.6536 42.9285 44.702L42.9088 44.7467C42.7888 44.8184 42.8945 44.7163 42.975 44.6375C42.975 44.6375 43.0126 44.625 43.0735 44.5695C43.2275 44.4137 43.1129 44.4048 42.8479 44.6232C42.5811 44.8792 42.6689 44.8846 42.7244 44.8595C42.3287 45.1568 42.42 45.2176 42.0261 45.4916C41.9384 45.556 41.591 45.6921 41.3099 45.8819C41.19 46.0251 41.6823 45.667 41.5427 45.8156C41.0056 46.0394 40.5902 46.5193 39.8865 46.8111L39.9438 46.7162C39.7863 46.7914 39.6305 46.863 39.4568 46.9561L39.7021 46.872C39.5517 46.9615 39.1775 47.1334 39.2778 47.0331C39.0357 47.1778 38.7772 47.2932 38.5079 47.3769C38.866 47.2265 38.5079 47.3769 38.7657 47.239C38.5386 47.3183 38.3157 47.4092 38.0979 47.5112C38.1337 47.4754 37.9833 47.4986 37.883 47.5362C37.7335 47.613 37.5778 47.677 37.4175 47.7278C37.2385 47.7887 37.0433 47.8621 36.8678 47.9158V47.8997C36.5638 47.9928 36.254 48.0658 35.9404 48.1181L35.4659 48.2094C35.3084 48.2345 35.1526 48.2667 35.0022 48.3043L34.9718 48.3133H35.0201C35.1311 48.324 35.0201 48.3527 34.8411 48.3867C34.662 48.4207 34.4508 48.444 34.3577 48.4691C34.3007 48.4469 34.2388 48.4407 34.1786 48.4512C34.1786 48.5031 33.9423 48.5084 33.8563 48.5353C33.6397 48.5353 33.8778 48.4709 33.5108 48.4995C33.3693 48.5138 33.355 48.5425 33.3729 48.5622C33.2044 48.5396 33.0345 48.5282 32.8644 48.5281C32.936 48.523 33.0078 48.523 33.0793 48.5281C33.1044 48.4995 32.9736 48.5138 32.9754 48.478C32.7964 48.478 32.9074 48.5281 32.6926 48.5156L32.8913 48.4691C32.8116 48.4657 32.7317 48.4711 32.6532 48.4852C32.7839 48.4709 32.7642 48.4297 32.7445 48.4046C32.2485 48.4476 32.6496 48.521 32.6245 48.5657C32.3864 48.5657 32.1769 48.5514 31.9782 48.5657C31.7885 48.5756 31.5985 48.5756 31.4088 48.5657L31.4822 48.521C31.371 48.512 31.259 48.5174 31.1492 48.5371L30.8735 48.5174C31.0346 48.5174 31.0883 48.4995 31.1026 48.4619C30.809 48.4619 30.4115 48.3849 30.3274 48.4458L30.3399 48.4368C29.9506 48.3764 29.5655 48.2915 29.1869 48.1826C28.9792 48.1486 28.7482 48.0966 28.5656 48.0537C28.383 48.0107 28.2523 47.9767 28.2379 48.0071C28.0955 47.9708 27.956 47.9235 27.8208 47.8657C27.704 47.8063 27.5757 47.7733 27.4448 47.769C27.1744 47.6365 27.4448 47.7475 27.5361 47.7296C27.407 47.6731 27.2718 47.6317 27.1332 47.6061C27.0133 47.5721 26.9184 47.5398 26.888 47.479C26.5549 47.3841 26.956 47.5255 26.8324 47.5219C26.8145 47.4682 26.6659 47.4091 26.4851 47.3429C26.3046 47.2766 26.1297 47.1958 25.9623 47.1012C25.8155 47.0743 26.0894 47.1799 25.8441 47.1137C25.8764 47.103 25.7564 47.0457 25.6955 47.0188L25.615 47.0403L25.3088 46.7449C24.8451 46.5837 25.3535 46.8809 24.7717 46.5998L24.8075 46.6142C24.7157 46.5366 24.6108 46.476 24.4977 46.4351C24.3188 46.3612 24.1503 46.2643 23.9964 46.1469C24.1271 46.2418 24.0662 46.1594 24.1181 46.1737L23.8764 46.0538C23.8979 46.0645 23.9105 46.0663 23.8926 46.0538C23.7135 45.8962 23.7135 45.9696 23.5058 45.7906C23.6652 45.8837 23.6419 45.8174 23.5846 45.7583L23.2355 45.59L23.4056 45.6169C23.2552 45.5077 23.0475 45.4038 22.8684 45.291C22.7257 45.2121 22.6031 45.1012 22.5103 44.967L22.6625 45.0708C22.6625 45.0493 22.6088 44.9383 22.3886 44.8148C22.3205 44.7754 22.2543 44.7736 22.3385 44.8398C22.2919 44.7969 22.2507 44.7503 22.206 44.7056C22.4556 44.8426 22.6949 44.9976 22.9221 45.1693C22.838 45.1299 22.65 45.0046 22.6858 45.0708C22.7932 45.1424 22.9006 45.2123 23.0081 45.2767C23.1155 45.3412 23.2265 45.4003 23.3321 45.4647C23.2638 45.4353 23.1923 45.4137 23.1191 45.4003C23.3339 45.5793 23.3107 45.4934 23.4861 45.6097C23.5416 45.6724 23.5792 45.7154 23.5273 45.6975C23.7462 45.8138 23.9562 45.9461 24.1557 46.0932C24.1557 46.0932 23.8693 45.9553 24.0018 46.0717C24.1693 46.1667 24.3449 46.247 24.5264 46.3116C24.6786 46.3689 24.8289 46.4351 25.0832 46.5461C25.6901 46.7628 26.1879 47.128 26.6301 47.2301C26.6606 47.2175 26.3311 47.0761 26.6069 47.1656C26.5442 47.1889 26.759 47.2534 26.7662 47.2748C26.8904 47.2948 27.011 47.3328 27.1243 47.3876C27.2187 47.4292 27.3179 47.4586 27.4197 47.4754C27.366 47.4754 27.5343 47.5452 27.6453 47.5971C27.5952 47.6383 27.9712 47.7242 27.5092 47.6562C27.6208 47.6741 27.7314 47.698 27.8405 47.7278L28.1341 47.8048C28.307 47.8623 28.4893 47.8866 28.6712 47.8764C28.6336 47.8621 28.596 47.8514 28.5584 47.8352L29.015 47.9624H28.9953C29.1635 47.9981 29.3282 48.0484 29.4877 48.1128C29.3677 48.1128 29.1994 48.0734 29.0812 48.0608C29.3194 48.1665 29.6076 48.1181 29.8834 48.1629C29.8654 48.2005 29.5933 48.1289 29.6667 48.1898C29.8501 48.2216 30.0357 48.239 30.2217 48.2417L30.1931 48.2596C30.6801 48.3688 30.3972 48.1772 30.7499 48.2936C30.7392 48.2793 30.7857 48.2703 30.766 48.256C30.8967 48.2936 31.2083 48.3509 30.8932 48.3581C31.0465 48.371 31.2007 48.3674 31.3533 48.3473C31.2101 48.3043 31.1743 48.3187 31.1205 48.2721C31.3515 48.2721 31.5807 48.2972 31.8117 48.29C31.8904 48.29 31.7544 48.3097 31.6577 48.3079C31.8609 48.3391 32.0662 48.3558 32.2718 48.3581C32.4777 48.3581 32.6872 48.3366 32.8985 48.3222C33.1097 48.3079 33.3246 48.2811 33.543 48.2685C33.6522 48.2685 33.7632 48.256 33.876 48.256H34.2162C34.1106 48.2327 34.2789 48.2166 34.363 48.1826C34.662 48.1665 35.1007 48.068 35.3764 48.0483L35.2941 48.0859C35.6396 48.0053 35.9261 47.9212 36.1893 47.8496C36.4525 47.778 36.6727 47.7028 36.9055 47.6455C36.9234 47.6276 36.9055 47.6831 36.832 47.7117C37.1489 47.5685 37.5858 47.5721 37.6467 47.4521C37.6055 47.4664 37.5643 47.4754 37.5232 47.4861C38.1955 47.2448 38.8455 46.9453 39.4658 46.5909C39.6448 46.5676 39.1077 46.7699 39.2635 46.7699C39.7189 46.5497 40.1629 46.3064 40.5938 46.0412C40.5239 46.0932 40.5436 46.0896 40.5096 46.1146C40.9787 45.864 40.4308 46.0967 40.814 45.8676C40.814 45.9034 40.8301 45.898 40.9644 45.8317L41.0503 45.7243C41.0736 45.7243 41.0897 45.7494 41.0414 45.7959C41.1756 45.6402 41.6841 45.3322 41.7772 45.1961C41.8166 45.1818 41.7593 45.2928 41.822 45.2713C41.9766 45.1685 42.119 45.0484 42.2463 44.9133C42.3878 44.831 42.5225 44.7376 42.6492 44.6339C42.9858 44.3708 42.6796 44.5659 42.9034 44.3296L42.6295 44.5319C42.7763 44.3958 42.9303 44.2705 43.0699 44.1273C43.0198 44.1881 42.9679 44.249 42.9124 44.3063C43.1344 44.1416 43.3009 43.9052 43.5354 43.6886L43.4065 43.7656C43.4907 43.6779 43.573 43.5865 43.65 43.4952C43.7216 43.5149 43.9813 43.1676 43.8989 43.3663C44.1157 43.1611 44.3118 42.935 44.4844 42.6913C44.6509 42.4783 44.7905 42.2509 44.9785 42.0074C44.9123 42.0915 44.9481 42.0665 44.9445 42.0897C45.1179 41.8892 45.2598 41.6634 45.3653 41.4201C45.3653 41.4667 45.3151 41.5419 45.3277 41.5526C45.3968 41.4596 45.4568 41.36 45.5067 41.2554C45.5371 41.1927 45.5676 41.1211 45.6858 40.917C45.6392 41.0423 45.6732 41.0155 45.7466 40.917C45.7162 40.917 45.7592 40.8203 45.7986 40.738C45.7234 41.1086 46.1244 40.3208 46.0958 40.5589C46.085 40.5231 46.3894 39.8553 46.2408 40.0218L46.1871 40.1382C46.1477 40.1382 46.2444 39.9878 46.307 39.8732C46.2843 39.9148 46.2674 39.9594 46.2569 40.0057C46.3303 39.8571 46.4019 39.7049 46.4735 39.5509C46.5452 39.3969 46.6222 39.2429 46.6991 39.0854C46.8519 38.7576 46.9863 38.4217 47.102 38.0792C47.0912 38.1454 47.0089 38.4372 47.0859 38.2582C47.2114 37.9638 47.3126 37.6596 47.3885 37.3487C47.4225 37.2072 47.4601 37.064 47.4941 36.91C47.5281 36.756 47.5568 36.5931 47.5979 36.4105C47.6427 36.4105 47.5979 36.6003 47.5424 36.8044C47.4869 37.0085 47.4189 37.2126 47.4565 37.2394C47.6871 36.4469 47.8441 35.6348 47.9256 34.8134C48.0921 34.5287 47.9918 33.9647 48.1172 33.433C48.0706 33.4813 48.0814 33.2127 48.0814 32.9191C48.1136 33.0212 48.1225 32.7114 48.144 32.7974C48.1243 32.5395 48.0814 31.7983 48.1655 31.8234C48.0921 31.7589 48.1333 31.2701 48.0652 31.0624C48.0621 30.8888 48.0447 30.7158 48.0133 30.545C47.9883 30.366 47.9632 30.169 47.9345 29.9667C47.9095 30.1153 47.845 29.571 47.7985 29.4296C47.811 29.4707 47.8289 29.5531 47.8343 29.5316C47.8576 29.4027 47.6982 29.0804 47.6767 28.8512C47.6767 28.7456 47.7269 28.8656 47.6946 28.6991C47.657 28.6991 47.4637 28.1172 47.4368 27.8862C47.4548 27.9424 47.4814 27.9956 47.5156 28.0438C47.1575 27.0196 46.7833 25.9149 46.1907 24.9732L46.3393 25.1164C46.2824 24.937 46.1835 24.7737 46.051 24.6401C45.9319 24.5413 45.8339 24.4195 45.7627 24.282C45.385 23.6258 44.9614 22.997 44.4951 22.4003C44.0316 21.8095 43.515 21.2623 42.9518 20.7656C42.8604 20.7048 42.9822 20.8247 42.9786 20.8551C42.8927 20.7603 42.8963 20.703 42.7441 20.6134V20.6618C42.6107 20.5198 42.4683 20.3864 42.3179 20.2625C42.1389 20.1246 41.9599 19.9868 41.7701 19.8471C41.5803 19.7075 41.3941 19.5911 41.2329 19.4693C41.1524 19.4103 41.0807 19.3512 41.0163 19.2903C40.958 19.2447 40.9029 19.1951 40.8516 19.1417C40.5669 18.9931 40.3413 18.8373 40.0888 18.6959C39.9635 18.6225 39.8328 18.5473 39.6896 18.4721C39.5463 18.3969 39.3834 18.3342 39.2008 18.2644C38.9931 18.1301 39.4801 18.3414 39.1865 18.1874C38.9645 18.0907 38.7335 18.0209 38.5079 17.9367L38.5455 17.9475C38.4551 17.9222 38.3661 17.8923 38.2787 17.858C38.1838 17.8257 38.0871 17.7881 37.9851 17.7487C37.7828 17.6682 37.5697 17.5697 37.3423 17.482C36.9051 17.293 36.4481 17.1537 35.9798 17.0666H36.0174C36.0425 17.0487 35.8724 16.9842 35.7327 16.9609C35.6808 16.9609 35.7721 16.995 35.8509 17.0308L35.371 16.9484L35.013 16.9001C34.7963 16.8696 34.6029 16.8356 34.2968 16.8088C34.5653 16.8088 34.0551 16.7497 34.0336 16.7013C33.8689 16.7139 34.1213 16.755 33.7614 16.7461C33.5054 16.7318 33.2601 16.6995 33.0256 16.6798L32.3524 16.6297C32.1733 16.6763 31.9531 16.6691 31.9424 16.721C31.6541 16.721 31.4303 16.7461 31.1904 16.7712L30.8072 16.807L30.3417 16.8661L30.322 16.8499C30.143 16.9287 29.7097 16.9126 29.5844 16.9681C29.6005 16.943 29.6739 16.9216 29.6506 16.9072L29.3373 16.9806C29.4841 16.9377 29.5593 16.8625 29.2943 16.9037C29.0329 17.0057 29.3749 16.9162 29.2495 16.9806L29.1564 16.9413C28.9541 16.9932 28.9111 17.0702 29.1564 17.0326C28.4901 17.1805 27.8325 17.3658 27.187 17.5876L27.2389 17.5303C27.0724 17.5894 26.8808 17.6718 26.7017 17.7344C26.5227 17.7971 26.3616 17.849 26.2595 17.8794C26.2595 17.8938 26.1843 17.9457 26.2416 17.9349C25.8835 18.148 26.1754 17.8956 25.7797 18.1283C25.8754 18.0937 25.9653 18.0448 26.0464 17.9833C25.7886 18.1068 25.5398 18.2483 25.2927 18.3897C25.1875 18.4033 25.0852 18.4341 24.9901 18.481C24.8131 18.5587 24.642 18.649 24.478 18.7514C24.478 18.7729 24.5747 18.7406 24.6571 18.6977L24.4619 18.823C24.3992 18.8337 24.3366 18.8427 24.2829 18.8552L24.0286 19.0826L23.9946 19.0396C23.7905 19.1811 23.7439 19.2867 23.5792 19.3977C22.9472 19.7934 23.06 19.6914 22.607 19.976C22.6178 20.0387 22.4441 20.1551 22.2776 20.3019C22.1342 20.4014 22.0068 20.5222 21.8998 20.66C21.3179 21.0736 20.6214 21.8399 20.0252 22.5543L20.0646 22.488C19.7835 22.7745 19.8444 22.8909 19.5758 23.2239L19.6241 23.1272C19.1953 23.6558 18.8399 24.24 18.5678 24.8639C18.6054 24.7637 18.5499 24.7941 18.4711 24.9427C18.421 25.077 18.6036 24.8586 18.4425 25.1056C18.4693 25.0376 18.4192 25.077 18.3887 25.1361L18.3064 25.419C18.1166 25.7466 17.9376 26.119 17.7693 26.4932C17.6021 26.8695 17.4604 27.2565 17.3449 27.6516C17.2823 27.7859 17.2966 27.6785 17.2912 27.6391C17.1259 28.2227 16.9932 28.8151 16.8937 29.4134L16.8239 29.4564C16.7774 29.7303 16.8866 29.6355 16.7738 29.9935C16.7523 30.0723 16.8096 29.759 16.7988 29.6569C16.6646 30.1941 16.7988 29.9882 16.7236 30.511L16.6717 30.366C16.6075 30.5656 16.6075 30.7804 16.6717 30.9801C16.6943 31.1524 16.6715 31.3277 16.6055 31.4886C16.5771 31.5639 16.5561 31.6419 16.5428 31.7213C16.5301 31.8655 16.5301 32.0104 16.5428 32.1546C16.575 32.2781 16.5947 32.1152 16.6252 32.237C16.6095 32.4288 16.6095 32.6216 16.6252 32.8135C16.6413 32.9657 16.6395 33.1179 16.6538 33.39C16.5732 33.6854 16.6341 33.1125 16.5607 33.4348V33.0176C16.5159 33.3757 16.5392 32.6917 16.4801 32.749C16.4779 32.9111 16.4863 33.0732 16.5052 33.2342L16.5858 33.7714C16.5392 33.7714 16.55 33.3631 16.4998 33.5297L16.5321 33.7087C16.5051 33.6593 16.4909 33.6039 16.4909 33.5476C16.4515 33.6156 16.5034 33.7606 16.5159 33.9325C16.541 33.9415 16.575 33.9325 16.6037 33.8698C16.596 33.8842 16.5917 33.9001 16.5911 33.9164C16.6914 34.2602 16.7129 34.8546 16.8239 35.1428C16.8024 35.0963 16.806 35.1428 16.797 35.1554C16.8171 35.2643 16.8459 35.3715 16.883 35.4759C16.9242 35.5869 16.9707 35.705 17.0083 35.8339C17.0083 35.9933 16.8919 35.7695 17.0083 36.2099C17.0674 36.2798 17.0781 36.0685 17.1766 36.4355C17.1766 36.4355 17.0585 36.124 17.0799 36.3012C17.2035 36.6593 17.0996 36.4212 17.1462 36.7632C17.2464 36.9422 17.2357 37.1213 17.3252 37.141C17.3073 37.2752 17.3252 37.2359 17.3503 37.474C17.3503 37.4167 17.4022 37.5205 17.4523 37.6333C17.5025 37.7461 17.5687 37.8643 17.5902 37.8464C17.5651 37.961 17.3754 37.5008 17.4112 37.8124C17.5275 37.9914 17.6815 38.3585 17.7567 38.362C17.7972 38.5194 17.8468 38.6742 17.9053 38.8258C17.8918 38.7902 17.8717 38.7574 17.8462 38.7291C17.9017 38.8276 17.9555 38.9386 18.011 39.0549L18.19 39.4005C18.2717 39.5869 18.3816 39.7596 18.5159 39.9126C18.3816 39.8839 18.9724 40.7451 18.72 40.4962C18.8223 40.6488 18.9379 40.792 19.0655 40.9242C19.0261 40.9367 19.0834 41.0387 19.1604 41.1605C19.2446 41.2729 19.3183 41.3927 19.3806 41.5186C19.4755 41.5812 19.6564 41.8641 19.805 42.0056C19.7423 41.9393 19.7029 41.9089 19.7047 41.9483C19.8712 42.1094 19.8104 42.0826 19.9017 42.2598C20.1094 42.4908 19.9142 42.1775 20.0574 42.3028C20.2078 42.5248 20.0431 42.3673 20.0467 42.4245L20.3672 42.6788C20.4043 42.7252 20.4311 42.7789 20.446 42.8363C20.5697 42.9264 20.677 43.0373 20.7629 43.164C20.6841 43.0816 20.6035 42.9993 20.5301 42.9115L20.5856 43.0387L20.9043 43.3001C21.2624 43.7638 21.0834 43.6922 20.9885 43.719L20.8094 43.5543C20.7933 43.5794 20.8971 43.7119 20.9688 43.7889L20.1416 42.8292ZM17.2214 27.8182C17.2339 27.777 17.2536 27.7143 17.2751 27.6391C17.2518 27.7304 17.2321 27.7806 17.2214 27.8182ZM17.4004 27.1485C17.3718 27.2202 17.3825 27.2542 17.4004 27.2345C17.4398 27.1199 17.4828 27.0143 17.515 26.9283C17.4667 27.0286 17.3933 27.1915 17.3968 27.1485H17.4004ZM16.7147 28.4126V28.3965C16.7344 28.3105 16.7505 28.2443 16.7648 28.1888C16.7288 28.2419 16.7078 28.3038 16.7039 28.3678C16.7056 28.3831 16.7092 28.3982 16.7147 28.4126Z" fill="#2C2C2C"/>
<path d="M16.7148 28.5863V28.6364C16.7238 28.6131 16.7327 28.5898 16.7435 28.5684V28.5236L16.7148 28.5863ZM34.9469 48.2972H34.929H34.9469ZM24.0288 19.0987L24.0216 19.088L23.9715 19.1327L24.0288 19.0987ZM30.7769 48.256C30.7602 48.2466 30.7421 48.24 30.7232 48.2363C30.7402 48.2451 30.7583 48.2517 30.7769 48.256ZM29.0062 47.9624L28.7627 47.8908C28.8665 47.923 28.9435 47.9463 29.0062 47.9624ZM27.6795 47.59C27.6677 47.5906 27.6564 47.595 27.6473 47.6025L27.6795 47.59ZM46.3072 39.8696L46.3305 39.8213C46.3788 39.7067 46.3448 39.7854 46.3072 39.8696ZM42.2483 44.9133C42.2984 44.8631 42.3467 44.8148 42.4005 44.7664C42.3056 44.8398 42.2339 44.8882 42.2483 44.9133ZM42.6314 44.5677C42.5486 44.6268 42.4713 44.6934 42.4005 44.7664C42.4808 44.7041 42.5578 44.6378 42.6314 44.5677ZM22.455 44.7843L22.4031 44.7432H22.3923L22.455 44.7843ZM22.3923 44.7432C22.3708 44.7306 22.3511 44.7145 22.3314 44.702C22.3565 44.7235 22.3798 44.7432 22.3923 44.7432ZM22.2061 44.6107L22.3314 44.702C22.295 44.6648 22.2527 44.6339 22.2061 44.6107ZM23.9231 45.8604H23.9518C23.9474 45.858 23.9425 45.8568 23.9375 45.8568C23.9325 45.8568 23.9276 45.858 23.9231 45.8604ZM24.3976 46.1469C24.283 46.0806 24.1362 45.9392 23.9733 45.8532H23.9518C24.0395 45.8765 24.2723 46.1129 24.3976 46.1469ZM26.3832 47.3697C26.2382 47.3089 26.0985 47.2372 25.9553 47.1728C26.0233 47.2229 26.1128 47.2892 25.9141 47.2086C26.4441 47.4969 25.8246 47.1227 26.3832 47.3697ZM27.7601 47.8836C27.5166 47.8138 27.7601 47.9105 27.7386 47.9176C27.8997 47.9391 27.9373 47.9445 27.7601 47.8836ZM38.1338 47.4807V47.5327C38.3075 47.4575 38.1213 47.5148 38.1338 47.4807ZM39.858 46.4333C39.799 46.4548 39.7417 46.4781 39.679 46.496L39.6181 46.573C39.7023 46.53 39.781 46.4835 39.858 46.4333ZM41.0487 46.1129L40.9789 46.1648L41.2474 45.9768L41.0487 46.1129ZM48.4557 30.8744L48.4056 30.9389C48.4253 31.0642 48.4933 31.0857 48.4557 30.8744ZM45.899 23.7019C45.8535 23.5627 45.7755 23.4363 45.6716 23.3331C45.7611 23.4764 45.8417 23.6285 45.899 23.7019ZM25.5865 17.7398L25.7207 17.661C25.633 17.704 25.5417 17.7452 25.4611 17.7953C25.5023 17.7756 25.5435 17.7559 25.5865 17.7398ZM43.1471 20.9769C43.1471 20.9536 43.1166 20.9357 43.088 20.9769L43.1077 21.0414L43.1471 20.9769ZM42.8552 21.1183C42.8373 21.1756 42.8302 21.2562 42.8928 21.2687C42.8928 21.1918 42.9161 21.1989 42.9089 21.1112C42.9376 21.0736 42.9788 21.0682 42.9895 21.0879C42.9895 21.0664 43.0486 21.0467 43.0396 21.0038C43.002 21.0097 42.967 21.0267 42.939 21.0525C42.9109 21.0783 42.8911 21.1118 42.8821 21.1488C42.8552 21.1506 42.8552 21.1273 42.8552 21.1183ZM39.6127 24.2248L39.6378 24.2104C39.6283 24.2127 39.6196 24.2177 39.6127 24.2248ZM37.6236 26.1692C37.6361 26.1531 37.6397 26.1423 37.6361 26.1369C37.6325 26.1316 37.6164 26.1674 37.6236 26.1692ZM37.2404 26.4574L37.2637 26.4413C37.253 26.4449 37.2422 26.4503 37.2404 26.4574ZM39.6127 24.2248L39.5465 24.2641C39.5555 24.282 39.5841 24.2498 39.6127 24.2248ZM42.5133 21.6555C42.5217 21.6436 42.5278 21.6303 42.5312 21.6161L42.5097 21.6483C42.5115 21.6503 42.5128 21.6528 42.5133 21.6555ZM40.4453 23.3242L40.4614 23.3081C40.463 23.298 40.463 23.2877 40.4614 23.2776L40.4453 23.3242ZM41.1042 22.6528C41.0863 22.6671 41.1167 22.7083 41.1275 22.7297C41.1233 22.7208 41.1211 22.711 41.1211 22.7011C41.1211 22.6912 41.1233 22.6814 41.1275 22.6724C41.1213 22.6642 41.1133 22.6575 41.1042 22.6528ZM42.2214 21.6608L42.2339 21.6376L42.2214 21.6608ZM39.9619 23.7933C39.9554 23.792 39.9487 23.792 39.9422 23.7933C39.9453 23.7946 39.9487 23.7953 39.952 23.7953C39.9554 23.7953 39.9588 23.7946 39.9619 23.7933ZM21.6242 42.6645C21.6242 42.6645 21.6189 42.6698 21.6242 42.6645V42.6645ZM20.6771 43.2589V43.2464C20.6721 43.2384 20.6661 43.2312 20.6592 43.2249L20.6771 43.2589ZM36.5887 27.0268C36.5977 27.0053 36.5887 27.0143 36.5887 27.0268V27.0268ZM30.9685 32.6917C31.0634 32.6595 30.9041 32.8368 31.0366 32.7759C31.0133 32.7723 31.0688 32.6326 30.9685 32.6917ZM42.4971 21.668L42.4703 21.6967C42.4811 21.689 42.4902 21.6793 42.4971 21.668ZM31.0383 32.7759H31.0509H31.0383ZM35.1868 28.4627C35.1967 28.4655 35.2073 28.4655 35.2172 28.4627C35.2172 28.4627 35.2047 28.4609 35.1868 28.4627ZM36.2915 27.4601L36.261 27.4816C36.2723 27.4762 36.2826 27.4689 36.2915 27.4601ZM34.689 29.0607C34.6729 29.0733 34.664 29.0733 34.6479 29.0965H34.6586C34.6602 29.0885 34.6639 29.0809 34.6692 29.0747C34.6745 29.0684 34.6813 29.0636 34.689 29.0607ZM34.1197 29.6319H34.1376L34.1537 29.6122L34.1197 29.6319ZM23.3395 40.9152C23.3206 40.919 23.3011 40.919 23.2822 40.9152C23.3162 40.926 23.241 41.0191 23.3395 40.9152Z" fill="#2C2C2C"/>
</svg>
