<svg width="64" height="64" viewBox="0 0 64 64" fill="none" xmlns="http://www.w3.org/2000/svg">
<path d="M9.80168 54.332C9.70585 54.2824 9.69875 54.371 9.91881 54.5587L10.146 54.6154L9.80168 54.332ZM11.0688 55.8057C11.3634 55.9828 11.7219 56.16 11.6261 55.9368C11.2995 55.8057 11.2711 55.7171 10.9162 55.5825C10.689 55.4019 10.5612 55.2283 10.6358 55.2283C10.5435 55.1822 10.3305 54.9059 10.1673 54.8492C10.4211 55.2258 10.7542 55.5426 11.1433 55.7774C11.2001 55.8518 11.1007 55.8057 11.0688 55.8057ZM37.3271 63.4363H37.1425C37.1922 63.4505 37.2561 63.4434 37.3271 63.4363ZM53.0295 56.0466C52.9301 56.1352 52.8947 56.1812 52.8982 56.1918C52.9869 56.1068 53.0615 56.0324 53.0295 56.0466ZM55.2727 54.0522L55.145 54.1726C55.1932 54.1389 55.2362 54.0983 55.2727 54.0522ZM37.3271 63.4363L37.7956 63.3938C37.8204 63.3442 37.5543 63.4045 37.3271 63.4363ZM14.2916 57.956C14.2205 57.911 14.1457 57.8719 14.068 57.8391L14.2703 57.9631L14.2916 57.956ZM29.6001 63.8862H29.4581L29.3374 63.9252L29.6001 63.8862ZM23.7259 62.9121C23.8572 62.951 23.9282 62.866 23.9885 62.8377C23.8892 62.8603 23.7861 62.8603 23.6868 62.8377C23.6833 62.8447 23.6833 62.8731 23.7259 62.9121ZM15.1648 59.0153L15.0157 58.9373L15.1648 59.0153ZM33.8665 63.9465C33.8817 63.9626 33.9015 63.9737 33.9232 63.9784C33.9232 63.9784 33.8984 63.9536 33.8665 63.9465ZM5.69505 48.8659C5.69505 48.8659 5.71635 48.9048 5.69505 48.8659V48.8659ZM9.56387 54.4631L9.49288 54.3993C9.47316 54.4024 9.45471 54.411 9.43964 54.4241L9.56387 54.4631ZM58.8221 49.8153L58.8044 49.8365C58.7405 49.9605 58.7866 49.8826 58.8221 49.8153ZM49.3666 5.1828C49.8031 5.5583 48.5147 4.78249 49.1926 5.3245C49.143 5.24656 49.9487 5.60082 49.3666 5.1828ZM14.4088 58.0552L14.6075 58.1898C14.5188 58.1261 14.4549 58.0836 14.4088 58.0552ZM49.1926 5.3245L49.2601 5.37763L49.1926 5.3245ZM63.5428 38.0611C63.5137 38.0972 63.4909 38.1379 63.4753 38.1816C63.4753 38.1816 63.5037 38.1532 63.5428 38.0611ZM60.3128 46.9246L60.4264 46.7226C60.3843 46.7874 60.3463 46.8549 60.3128 46.9246ZM63.9332 33.1689C63.944 33.051 63.944 32.9325 63.9332 32.8146C63.9307 32.8322 63.9307 32.8501 63.9332 32.8678C63.9526 32.9672 63.9526 33.0694 63.9332 33.1689ZM63.6954 28.0782V28.1739L63.7167 28.3333L63.6954 28.0782ZM0.857252 34.6497C0.844724 34.7321 0.819585 34.8122 0.782715 34.887C0.846604 34.8197 0.92469 35.5495 0.857252 34.6497ZM14.2632 58.0056C14.3164 58.0024 14.3687 58.0202 14.4088 58.0552L14.2703 57.9631C14.249 57.9667 14.2384 57.9773 14.2632 58.0056ZM63.1523 32.9386L63.1878 32.1486C63.1701 32.3718 63.1594 32.6587 63.1523 32.9386ZM16.8685 4.8002L16.7123 4.89939C16.7685 4.87327 16.821 4.83993 16.8685 4.8002ZM63.0814 29.8035C63.1055 29.6547 63.1186 29.5043 63.1204 29.3536C63.112 29.3228 63.1001 29.2931 63.0849 29.265L63.0814 29.8035Z" fill="#2C2C2C"/>
<path d="M7.76068 52.6351L7.31701 52.1923L6.89818 51.7317L6.93013 51.6857C6.87538 51.5734 6.78741 51.4807 6.67812 51.42C6.73846 51.42 6.58584 51.2251 6.38352 50.9665C6.18121 50.7079 5.95405 50.3749 5.81208 50.1659L5.85822 50.3572C5.64088 50.1185 5.44492 49.8613 5.27257 49.5885C5.1235 49.337 4.99927 49.0925 4.88569 48.8587C4.77211 48.6249 4.65853 48.3982 4.5485 48.1502C4.43879 47.9041 4.30941 47.6671 4.16161 47.4417C3.99834 47.2327 3.82797 47.0237 3.6718 46.8111L3.6931 46.6128C3.41444 46.2773 3.18717 45.9024 3.01872 45.5004C2.57149 44.2428 2.02134 42.9817 1.59896 41.6603C1.36116 41.012 1.20143 40.3389 1.00977 39.6765L0.793256 38.6704L0.708071 38.1921L0.640633 37.6891C0.624747 37.7829 0.624747 37.8787 0.640633 37.9725C0.561046 36.9752 0.419987 35.9838 0.218257 35.0038C0.14727 34.561 0.0762825 34.1253 0.0265912 33.6612C-0.00886374 33.1683 -0.00886374 32.6734 0.0265912 32.1804L0.0691833 32.3292C0.0514365 31.2452 0.0975787 32.4745 0.172116 31.688C0.0407887 31.5392 0.0975787 30.31 0.111776 29.683C0.121374 29.8481 0.121374 30.0137 0.111776 30.1789C0.19685 30.037 0.237627 29.8729 0.228906 29.7078C0.194041 29.491 0.175061 29.2719 0.172116 29.0524C0.172116 28.7973 0.193411 28.5104 0.214708 28.2093C0.250201 27.6106 0.356683 26.9694 0.420572 26.438C0.512855 26.3175 0.77551 25.4 1.03106 24.9537C1.03106 24.8332 0.99912 24.6207 0.988472 24.4258C1.11313 24.121 1.18745 23.7979 1.20853 23.4693C1.1198 23.8236 1.03816 24.107 0.977824 24.3373V24.3089C0.970537 24.3603 0.959866 24.4112 0.94588 24.4612C0.892639 24.6951 0.874892 24.8155 0.892639 24.7659C0.71872 25.1804 0.835849 24.7199 0.732917 24.7269C0.801027 24.3306 0.920334 23.9448 1.08785 23.5792C1.14464 23.3701 1.19079 23.2249 1.26532 23.023C1.2947 22.8757 1.33625 22.7312 1.38955 22.5908V22.6652C1.41217 22.64 1.43237 22.6127 1.44989 22.5837C1.58489 22.2102 1.69399 21.8279 1.77643 21.4395C1.88292 21.0427 1.97165 20.653 2.04264 20.3767C1.95745 20.9648 2.2272 20.2881 2.31239 20.3236C2.33369 20.2598 2.06038 20.9293 1.75869 21.7725C1.79063 21.7158 1.81903 21.6733 1.85807 21.6662C2.01689 21.3385 2.14521 20.997 2.2414 20.6459C2.29819 20.4653 2.35143 20.2917 2.42952 20.065C2.50761 19.8382 2.61054 19.6328 2.73831 19.3812C2.72057 19.4521 2.68152 19.5938 2.73831 19.5584C2.87945 19.3029 2.96417 19.0203 2.98677 18.7294C3.28783 18.3773 3.52777 17.9774 3.69665 17.5462C3.75861 17.2169 3.88921 16.9043 4.07998 16.6287L3.99124 16.9156C4.42782 16.2532 4.2184 16.2992 4.60174 15.7608C4.44202 15.9698 4.48461 16.0265 4.60174 15.8635C4.85756 15.448 5.05914 15.0016 5.20158 14.535L5.22643 14.6838C5.58136 14.0674 6.24155 12.9126 6.37288 12.9799C6.07118 13.0366 7.22118 11.6798 7.6471 11.2334C7.51577 11.3999 7.52287 11.4566 7.52642 11.4849C7.71099 11.2192 7.90976 10.9606 8.11917 10.7091C8.32858 10.4576 8.56639 10.2309 8.7971 10.0006C9.25497 9.52235 9.76253 9.10079 10.2169 8.65089L10.4689 8.61546C10.9729 8.14784 10.9409 7.80776 11.5159 7.31889L11.3526 7.54916C11.6011 7.32597 11.8176 7.1453 12.0235 6.98943L12.5736 6.56079C12.9286 6.29155 13.2587 6.06837 13.7094 5.77434L13.7485 5.86645C14.036 5.60784 14.4335 5.33152 14.7423 5.09417C15.0392 4.98508 15.3226 4.84245 15.5871 4.66907L16.7371 3.99244C17.5376 3.49142 18.4035 3.10282 19.3104 2.83758V2.62502C19.8747 2.36996 20.6094 2.07239 20.9289 2.10073L20.7975 2.14324C20.7975 2.30265 21.3725 1.92006 21.7523 1.84212C22.0221 1.73939 22.2741 1.56226 22.0256 1.61186C22.4232 1.50912 22.8597 1.37096 23.3247 1.2576C23.7897 1.14424 24.2546 1.00254 24.7161 0.903348C25.1775 0.804157 25.6176 0.708508 26.0116 0.65537C26.341 0.609017 26.6728 0.581811 27.0054 0.573891C27.4065 0.481785 27.7863 0.428648 28.1554 0.357797C28.5245 0.286946 28.8653 0.216095 29.2486 0.177127C29.6319 0.138159 29.9833 0.0850207 30.3738 0.0460527C30.7642 0.00708479 31.1759 0.00708508 31.6231 0L31.6018 0.0212551C32.2017 0.0212551 33.3978 0.131074 33.3765 0.276318C34.0119 0.29403 34.5336 0.276318 35.0909 0.276318C35.725 0.282336 36.3572 0.347568 36.9791 0.471158H36.6455C37.0257 0.547017 37.4115 0.590862 37.799 0.602232C37.9304 0.627029 37.8274 0.6412 37.799 0.662455C38.082 0.731016 38.3708 0.772533 38.6615 0.786444L38.5338 0.814784C39.698 1.1407 41.5933 1.46307 43.0592 2.02633C42.7824 1.94131 42.9066 2.04759 43.006 2.1149C43.6697 2.15741 45.2847 2.873 45.8845 3.13869L45.4906 3.02179C45.8721 3.15122 46.2313 3.33884 46.5554 3.57797C46.8726 3.81114 47.2156 4.00726 47.5776 4.16249L46.9919 3.71967C47.4285 3.99953 47.826 4.1802 47.7586 4.05267C48.2484 4.40692 47.7586 4.19437 48.5288 4.67261C48.5288 4.70095 48.3904 4.62302 48.2768 4.56279C48.1632 4.50257 48.0638 4.47069 48.1774 4.56279L49.1677 5.32798C49.3276 5.44964 49.4961 5.55973 49.6717 5.65744C49.7037 5.41655 50.5271 6.23841 50.1296 5.70703C50.8135 6.17615 51.4711 6.68231 52.0995 7.22324L52.9691 7.98489L53.4092 8.33914L53.8422 8.6934C54.1723 9.24603 55.9719 10.8189 55.6418 10.911C56.0891 11.4402 56.5743 11.9362 57.0935 12.3954C56.9887 12.2418 56.8699 12.0983 56.7385 11.9667C57.1335 12.3662 57.4978 12.7949 57.8282 13.2491C57.4085 12.766 56.9593 12.3093 56.483 11.8817C56.7456 12.1651 57.0402 12.5193 57.3313 12.8311L57.7572 13.2845C57.8708 13.4191 57.9666 13.5325 58.034 13.6175V13.8584C58.4884 14.3402 58.2612 14.365 58.7439 14.8362L58.7155 14.7086C59.3367 15.7289 59.4857 15.658 60.0394 16.6287H59.9685C60.0768 16.8237 60.1953 17.0129 60.3234 17.1955C60.4489 17.3806 60.5358 17.589 60.5789 17.8084C60.4654 17.5923 60.366 17.3726 60.2418 17.1601C60.2834 17.4587 60.3609 17.7513 60.4725 18.0315C60.8274 18.7082 60.7351 18.2051 60.9197 18.5452C60.9197 18.733 60.8913 18.6019 60.6925 18.4C60.9055 18.7755 61.1078 19.236 61.3279 19.6576C61.5479 20.0791 61.7396 20.4759 61.9029 20.7451C61.9029 20.7841 61.8674 20.7451 61.8674 20.7451C62.1868 21.5812 62.5772 22.2897 62.666 22.8388L62.5985 22.6758C62.6757 23.0752 62.7825 23.4683 62.918 23.8519C63.0387 24.2274 63.138 24.5356 63.0351 24.6348C63.0777 24.9891 62.8541 23.8874 62.8789 24.44C63.0493 25.5028 63.2339 25.0847 63.3617 26.0129C63.3404 25.8853 63.3368 25.9279 63.3049 25.8889C63.3794 26.2219 63.4433 26.5974 63.5214 27.0083C63.5995 27.4193 63.6705 27.8089 63.7237 28.1809C63.6847 29.1055 64.0112 30.9831 63.8018 32.0423C63.8728 31.688 63.8941 32.3044 63.9225 32.308C63.9509 32.3115 63.9047 32.2655 63.887 32.308C63.8735 32.5043 63.9026 32.7013 63.9721 32.8854C63.9462 33.1102 63.9462 33.3372 63.9721 33.562C63.9926 33.7575 63.9926 33.9546 63.9721 34.1501C64.0093 34.3682 64.0093 34.5909 63.9721 34.809C63.9721 34.1005 63.8834 34.5823 63.8302 34.267C63.7414 35.2873 63.9438 35.4573 63.7805 36.5201C63.7308 36.7114 63.6598 36.9027 63.5995 37.0904C63.7166 37.2321 63.4965 38.2028 63.5498 38.1886C63.4717 38.3622 63.3865 38.6172 63.3297 38.5641C63.2281 38.9675 63.1522 39.3769 63.1026 39.7898C63.1522 39.6552 63.1877 39.5206 63.2339 39.3824C63.0671 40.0272 62.9393 40.5408 62.8505 41.0262C62.7525 41.5041 62.6087 41.9715 62.4211 42.4219L62.2294 42.3334C61.9384 42.9462 61.9029 43.5485 61.5834 44.0515C61.7183 43.885 61.7254 43.8389 61.6225 44.2641C61.7396 44.0373 61.8496 43.5555 62.0023 43.1694L61.7964 44.0657L62.2436 42.7124C62.1052 43.3111 62.1016 43.2651 62.2685 43.0667C62.0164 43.8992 61.8638 43.9133 61.6012 44.6998C61.4556 44.9619 61.5089 44.6502 61.335 44.9442C61.122 45.6527 60.6038 46.1416 60.476 46.6659C60.3802 46.8076 60.6038 46.3931 60.5399 46.4073C60.4016 46.6905 60.283 46.9828 60.185 47.2823L60.405 46.928C60.2616 47.2644 60.0919 47.5889 59.8975 47.8987C59.7484 48.253 59.7271 48.5151 59.9401 48.1396C59.8691 48.3026 59.6242 48.6001 59.6384 48.4513C59.0705 49.3511 59.5603 49.004 58.9285 49.8188C58.964 49.7585 58.9924 49.6877 58.9604 49.716C58.8319 49.8862 58.7134 50.0636 58.6055 50.2474C59.106 49.4858 58.3109 50.3891 58.9427 49.5212C58.7936 49.5637 58.46 50.1766 58.2328 50.4352C57.9986 50.9063 58.3322 50.5733 58.2328 50.8248C58.2044 50.7965 58.0873 50.9807 57.9169 51.1791C57.9918 51.1336 58.0641 51.0839 58.1334 51.0303C58.0092 51.2074 57.8708 51.3846 57.7288 51.5936L57.9702 51.2393C57.8175 51.42 57.6152 51.6361 57.3739 51.8911C57.2603 52.0187 57.1396 52.1568 57.0189 52.3056C56.8982 52.4544 56.7705 52.6067 56.664 52.7768C56.7811 52.589 57.0189 52.2135 56.6214 52.6067C56.0712 53.3152 56.4546 52.7414 56.0748 53.0885C55.4998 53.7758 56.0748 53.3117 55.1413 54.2434C55.0419 54.3461 55.1697 54.2824 55.2868 54.1938C54.6408 54.835 54.3001 55.1963 53.6257 55.7631C53.9203 55.5152 54.1546 55.331 53.8067 55.7171C53.86 55.6144 53.7216 55.7171 53.5263 55.8907C53.3311 56.0643 53.0791 56.2449 52.9336 56.3406L52.8946 56.4291C52.6567 56.5708 52.8661 56.3689 53.0259 56.213C53.0259 56.213 53.1004 56.1882 53.2211 56.0784C53.5263 55.7702 53.2992 55.7525 52.7739 56.1847C52.245 56.6913 52.4189 56.7019 52.529 56.6523C51.7446 57.2404 51.9256 57.3608 51.1447 57.9028C50.9708 58.0304 50.2822 58.2996 49.725 58.6751C49.4871 58.9585 50.4632 58.25 50.1864 58.544C49.1216 58.9869 48.2981 59.9363 46.9032 60.5137L47.0168 60.3259C46.7044 60.4747 46.3956 60.6164 46.0514 60.8006L46.5376 60.6341C46.2395 60.8113 45.4977 61.1513 45.6964 60.953C45.2165 61.2393 44.7042 61.4676 44.1702 61.6331C44.8801 61.3356 44.1702 61.6331 44.6813 61.3604C44.2311 61.5173 43.7892 61.697 43.3574 61.8988C43.4284 61.828 43.1302 61.874 42.9314 61.9484C42.635 62.1002 42.3263 62.227 42.0086 62.3275C41.6537 62.4479 41.2668 62.5932 40.919 62.6994V62.6676C40.3163 62.8518 39.7021 62.9962 39.0804 63.0997L38.1398 63.2804C37.8274 63.33 37.5187 63.3938 37.2205 63.4682L37.1602 63.4859H37.256C37.4761 63.5071 37.256 63.5638 36.9011 63.6311C36.5461 63.6984 36.1273 63.7445 35.9427 63.7941C35.8299 63.7502 35.7071 63.7379 35.5878 63.7587C35.5878 63.8614 35.1193 63.872 34.9489 63.9252C34.5194 63.9252 34.9915 63.7976 34.2639 63.8543C33.9835 63.8826 33.9551 63.9393 33.9906 63.9783C33.6564 63.9336 33.3197 63.9111 32.9825 63.911C33.1243 63.9008 33.2667 63.9008 33.4085 63.911C33.4582 63.8543 33.1991 63.8826 33.2026 63.8118C32.8477 63.8118 33.0677 63.911 32.6418 63.8862L33.0358 63.7941C32.8777 63.7874 32.7194 63.7981 32.5637 63.826C32.8228 63.7976 32.7838 63.7161 32.7447 63.6666C31.7616 63.7516 32.5566 63.8933 32.5069 63.9854C32.0349 63.9854 31.6196 63.957 31.2256 63.9854C30.8496 64.0049 30.4729 64.0049 30.0969 63.9854L30.2424 63.8968C30.0219 63.879 29.8 63.8897 29.5822 63.9287L29.0356 63.8897C29.3551 63.8897 29.4616 63.8543 29.49 63.7799C28.9079 63.7799 28.1199 63.6276 27.9531 63.748L27.9779 63.7303C27.2062 63.6107 26.4427 63.4427 25.6921 63.2273C25.2804 63.16 24.8225 63.0572 24.4605 62.9722C24.0985 62.8872 23.8394 62.8199 23.811 62.8801C23.5285 62.8081 23.252 62.7146 22.984 62.6002C22.7525 62.4828 22.4981 62.4175 22.2386 62.4089C21.7026 62.1468 22.2386 62.3664 22.4196 62.331C22.1637 62.2192 21.8957 62.1372 21.621 62.0866C21.3832 62.0193 21.1951 61.9555 21.1347 61.8351C20.4745 61.6473 21.2696 61.9272 21.0247 61.9236C20.9892 61.8173 20.6946 61.6969 20.3361 61.5694C19.9782 61.4382 19.6316 61.2783 19.2997 61.0911C19.0087 61.038 19.5517 61.247 19.0654 61.1159C19.1293 61.0947 18.8915 60.9813 18.7708 60.9282L18.6111 60.9671L18.0042 60.3826C17.0849 60.0638 18.0929 60.6518 16.9394 60.0957L17.0104 60.124C16.8283 59.9705 16.6204 59.8506 16.3963 59.7698C16.0416 59.6236 15.7075 59.4319 15.4025 59.1994C15.6616 59.3872 15.5409 59.2242 15.6438 59.2525L15.1647 59.0152C15.2073 59.0364 15.2321 59.04 15.1966 59.0152C14.8417 58.7034 14.8417 58.8487 14.43 58.4944C14.7459 58.6786 14.6997 58.5476 14.5861 58.4307L13.894 58.0977L14.2312 58.1508C13.933 57.9347 13.5213 57.7293 13.1664 57.5061C12.8834 57.3498 12.6404 57.1304 12.4565 56.8649L12.7582 57.0703C12.7582 57.0278 12.6517 56.8082 12.2151 56.5673C12.0803 56.4858 11.9489 56.4823 12.1158 56.6133C12.0235 56.5283 11.9418 56.4362 11.8531 56.3477C12.348 56.6188 12.8225 56.9255 13.2729 57.2652C13.106 57.1872 12.7334 56.9393 12.8043 57.0703C13.0173 57.212 13.2303 57.3502 13.4432 57.4777C13.6562 57.6053 13.8763 57.7222 14.0857 57.8497C13.9501 57.7915 13.8084 57.7488 13.6633 57.7222C14.0892 58.0764 14.0431 57.9064 14.3909 58.1366C14.5009 58.2606 14.5755 58.3456 14.4726 58.3102C14.9064 58.5404 15.3228 58.8021 15.7184 59.0931C15.7184 59.0931 15.1505 58.8204 15.4131 59.0506C15.7453 59.2387 16.0933 59.3975 16.4531 59.5253C16.7548 59.6387 17.0529 59.7698 17.557 59.9894C18.7602 60.418 19.7469 61.1407 20.6236 61.3426C20.684 61.3178 20.0309 61.038 20.5775 61.2151C20.4533 61.2612 20.8792 61.3887 20.8934 61.4312C21.1396 61.4708 21.3787 61.546 21.6032 61.6544C21.7904 61.7366 21.9872 61.7949 22.1889 61.828C22.0824 61.828 22.4161 61.9661 22.6361 62.0689C22.5367 62.1503 23.2821 62.3204 22.3664 62.1858C22.5876 62.2212 22.8068 62.2685 23.023 62.3275L23.6051 62.4798C23.9479 62.5936 24.3092 62.6416 24.6699 62.6215C24.5954 62.5932 24.5208 62.5719 24.4463 62.54L25.3514 62.7915H25.3123C25.6458 62.8622 25.9724 62.9617 26.2884 63.0891C26.0506 63.0891 25.717 63.0112 25.4827 62.9864C25.9548 63.1954 26.5262 63.0997 27.0728 63.1883C27.0373 63.2627 26.4978 63.121 26.6434 63.2414C27.0069 63.3045 27.3748 63.3389 27.7437 63.3442L27.6869 63.3796C28.6523 63.5957 28.0915 63.2166 28.7907 63.4469C28.7694 63.4186 28.8617 63.4009 28.8227 63.3725C29.0818 63.4469 29.6994 63.5603 29.0747 63.5744C29.3786 63.6 29.6845 63.5929 29.9869 63.5532C29.7029 63.4682 29.6319 63.4965 29.5255 63.4044C29.9833 63.4044 30.4376 63.454 30.8955 63.4398C31.0517 63.4398 30.7819 63.4788 30.5903 63.4753C30.9932 63.5369 31.4001 63.57 31.8077 63.5744C32.2159 63.5744 32.6312 63.5319 33.05 63.5036C33.4688 63.4753 33.8947 63.4221 34.3278 63.3973C34.5443 63.3973 34.7643 63.3725 34.9879 63.3725H35.6623C35.4529 63.3265 35.7866 63.2946 35.9534 63.2273C36.5461 63.1954 37.4157 63.0006 37.9623 62.9616L37.799 63.036C38.4841 62.8766 39.052 62.7101 39.5737 62.5684C40.0955 62.4267 40.5356 62.2779 40.9935 62.1645C41.029 62.1291 40.9935 62.2389 40.848 62.2956C41.4762 62.0122 42.3423 62.0193 42.4629 61.7819C42.3813 61.8103 42.2997 61.828 42.218 61.8492C43.5509 61.3718 44.8395 60.7791 46.0691 60.078C46.424 60.0319 45.3592 60.4322 45.668 60.4322C46.5709 59.9964 47.4511 59.5152 48.3052 58.9904C48.1668 59.0931 48.2058 59.086 48.1384 59.1356C49.0683 58.6397 47.9822 59.1002 48.7418 58.6468C48.7418 58.7176 48.7737 58.707 49.0399 58.5759L49.2103 58.3634C49.2564 58.3634 49.2884 58.413 49.1925 58.5051C49.4587 58.1969 50.4668 57.5876 50.6513 57.3183C50.7294 57.29 50.6158 57.5096 50.7401 57.4671C51.0466 57.2636 51.3288 57.0259 51.5813 56.7586C51.8617 56.5958 52.1288 56.411 52.3799 56.206C53.0472 55.6852 52.4402 56.0713 52.8839 55.6037L52.3408 56.004C52.6319 55.7348 52.9371 55.4868 53.214 55.2034C53.1146 55.3239 53.0117 55.4443 52.9016 55.5577C53.3418 55.2318 53.6719 54.7641 54.1368 54.3355L53.8813 54.4878C54.0481 54.3142 54.2114 54.1336 54.364 53.9529C54.506 53.9919 55.0206 53.3046 54.8574 53.6978C55.2872 53.2917 55.6759 52.8444 56.018 52.3623C56.3481 51.9407 56.6249 51.4908 56.9976 51.0055C56.8663 51.1755 56.9373 51.126 56.9302 51.172C57.2739 50.7751 57.5552 50.3284 57.7643 49.8471C57.7643 49.9392 57.6649 50.088 57.6898 50.1092C57.8269 49.9252 57.9457 49.7282 58.0447 49.5212C58.105 49.3972 58.1654 49.2555 58.3996 48.8516C58.3073 49.0996 58.3748 49.0465 58.5203 48.8516C58.46 48.8516 58.5452 48.6603 58.6232 48.4974C58.4742 49.2307 59.2692 47.672 59.2124 48.1431C59.1911 48.0723 59.7945 46.7509 59.4999 47.0804L59.3935 47.3106C59.3154 47.3106 59.507 47.0131 59.6313 46.7863C59.5861 46.8687 59.5527 46.9569 59.5319 47.0485C59.6774 46.7545 59.8194 46.4533 59.9614 46.1487C60.1033 45.844 60.256 45.5394 60.4086 45.2276C60.7113 44.5792 60.9779 43.9145 61.2072 43.2367C61.1859 43.3678 61.0226 43.9452 61.1752 43.591C61.4241 43.0084 61.6247 42.4066 61.7751 41.7914C61.8425 41.5115 61.9171 41.2281 61.9845 40.9234C62.0519 40.6188 62.1087 40.2964 62.1904 39.9351C62.2791 39.9351 62.1904 40.3106 62.0803 40.7144C61.9703 41.1183 61.8354 41.5221 61.91 41.5753C62.3671 40.0071 62.6784 38.4003 62.8399 36.7751C63.17 36.2119 62.9712 35.096 63.2197 34.0438C63.1274 34.1395 63.1487 33.6081 63.1487 33.0271C63.2126 33.229 63.2303 32.6162 63.2729 32.7862C63.2339 32.2761 63.1487 30.8095 63.3155 30.8591C63.17 30.7315 63.2516 29.7644 63.1168 29.3535C63.1105 29.01 63.076 28.6676 63.0138 28.3297C62.9641 27.9754 62.9144 27.5858 62.8576 27.1855C62.808 27.4795 62.6802 26.4026 62.5879 26.1227C62.6127 26.2042 62.6482 26.3671 62.6589 26.3246C62.705 26.0696 62.3891 25.4319 62.3465 24.9785C62.3465 24.7694 62.4459 25.0068 62.382 24.6773C62.3075 24.6773 61.9242 23.526 61.8709 23.069C61.9066 23.1803 61.9593 23.2855 62.0271 23.3808C61.3172 21.3544 60.5754 19.1687 59.4006 17.3053L59.6952 17.5887C59.5823 17.2338 59.3864 16.9108 59.1237 16.6464C58.8876 16.4508 58.6933 16.2098 58.5523 15.9379C57.8034 14.6394 56.9636 13.3952 56.0393 12.2147C55.1205 11.0457 54.0963 9.96302 52.9797 8.98034C52.7987 8.8599 53.0401 9.09725 53.033 9.15747C52.8626 8.96971 52.8697 8.85635 52.568 8.67922V8.77487C52.3035 8.49389 52.0214 8.23003 51.7233 7.98489C51.3683 7.71211 51.0134 7.43934 50.6371 7.16302C50.2609 6.8867 49.8918 6.65643 49.5723 6.41554C49.4126 6.29864 49.2706 6.18173 49.1429 6.06129C49.0272 5.97108 48.9181 5.87282 48.8163 5.76726C48.252 5.47323 47.8047 5.16502 47.3043 4.88516C47.0558 4.73992 46.7967 4.59113 46.5128 4.44235C46.2288 4.29356 45.9058 4.16957 45.5438 4.03141C45.1321 3.76572 46.0975 4.18374 45.5154 3.87908C45.0753 3.68779 44.6174 3.54963 44.1702 3.38313L44.2447 3.40438C44.0655 3.35439 43.889 3.29527 43.7159 3.22725C43.5277 3.16349 43.3361 3.0891 43.1338 3.01116C42.7327 2.85175 42.3103 2.65691 41.8595 2.48332C40.9928 2.10942 40.0868 1.83373 39.1585 1.66145H39.233C39.2827 1.62603 38.9455 1.4985 38.6686 1.45244C38.5657 1.45244 38.7467 1.51975 38.9029 1.5906L37.9517 1.42764L37.2418 1.332C36.8123 1.27177 36.429 1.20446 35.822 1.15133C36.3545 1.15133 35.3429 1.03442 35.3003 0.938773C34.9737 0.963571 35.4742 1.04505 34.7608 1.02734C34.2532 0.998996 33.767 0.93523 33.302 0.896263L31.9674 0.797072C31.6125 0.889178 31.1759 0.875008 31.1546 0.977741C30.5832 0.977741 30.1395 1.02734 29.6639 1.07693L28.9043 1.14778L27.9815 1.26469L27.9424 1.2328C27.5875 1.38868 26.7285 1.35679 26.4801 1.46661C26.512 1.41702 26.6576 1.37451 26.6114 1.34617L25.9903 1.49141C26.2813 1.40639 26.4304 1.2576 25.9051 1.33908C25.3869 1.54101 26.0648 1.36388 25.8164 1.49141L25.6318 1.41347C25.2307 1.51621 25.1455 1.66854 25.6318 1.59414C24.3108 1.88688 23.0073 2.25352 21.7275 2.69233L21.8304 2.57897C21.5003 2.69587 21.1205 2.85883 20.7656 2.98282C20.4107 3.10681 20.0912 3.20954 19.8889 3.26977C19.8889 3.29811 19.7398 3.40084 19.8534 3.37958C19.1435 3.80115 19.7221 3.30165 18.9377 3.76218C19.1274 3.69368 19.3057 3.59694 19.4665 3.47523C18.9554 3.71967 18.4621 3.99953 17.9722 4.27939C17.7637 4.30624 17.561 4.36728 17.3724 4.46006C17.0215 4.6137 16.6823 4.79247 16.3573 4.99498C16.3573 5.03395 16.5489 4.97373 16.7122 4.88871L16.3253 5.13668C16.2011 5.15794 16.0769 5.17565 15.9704 5.20045L15.4664 5.65035L15.3989 5.56533C14.9943 5.84519 14.902 6.0542 14.5755 6.27384C13.3226 7.05674 13.5462 6.85482 12.6482 7.41808C12.6695 7.54207 12.3252 7.77234 11.9951 8.06282C11.7109 8.25972 11.4584 8.49862 11.2462 8.77133C10.0926 9.58966 8.71192 11.1059 7.52997 12.5193L7.60806 12.3883C7.05081 12.9551 7.17149 13.1853 6.63908 13.8443L6.73491 13.653C5.88543 14.6993 5.18105 15.8551 4.64078 17.0892C4.71532 16.8908 4.60529 16.9511 4.44911 17.2451C4.34973 17.5108 4.71177 17.0786 4.39232 17.5675C4.44556 17.4328 4.34618 17.5108 4.28584 17.6277L4.12257 18.1874C3.74634 18.8357 3.3914 19.5725 3.05776 20.3129C2.72648 21.0574 2.44546 21.8231 2.21656 22.605C2.09233 22.8706 2.12072 22.6581 2.11007 22.5802C1.78227 23.7349 1.51921 24.9069 1.32211 26.0908L1.18369 26.1758C1.0914 26.7178 1.30792 26.5301 1.08431 27.2386C1.04171 27.3945 1.15529 26.7745 1.134 26.5726C0.867793 27.6354 1.134 27.228 0.984922 28.2624L0.881991 27.9754C0.75489 28.3705 0.75489 28.7954 0.881991 29.1905C0.926825 29.5316 0.881552 29.8784 0.750664 30.1966C0.694398 30.3458 0.652794 30.5 0.626436 30.6572C0.60121 30.9424 0.60121 31.2292 0.626436 31.5144C0.690325 31.7589 0.729368 31.4365 0.789707 31.6774C0.758725 32.057 0.758725 32.4385 0.789707 32.8181C0.821651 33.1192 0.818102 33.4203 0.846497 33.9588C0.686775 34.5433 0.807454 33.4097 0.661929 34.0474V33.222C0.573195 33.9305 0.619337 32.5772 0.502208 32.6906C0.497847 33.0113 0.514446 33.332 0.551899 33.6506L0.711621 34.7134C0.619337 34.7134 0.640633 33.9057 0.54125 34.2351L0.605139 34.5894C0.551635 34.4916 0.523566 34.382 0.523504 34.2705C0.445417 34.4052 0.548349 34.6921 0.573195 35.0322C0.622886 35.0499 0.690324 35.0322 0.747114 34.9082C0.73179 34.9368 0.722148 34.9681 0.718719 35.0003C0.921034 35.6805 0.963627 36.8566 1.18369 37.4269C1.1411 37.3348 1.14819 37.4269 1.13045 37.4517C1.17026 37.6673 1.22723 37.8793 1.30082 38.0859C1.38245 38.3055 1.47474 38.5393 1.54927 38.7944C1.54927 39.1097 1.31856 38.6668 1.54927 39.5383C1.6664 39.6765 1.6877 39.2584 1.88291 39.9882C1.88291 39.9882 1.64866 39.3683 1.69125 39.719C1.93616 40.4275 1.73029 39.9563 1.82258 40.6329C2.02134 40.9872 2.00004 41.3415 2.17751 41.3804C2.14202 41.6461 2.17751 41.5682 2.2272 42.0393C2.2272 41.926 2.33014 42.1314 2.42952 42.3546C2.5289 42.5778 2.66023 42.8116 2.70282 42.7762C2.65313 43.0029 2.2769 42.0925 2.34788 42.7089C2.57859 43.0631 2.88384 43.7894 3.03291 43.7964C3.11315 44.1077 3.21152 44.4141 3.32751 44.714C3.30066 44.6435 3.26094 44.5786 3.21038 44.5227C3.32041 44.7175 3.42689 44.9371 3.53692 45.1674L3.89186 45.8511C4.05375 46.22 4.27163 46.5617 4.53785 46.8643C4.27165 46.8076 5.44294 48.5116 4.94248 48.0191C5.14532 48.321 5.37456 48.6043 5.62751 48.8658C5.54942 48.8906 5.663 49.0925 5.81562 49.3334C5.98252 49.5558 6.12866 49.793 6.2522 50.0419C6.44031 50.1659 6.7988 50.7256 7.0934 51.0055C6.96917 50.8744 6.89109 50.8142 6.89463 50.8922C7.22473 51.211 7.10405 51.1578 7.28507 51.5085C7.69679 51.9655 7.30991 51.3456 7.59386 51.5936C7.89201 52.0328 7.56547 51.7211 7.57257 51.8345L8.2079 52.3375C8.28142 52.4293 8.33464 52.5355 8.36408 52.6492C8.60944 52.8275 8.822 53.0468 8.99232 53.2975C8.83614 53.1346 8.67642 52.9716 8.5309 52.798L8.64093 53.0496L9.27272 53.5668C9.98259 54.4843 9.62765 54.3426 9.43954 54.3957L9.0846 54.0698C9.05265 54.1194 9.25852 54.3816 9.40049 54.5339L7.76068 52.6351ZM1.97165 22.9344C1.99649 22.8529 2.03554 22.7289 2.07813 22.5802C2.03199 22.7608 1.99295 22.86 1.97165 22.9344ZM2.32659 21.6095C2.2698 21.7512 2.29109 21.8185 2.32659 21.7795C2.40467 21.5528 2.48986 21.3438 2.55375 21.1738C2.45791 21.3722 2.31239 21.6945 2.31949 21.6095H2.32659ZM0.967176 24.1105V24.0787C1.00622 23.9086 1.03816 23.7775 1.06656 23.6677C0.995254 23.7729 0.953574 23.8952 0.94588 24.022C0.949131 24.0523 0.956289 24.0821 0.967176 24.1105Z" fill="#2C2C2C"/>
<path d="M0.967285 24.4543V24.5535L1.02408 24.4189V24.3303L0.967285 24.4543ZM37.1106 63.4541H37.0751H37.1106ZM15.4665 5.68237L15.4523 5.66111L15.3529 5.74968L15.4665 5.68237ZM28.8441 63.3727C28.8109 63.3541 28.775 63.3409 28.7376 63.3337C28.7713 63.3511 28.8071 63.3642 28.8441 63.3727ZM25.3338 62.7917L24.851 62.65C25.0569 62.7137 25.2095 62.7598 25.3338 62.7917ZM22.7037 62.0548C22.6803 62.0561 22.6579 62.0648 22.6398 62.0796L22.7037 62.0548ZM59.6314 46.7794L59.6775 46.6837C59.7734 46.457 59.7059 46.6129 59.6314 46.7794ZM51.5849 56.7587C51.6843 56.6595 51.7802 56.5639 51.8866 56.4682C51.6985 56.6135 51.5565 56.7091 51.5849 56.7587ZM52.3445 56.075C52.1803 56.192 52.0271 56.3236 51.8866 56.4682C52.0458 56.345 52.1986 56.2137 52.3445 56.075ZM12.3466 56.5037L12.2437 56.4222H12.2224L12.3466 56.5037ZM12.2224 56.4222C12.1808 56.3971 12.1405 56.3699 12.1017 56.3407C12.1514 56.3832 12.1975 56.4222 12.2224 56.4222ZM11.8532 56.16L12.1017 56.3407C12.0295 56.2671 11.9455 56.206 11.8532 56.16ZM15.2571 58.6327H15.3139C15.3051 58.6281 15.2954 58.6256 15.2855 58.6256C15.2756 58.6256 15.2658 58.6281 15.2571 58.6327ZM16.1977 59.1995C15.9705 59.0685 15.6795 58.7886 15.3565 58.6186H15.3139C15.4878 58.6646 15.9492 59.1322 16.1977 59.1995ZM20.1339 61.6191C19.8464 61.4986 19.5696 61.3569 19.2856 61.2294C19.4205 61.3286 19.598 61.4597 19.204 61.3003C20.2546 61.8706 19.0265 61.1302 20.1339 61.6191ZM22.8634 62.6358C22.3807 62.4976 22.8634 62.6889 22.8208 62.7031C23.1402 62.7492 23.2148 62.7563 22.8634 62.6358ZM43.4285 61.8387V61.9415C43.7728 61.7927 43.4036 61.906 43.4285 61.8387ZM46.8465 59.7663C46.7294 59.8089 46.6158 59.8549 46.4916 59.8903L46.3709 60.0427C46.5377 59.9576 46.6939 59.8655 46.8465 59.7663ZM49.2069 59.1322L49.0684 59.235L49.6008 58.863L49.2069 59.1322ZM63.8906 28.9817L63.7912 29.1092C63.8303 29.3572 63.9652 29.3997 63.8906 28.9817ZM58.8221 14.7902C58.7319 14.5148 58.5774 14.2646 58.3713 14.0605C58.5488 14.3439 58.7085 14.645 58.8221 14.7902ZM18.5544 2.99358L18.8207 2.83771C18.6467 2.92273 18.4657 3.00421 18.306 3.1034C18.3876 3.06443 18.4693 3.02546 18.5544 2.99358ZM53.3667 9.39849C53.3667 9.35244 53.3064 9.31702 53.2496 9.39849L53.2886 9.52603L53.3667 9.39849ZM52.7882 9.67835C52.7527 9.79172 52.7385 9.95113 52.8627 9.97947C52.8627 9.8236 52.9089 9.83777 52.8947 9.66418C52.9515 9.58979 53.0331 9.57916 53.0544 9.61813C53.0544 9.57562 53.1715 9.53665 53.1538 9.45163C53.0792 9.46343 53.0097 9.49696 52.9542 9.54801C52.8986 9.59906 52.8594 9.66536 52.8414 9.73858C52.7882 9.74212 52.7882 9.69607 52.7882 9.67835ZM46.3603 15.8247L46.41 15.7963C46.391 15.8009 46.3738 15.8107 46.3603 15.8247ZM42.4169 19.6719C42.4417 19.64 42.4488 19.6187 42.4417 19.6081C42.4347 19.5975 42.4027 19.6683 42.4169 19.6719ZM41.6573 20.2422L41.7035 20.2103C41.6822 20.2174 41.6609 20.228 41.6573 20.2422ZM46.3603 15.8247L46.2289 15.9026C46.2467 15.938 46.3035 15.8743 46.3603 15.8247ZM52.1102 10.7411C52.1271 10.7177 52.1391 10.6912 52.1457 10.6632L52.1032 10.7269C52.1068 10.7309 52.1093 10.7358 52.1102 10.7411ZM48.0107 14.0428L48.0427 14.0109C48.0458 13.9909 48.0458 13.9706 48.0427 13.9507L48.0107 14.0428ZM49.3169 12.7143C49.2814 12.7427 49.3417 12.8241 49.363 12.8666C49.3548 12.8489 49.3505 12.8295 49.3505 12.81C49.3505 12.7904 49.3548 12.771 49.363 12.7533C49.3508 12.737 49.335 12.7237 49.3169 12.7143ZM51.5317 10.7517L51.5565 10.7057L51.5317 10.7517ZM47.0488 14.9709C47.0372 14.9681 47.025 14.9681 47.0133 14.9709C47.019 14.9732 47.025 14.9745 47.0311 14.9745C47.0372 14.9745 47.0432 14.9732 47.0488 14.9709ZM10.6997 52.3093C10.6997 52.3093 10.689 52.3199 10.6997 52.3093V52.3093ZM8.82206 53.4854V53.4606C8.8122 53.4449 8.80026 53.4306 8.78656 53.4181L8.82206 53.4854ZM40.3654 21.3687C40.3831 21.3262 40.3654 21.3439 40.3654 21.3687V21.3687ZM29.2239 32.5773C29.412 32.5136 29.0961 32.8643 29.3587 32.7438C29.3126 32.7368 29.4226 32.4604 29.2239 32.5773ZM52.0783 10.7659L52.0251 10.8226C52.0465 10.8075 52.0646 10.7882 52.0783 10.7659ZM29.3623 32.7438H29.3871H29.3623ZM37.5862 24.2099C37.6059 24.2153 37.6268 24.2153 37.6465 24.2099C37.6465 24.2099 37.6217 24.2063 37.5862 24.2099ZM39.7762 22.226L39.7158 22.2685C39.7382 22.2579 39.7586 22.2435 39.7762 22.226ZM36.5995 25.3931C36.5675 25.4179 36.5498 25.4179 36.5178 25.4639H36.5391C36.5423 25.448 36.5495 25.4331 36.5601 25.4207C36.5707 25.4083 36.5842 25.3988 36.5995 25.3931ZM35.4708 26.5231H35.5063L35.5382 26.4842L35.4708 26.5231ZM14.1 48.8482C14.0625 48.8558 14.0239 48.8558 13.9864 48.8482C14.0538 48.8695 13.9048 49.0537 14.1 48.8482Z" fill="#2C2C2C"/>
<g clip-path="url(#clip0_44559_136716)">
<path fill-rule="evenodd" clip-rule="evenodd" d="M35.4003 10.0885C35.0729 10.7281 35.0908 11.4488 35.3936 12.0412C33.9139 11.3226 32.4582 11.7696 31.6245 13.248C31.057 14.254 30.4953 15.2628 29.9335 16.2715C29.7064 16.6794 29.4792 17.0873 29.2517 17.495C28.2648 19.2634 27.2782 21.032 26.2917 22.8006L26.2892 22.8051C24.509 25.9965 22.7288 29.1879 20.9466 32.3781C20.1836 33.7433 20.5841 35.3188 21.9451 36.0976C21.9966 36.1271 22.0482 36.1565 22.0998 36.186C22.0751 36.2157 22.0512 36.2525 22.0273 36.2966C21.6814 36.9359 21.3236 37.5692 20.9623 38.2006C20.8586 38.3818 20.8779 38.4862 21.0728 38.5926C22.2089 39.2108 23.3404 39.8382 24.47 40.4682C24.6416 40.5641 24.7454 40.5482 24.8425 40.3697C25.0927 39.9101 25.3475 39.4534 25.6023 38.9967C25.7126 38.7991 25.8229 38.6014 25.9327 38.4036C25.9469 38.3781 25.9597 38.352 25.9718 38.3263C26.0632 38.3753 26.1548 38.4242 26.2463 38.473C27.6106 39.2002 29.1878 38.7136 29.9362 37.3742L30.8589 35.7225L30.8606 35.7196C32.4302 32.9101 33.9997 30.1006 35.5711 27.2921C35.6157 27.2126 35.6537 27.1227 35.6919 27.0324C35.7862 26.8093 35.8813 26.5842 36.0793 26.5094C36.2846 26.4323 36.5149 26.5439 36.7406 26.6532C36.8228 26.693 36.9044 26.7326 36.984 26.7626C42.0582 28.6818 45.2538 33.7374 44.6272 39.2359C44.2746 42.3333 42.8957 44.9275 40.5069 46.9585C37.876 49.1957 34.8095 50.1312 31.377 49.7676C28.7654 49.4912 26.4851 48.4228 24.4702 46.5909L24.4689 46.5902H25.0037C25.3401 46.59 25.6765 46.5906 26.0128 46.5912H26.0129C26.7631 46.5926 27.5132 46.594 28.2632 46.5862C29.0395 46.5783 29.6342 45.986 29.6841 45.2012C29.7293 44.4931 29.1772 43.8195 28.4468 43.7084C28.2293 43.6753 28.0058 43.6628 27.7849 43.6628C23.029 43.6601 18.2737 43.6608 13.5178 43.6614H13.5174H13.517L13.4861 43.6614C13.3521 43.6613 13.2181 43.6613 13.0853 43.676C12.1906 43.7745 11.6172 44.4045 11.6538 45.2323C11.685 45.9397 12.3336 46.6213 13.2323 46.6015C14.2916 46.5778 15.3517 46.5816 16.4119 46.5855H16.412C17.0148 46.5876 17.6178 46.5898 18.2206 46.5869C18.4774 46.5862 18.6477 46.6537 18.7947 46.8804C19.6887 48.2609 20.7637 49.4879 22.0469 50.5245C26.1552 53.8447 30.8229 55.0644 36.0215 54.0589C39.6668 53.3535 42.7121 51.5427 45.1627 48.7679C47.6386 45.9641 48.9996 42.6843 49.2523 38.9688C49.4127 36.61 49.0807 34.3053 48.208 32.0965C46.4019 27.5249 43.211 24.3125 38.6058 22.5089C38.3337 22.4025 38.337 22.3086 38.4621 22.0885C39.1971 20.7933 39.9269 19.4949 40.6466 18.1912C41.4634 16.7124 41.0541 15.2275 39.6262 14.379C40.052 14.3389 40.5481 14.1784 40.9301 13.7716C41.4343 13.2348 41.8108 12.606 42.0416 11.9145C42.343 11.0121 41.9558 10.0085 41.125 9.50802C40.378 9.0578 39.615 8.63006 38.836 8.23669C37.8389 7.73358 36.6655 8.05819 36.0542 8.97847C35.8167 9.33547 35.5958 9.70702 35.4003 10.0885Z" fill="#D6D6D6"/>
</g>
<g clip-path="url(#clip1_44559_136716)">
<path d="M39.6251 14.4894C39.6053 14.4907 39.6001 14.5169 39.6409 14.5372L39.6909 14.5175L39.6251 14.4894Z" fill="#2C2C2C"/>
<path d="M39.8385 14.7206C39.8938 14.7325 39.9649 14.7397 39.9596 14.6865C39.8931 14.6891 39.8925 14.6668 39.8161 14.6786C39.7753 14.6582 39.7575 14.6247 39.7726 14.6149C39.7529 14.6155 39.718 14.5689 39.6831 14.5788C39.7147 14.6392 39.7759 14.6793 39.8569 14.6983C39.8655 14.7154 39.8457 14.716 39.8378 14.7206H39.8385Z" fill="#2C2C2C"/>
<path d="M40.5269 18.5337L40.5444 18.5101C40.5383 18.5161 40.5322 18.5242 40.5269 18.5337Z" fill="#2C2C2C"/>
<path d="M39.1695 20.8743C39.1796 20.8554 39.1803 20.846 39.1776 20.8426C39.1702 20.8608 39.1642 20.8763 39.1695 20.8743Z" fill="#2C2C2C"/>
<path d="M38.8884 21.2442C38.8939 21.2369 38.8987 21.2309 38.9036 21.2242C38.8957 21.2303 38.889 21.2381 38.8884 21.2442Z" fill="#2C2C2C"/>
<path d="M40.5269 18.533L40.4841 18.5909C40.4945 18.6012 40.5094 18.5626 40.5269 18.533Z" fill="#2C2C2C"/>
<path d="M40.3857 15.0165C40.3734 15.0068 40.3605 15.0023 40.3481 14.9985C40.3592 15.0056 40.3695 15.0113 40.3792 15.0197C40.3812 15.0184 40.3831 15.0171 40.3857 15.0165Z" fill="#2C2C2C"/>
<path d="M40.9029 17.4168L40.9073 17.3963C40.9041 17.3892 40.8997 17.3821 40.8945 17.3757L40.9029 17.4168Z" fill="#2C2C2C"/>
<path d="M40.9702 16.5406C40.9702 16.5599 41.0072 16.5637 41.024 16.5695C41.0078 16.5599 40.9994 16.5457 40.9955 16.529C40.9884 16.529 40.9806 16.5329 40.9709 16.5406H40.9702Z" fill="#2C2C2C"/>
<path d="M40.4275 15.2687L40.4075 15.2553C40.4129 15.259 40.4214 15.2644 40.4275 15.2687Z" fill="#2C2C2C"/>
<path d="M40.6989 18.0273C40.6933 18.0273 40.6883 18.0279 40.6846 18.0298C40.6889 18.0317 40.6939 18.0298 40.6989 18.0273Z" fill="#2C2C2C"/>
<path d="M27.0211 38.9089C27.0211 38.9089 27.0218 38.9045 27.0233 38.9016C27.016 38.9038 27.0138 38.906 27.0211 38.9089Z" fill="#2C2C2C"/>
<path d="M26.0957 38.3127L26.1098 38.3181C26.1146 38.3127 26.1199 38.3073 26.1233 38.3013L26.0957 38.3127Z" fill="#2C2C2C"/>
<path d="M38.417 21.9548L38.4195 21.9522C38.4265 21.9313 38.4214 21.9427 38.417 21.9548Z" fill="#2C2C2C"/>
<path d="M34.6526 28.7709C34.7244 28.7098 34.6203 28.9167 34.7171 28.8182C34.6987 28.8221 34.725 28.6848 34.6526 28.7709Z" fill="#2C2C2C"/>
<path d="M40.4004 15.0379C40.4099 15.0467 40.4202 15.0561 40.429 15.0656C40.4167 15.0521 40.4079 15.0433 40.4004 15.0379Z" fill="#2C2C2C"/>
<path d="M34.7173 28.8187L34.7275 28.8077C34.7234 28.8118 34.7207 28.8146 34.7173 28.8187Z" fill="#2C2C2C"/>
<path d="M37.4829 23.6732C37.491 23.6732 37.4991 23.6685 37.5072 23.6638C37.5031 23.6624 37.4971 23.6638 37.4829 23.6732Z" fill="#2C2C2C"/>
<path d="M38.238 22.4269L38.2158 22.4566C38.2259 22.4452 38.2327 22.4357 38.238 22.4269Z" fill="#2C2C2C"/>
<path d="M37.1604 24.3588C37.1488 24.3742 37.141 24.3774 37.1326 24.4025C37.1352 24.4012 37.1378 24.3999 37.1403 24.398C37.1403 24.3871 37.1449 24.3755 37.1604 24.3588Z" fill="#2C2C2C"/>
<path d="M36.7781 25.0456C36.7826 25.0437 36.7872 25.0398 36.7918 25.0365C36.795 25.0293 36.799 25.0215 36.8022 25.0136L36.7787 25.045L36.7781 25.0456Z" fill="#2C2C2C"/>
<path d="M29.4131 38.4037C29.393 38.4076 29.3774 38.4056 29.3632 38.4024C29.3891 38.414 29.301 38.4957 29.4131 38.4037Z" fill="#2C2C2C"/>
<path d="M40.3723 15.0328C40.3823 15.0294 40.3904 15.0308 40.4011 15.0381C40.3937 15.0321 40.387 15.0261 40.3803 15.0201C40.375 15.0228 40.371 15.0261 40.373 15.0328H40.3723Z" fill="#2C2C2C"/>
<path d="M37.4008 24.5289L37.335 24.6353C37.3554 24.6064 37.3791 24.5676 37.4008 24.5289Z" fill="#2C2C2C"/>
<path d="M32.3807 33.5634L32.3706 33.5917C32.3767 33.5822 32.3807 33.5721 32.3807 33.5634Z" fill="#2C2C2C"/>
<path d="M37.1588 24.9617C37.1364 24.9749 37.1186 24.9919 37.1022 25.011C37.1022 25.0169 37.1015 25.0235 37.1035 25.0281L37.1588 24.9617Z" fill="#2C2C2C"/>
<path d="M28.6464 38.9121C28.7682 38.8655 28.6859 38.8458 28.7011 38.8097C28.7689 38.7762 28.788 38.7768 28.7978 38.7867C28.8084 38.7972 28.809 38.8176 28.838 38.8169C28.8788 38.79 28.9104 38.7584 28.9394 38.7308C28.9684 38.7019 28.9927 38.6737 29.0237 38.6573C29.0322 38.6619 29.0454 38.6573 29.0368 38.6737C29.1053 38.5949 29.285 38.5115 29.3443 38.4018C29.3535 38.3998 29.3594 38.4004 29.3634 38.4018C29.3331 38.3939 29.316 38.3761 29.3074 38.3604C29.3509 38.3269 29.3647 38.2717 29.4009 38.2829C29.3752 38.3039 29.3812 38.3157 29.3759 38.3334L29.4101 38.2855C29.4793 38.2855 29.3614 38.3486 29.3825 38.3748C29.42 38.3315 29.4589 38.2829 29.4944 38.2369C29.5293 38.1903 29.5635 38.1482 29.5984 38.1233C29.6439 38.1423 29.4641 38.2737 29.5747 38.2224C29.5385 38.2494 29.503 38.277 29.4648 38.3013C29.5899 38.2855 29.3989 38.3518 29.5214 38.3453C29.663 38.2323 29.6524 38.1916 29.7828 38.07C29.79 38.0234 29.7466 38.0556 29.7538 38.009C29.8183 37.9006 29.8697 37.8809 29.9158 37.8644C29.9619 37.8487 30.0027 37.8375 30.0323 37.7449C30.0369 37.6891 30.0014 37.6424 30.0981 37.5524L30.1153 37.6168C30.214 37.4776 30.1093 37.4973 30.2305 37.3652C30.2318 37.4027 30.1752 37.4868 30.1936 37.4684C30.2884 37.3915 30.212 37.3843 30.2575 37.3094L30.3055 37.316C30.3477 37.2365 30.3852 37.1491 30.4214 37.0591C30.457 36.9711 30.4932 36.8739 30.5314 36.7977C30.5379 36.8135 30.5366 36.8443 30.5676 36.8174C30.6749 36.5941 30.8388 36.3675 30.9797 36.1744L30.9909 36.0765C31.0014 36.0581 31.0251 36.0509 31.0205 36.0745C31.0785 36.0016 31.0014 36.0581 31.01 36.0121C31.0337 35.9648 31.0633 35.9628 31.0574 35.997C31.1094 35.8394 31.2227 35.5582 31.3425 35.4282L31.3366 35.463C31.4156 35.3539 31.3405 35.2928 31.4314 35.2022L31.4261 35.2265C31.5808 34.9808 31.7033 34.6833 31.8606 34.5171C31.8317 34.454 32.02 34.2773 31.9601 34.2241C32.0726 34.0974 32.0628 34.1453 32.1964 33.9535C32.2293 33.9003 32.1984 33.8491 32.2274 33.7775L32.2642 33.7952L32.2767 33.6835L32.3459 33.6579L32.3709 33.5896C32.3551 33.6139 32.3255 33.6343 32.3176 33.6251C32.3551 33.5174 32.4736 33.3971 32.4933 33.405L32.5901 33.1548C32.602 33.1679 32.5855 33.2093 32.5776 33.2454C32.6092 33.1009 32.6277 33.2428 32.6566 33.1108C32.6402 33.1219 32.6402 33.0911 32.6342 33.0845C32.6869 33.0392 32.7574 32.9091 32.8008 32.8079L32.8153 32.8395C32.916 32.6693 33.0023 32.467 33.1089 32.2726C33.0596 32.3363 33.0253 32.2969 33.0523 32.2378L33.1023 32.2352C33.0991 32.1859 33.0556 32.2871 33.0681 32.1958C33.1122 32.1255 33.1379 32.1701 33.1274 32.2187L33.1623 32.1235C33.1761 32.1242 33.1708 32.1485 33.1827 32.1616C33.1787 32.1123 33.3032 32.0296 33.2913 31.9553L33.3051 31.9567C33.4111 31.7622 33.4467 31.667 33.531 31.5074C33.5 31.4863 33.5408 31.4285 33.5408 31.3668C33.6146 31.2558 33.7107 31.1408 33.7844 30.999C33.822 30.8919 33.7726 30.9549 33.7778 30.9004C33.8114 30.909 33.8852 30.7677 33.8667 30.8518C33.9536 30.681 33.978 30.6337 34.0708 30.4078C34.0458 30.4242 34.0267 30.4472 34.0241 30.4281C34.0405 30.3868 34.0847 30.3473 34.0958 30.3605L34.0932 30.3723C34.1801 30.1096 34.4817 29.8685 34.5245 29.6445L34.5218 29.657L34.5982 29.4422C34.6535 29.3542 34.5903 29.5085 34.6456 29.4514C34.7134 29.2116 34.8378 29.1197 34.901 28.9266C35.063 28.8392 35.1605 28.4431 35.3171 28.2914H35.2908C35.2967 28.2323 35.3343 28.2401 35.358 28.208C35.3395 28.204 35.3112 28.2487 35.3165 28.2132C35.5127 27.8 35.805 27.4053 36.0512 27.0066C36.1401 26.8601 35.9926 26.8627 36.1467 26.7011L36.1546 26.776C36.2771 26.4482 36.5003 26.1592 36.626 25.8419C36.6247 25.8643 36.6359 25.8715 36.6201 25.9004C36.6826 25.8531 36.7498 25.6698 36.7281 25.6567C36.7564 25.612 36.7544 25.6574 36.7814 25.6357C36.8327 25.5818 36.8341 25.459 36.8795 25.4406C36.8874 25.4373 36.8788 25.4629 36.8742 25.4761C36.8834 25.4275 36.9835 25.2876 36.9302 25.3092C37.0072 25.2068 37.0342 25.0892 37.1027 25.011C37.0994 24.9335 37.2258 24.8304 37.1856 24.7844C37.233 24.8212 37.3357 24.613 37.3509 24.5295C37.3535 24.5617 37.4009 24.4776 37.4075 24.5171C37.4516 24.4363 37.4826 24.3574 37.4483 24.3568C37.5925 24.2438 37.5635 24.0323 37.6893 23.9935C37.794 23.74 37.8973 23.5094 38.0047 23.2881C38.0521 23.3249 37.8783 23.5278 37.9375 23.5488C38.029 23.3341 38.0501 23.1915 38.1745 22.9971C38.2107 22.9491 38.1805 23.0391 38.1798 23.0621C38.2713 22.8473 38.403 22.6726 38.4754 22.4762C38.48 22.4795 38.4741 22.5018 38.4682 22.5222C38.4866 22.4854 38.5222 22.444 38.4958 22.4348L38.4826 22.4729C38.4168 22.5104 38.4899 22.2916 38.4754 22.2752C38.5083 22.3731 38.5933 22.1077 38.6242 22.2509C38.6328 22.2253 38.6387 22.1898 38.6196 22.1865C38.644 22.155 38.6591 22.1491 38.6571 22.1937C38.7164 22.0604 38.6663 22.0913 38.7322 21.977C38.7434 21.9842 38.7342 22.0098 38.7407 22.0289C38.7513 21.9586 38.7638 21.8877 38.8296 21.797C38.8329 21.8069 38.8487 21.8009 38.8316 21.8292C38.9244 21.6623 38.9389 21.5139 39.068 21.3457C39.0851 21.4278 39.1206 21.2938 39.1687 21.3096L39.2141 21.2052L39.17 21.2321C39.222 21.148 39.2365 21.0541 39.2938 20.9897L39.2734 21.0633L39.3616 20.8997L39.2911 20.9799C39.3214 20.8813 39.2325 20.9569 39.3122 20.8511C39.3023 20.8767 39.3642 20.7664 39.4156 20.7375C39.4274 20.6876 39.4393 20.6363 39.488 20.5798C39.511 20.572 39.5268 20.6212 39.542 20.616C39.5321 20.5536 39.6526 20.4117 39.6467 20.3361C39.6447 20.3591 39.6664 20.3729 39.6743 20.3703L39.6664 20.3184C39.6993 20.2843 39.7072 20.2816 39.7211 20.2981C39.7974 20.1824 39.6447 20.304 39.7527 20.1772C39.7481 20.1897 39.756 20.187 39.7461 20.2127C39.8429 20.0787 39.8909 19.9282 39.9818 19.8061C40.047 19.7923 39.9252 19.9263 39.9871 19.9033C40.0904 19.7102 40.1628 19.4816 40.2761 19.3023L40.2517 19.3338C40.2056 19.2747 40.3577 19.2116 40.3801 19.1019C40.3722 19.1275 40.3979 19.1505 40.3946 19.1407C40.4348 19.0796 40.465 19.0113 40.496 18.9331C40.5269 18.8549 40.5585 18.7669 40.5961 18.6625L40.6 18.6947C40.652 18.6244 40.7067 18.495 40.7508 18.4129C40.7455 18.3807 40.7699 18.3334 40.733 18.3524C40.7863 18.2979 40.8212 18.2362 40.8476 18.1725C40.8739 18.1087 40.8943 18.0444 40.9075 17.978C40.922 17.9123 40.9364 17.8486 40.9562 17.7869C40.974 17.7245 40.9977 17.6654 41.0365 17.6095C41.028 17.6391 41.0306 17.6837 41.0378 17.6608C41.0451 17.6253 41.0536 17.5898 41.0609 17.5537L41.078 17.4453C41.0444 17.4552 41.0536 17.469 41.0201 17.5077C41.0089 17.4768 41.0089 17.4144 41.0214 17.3625C41.0187 17.4611 41.0694 17.3724 41.0958 17.3343C41.0852 17.3396 41.078 17.3231 41.0681 17.3251C41.1405 17.2233 41.0115 17.2949 41.0727 17.1497L41.0872 17.1602C41.0905 17.1018 41.0734 17.0466 41.0833 16.9855C41.1208 16.9632 41.0945 17.0479 41.1228 17.0551C41.1274 16.9658 41.0754 16.8784 41.1076 16.8009C41.1122 16.8193 41.1149 16.8423 41.1175 16.8653C41.1188 16.8883 41.1188 16.9106 41.1221 16.9297C41.1728 16.8456 41.1563 16.8338 41.1649 16.7687V16.7753C41.1695 16.7247 41.1794 16.6742 41.1807 16.6229C41.1781 16.6361 41.1761 16.6492 41.1721 16.6623C41.1228 16.6078 41.1129 16.5533 41.1076 16.4929C41.105 16.4324 41.0905 16.3667 41.049 16.3004C41.132 16.4305 41.0859 16.3175 41.1267 16.3201C41.1307 16.28 41.1313 16.2183 41.1451 16.2327C41.0971 16.1703 41.1353 16.1079 41.0615 16.0239C41.0747 16.0147 41.0339 15.9516 41.0708 15.9549C41.024 15.8708 41.0589 15.9838 41.0405 15.9818C41.0161 15.9523 40.999 15.9175 40.9845 15.878C40.9707 15.8386 40.9588 15.7953 40.9397 15.7526C40.9226 15.7092 40.9029 15.6646 40.8785 15.6206C40.8548 15.5765 40.8179 15.5391 40.7771 15.5049C40.7468 15.4721 40.7205 15.4471 40.6968 15.4274C40.6718 15.4084 40.6481 15.3946 40.6257 15.3808C40.5803 15.3532 40.5375 15.3263 40.4776 15.2737C40.4657 15.2481 40.4822 15.2475 40.5019 15.254C40.521 15.2613 40.5414 15.2757 40.5414 15.2757C40.498 15.1962 40.444 15.1548 40.3762 15.1062C40.3959 15.1102 40.39 15.0911 40.3821 15.0622C40.332 15.0169 40.3176 15.0662 40.2642 14.9946C40.2853 14.9933 40.3149 14.9887 40.3498 14.9992C40.2814 14.9565 40.2063 14.9243 40.1372 14.8809C40.1345 14.8494 40.1958 14.8862 40.2274 14.8934C40.1523 14.8382 40.0252 14.764 39.9824 14.7752L40.0219 14.8198C39.9943 14.8014 40.0266 14.7857 40.0503 14.7949C40.1306 14.8192 40.1345 14.8711 40.1293 14.8849C40.1128 14.8744 40.095 14.8658 40.0779 14.8566C40.0799 14.9026 40.1247 14.9368 40.1819 14.9696C40.2379 15.0024 40.309 15.032 40.3492 15.074C40.3255 15.0754 40.3011 15.0786 40.2767 15.0819C40.3176 15.0951 40.3538 15.1141 40.3933 15.1305C40.4012 15.1588 40.392 15.1923 40.3459 15.1581C40.3847 15.235 40.4111 15.1956 40.4394 15.2658C40.4413 15.2744 40.4367 15.2737 40.4301 15.2704C40.4532 15.2849 40.4756 15.3007 40.496 15.3177C40.4776 15.3138 40.4756 15.3532 40.4506 15.3112C40.4848 15.3755 40.5289 15.4123 40.5658 15.4419C40.5842 15.4563 40.6007 15.4695 40.6125 15.4826C40.6231 15.4971 40.6296 15.5115 40.6283 15.5286L40.6191 15.5207C40.7462 15.6711 40.6619 15.5122 40.787 15.6094C40.7797 15.6541 40.7653 15.7027 40.7528 15.7467L40.7969 15.7434C40.8054 15.7618 40.8225 15.7986 40.8048 15.7992C40.866 15.8524 40.814 15.7795 40.8581 15.8064C40.8686 15.8564 40.8936 15.9194 40.9187 15.972C40.9305 15.9989 40.9404 16.0239 40.9443 16.0442C40.9463 16.0659 40.9424 16.083 40.9285 16.0928C40.968 16.1171 40.9239 15.995 40.974 16.0889C40.9457 16.1139 40.9569 16.1414 40.9753 16.1756C40.9937 16.2091 41.0194 16.2498 41.0108 16.2978C40.972 16.2781 40.972 16.1933 40.9595 16.286C41.0266 16.326 40.9838 16.4561 40.9964 16.527C41.0201 16.5264 41.0286 16.5664 41.0352 16.6223C41.0424 16.6781 41.0345 16.7497 41.0438 16.8128C41.0359 16.8088 41.0306 16.8679 41.0154 16.9415C41.0089 16.9783 41.0016 17.019 40.9944 17.0578C40.9871 17.0965 40.9753 17.132 40.9667 17.1602L40.9595 17.1556C41.0029 17.1852 40.9773 17.3041 40.9634 17.3921C40.9358 17.3823 40.9285 17.3645 40.9266 17.3153L40.9081 17.3954C40.9187 17.4177 40.9206 17.4447 40.9141 17.4985L40.8838 17.4696C40.8739 17.5235 40.8653 17.5787 40.8561 17.6378C40.8462 17.6969 40.8324 17.7593 40.7962 17.8223C40.8252 17.8414 40.9233 17.7442 40.8936 17.8959C40.8746 17.8959 40.8436 17.89 40.8495 17.8499C40.8476 17.8631 40.8482 17.8985 40.8324 17.9209L40.8239 17.8532C40.7896 17.9104 40.8364 17.8939 40.8166 17.9426C40.7923 17.9327 40.7863 17.9728 40.7692 17.9583C40.7712 17.9452 40.7942 17.9189 40.7916 17.8972C40.7686 17.9511 40.7291 18.0122 40.7007 18.026C40.7165 18.026 40.7337 18.0385 40.7205 18.0798C40.6803 18.1836 40.677 18.1035 40.6408 18.158C40.6481 18.1902 40.6026 18.2473 40.6375 18.2644C40.6244 18.294 40.6053 18.2927 40.5901 18.2999C40.5835 18.3597 40.4835 18.5462 40.548 18.5048L40.5572 18.4923L40.5546 18.5015C40.5078 18.6901 40.3617 18.8457 40.2879 19.0191L40.2767 19.0126C40.2359 19.1183 40.1661 19.2372 40.1503 19.3206C40.1339 19.3495 40.0911 19.3778 40.0845 19.3574C40.0503 19.4369 40.0595 19.4533 39.9785 19.5499C40.0022 19.4638 39.9462 19.5657 40.0081 19.4645C39.9429 19.5565 39.912 19.567 39.8824 19.6891C39.8738 19.6372 39.804 19.741 39.7856 19.7916L39.8455 19.7358C39.8198 19.7903 39.7902 19.833 39.7606 19.8777L39.7375 19.831C39.5756 20.0005 39.6039 20.2317 39.438 20.3361C39.4327 20.4038 39.5209 20.2409 39.5236 20.3053C39.4643 20.3926 39.353 20.4544 39.3359 20.4826C39.2404 20.5936 39.3208 20.6311 39.2286 20.7519C39.2516 20.7434 39.2971 20.7493 39.251 20.8538C39.1911 20.9411 39.1279 20.9313 39.1516 20.8675C39.1634 20.8452 39.174 20.8373 39.1779 20.8406C39.1904 20.8084 39.2082 20.767 39.172 20.794L39.1786 20.8137C39.1377 20.8505 39.064 20.9759 39.0601 20.9332C39.0317 21.0094 39.0647 20.9759 39.1015 20.9293C39.012 21.0337 38.9916 21.1106 38.9066 21.2223C38.9251 21.2078 38.9521 21.1993 38.9402 21.2183C38.8184 21.3845 38.9198 21.3109 38.8546 21.4338C38.7941 21.4896 38.8204 21.3806 38.7658 21.5106C38.7085 21.5756 38.721 21.5054 38.7276 21.4692C38.6887 21.594 38.59 21.6643 38.5478 21.7248L38.5709 21.6604C38.557 21.6991 38.5399 21.7274 38.5228 21.7563L38.5696 21.7385C38.5452 21.7701 38.5281 21.7983 38.5169 21.7911C38.5143 21.8364 38.5775 21.7904 38.561 21.8739C38.5208 21.9113 38.4958 22.021 38.451 22.0164C38.5459 21.8798 38.4056 22.0118 38.4701 21.887C38.4609 21.9133 38.4445 21.9415 38.4201 21.973C38.4129 21.9757 38.4155 21.9638 38.4188 21.9533C38.3075 22.0729 38.4227 22.0394 38.3411 22.1819C38.3306 22.1524 38.2838 22.1931 38.2753 22.2194C38.3075 22.1622 38.3246 22.2108 38.3108 22.2726C38.2437 22.3553 38.2674 22.379 38.2384 22.4256L38.2766 22.375C38.2865 22.4053 38.2581 22.4493 38.2292 22.5169C38.2101 22.5136 38.2502 22.4526 38.2311 22.4716C38.2272 22.5622 38.1047 22.6109 38.0738 22.7232C38.0343 22.7613 38.033 22.7061 38.0014 22.7409C37.9658 22.8664 37.9066 22.8454 37.8638 22.9741C37.9099 22.9557 37.9066 22.9465 37.8875 23.0431L37.975 22.8408L37.9467 22.9859C37.979 22.9281 37.9974 22.8545 38.0211 22.8224C38.0106 22.8933 38.0073 22.8835 38.0455 22.869C37.9606 22.9248 37.9823 23.0391 37.9033 23.1147L37.8368 23.0739C37.7301 23.1941 37.7354 23.3373 37.6195 23.5062L37.663 23.4556C37.6768 23.4943 37.6057 23.5679 37.584 23.6316C37.5642 23.6132 37.5359 23.6448 37.5082 23.6618C37.5267 23.6684 37.4338 23.7912 37.4701 23.8333L37.3957 23.8963C37.3035 24.0336 37.3687 24.0967 37.2837 24.2307C37.2824 24.1755 37.2311 24.2294 37.2653 24.1262C37.2396 24.1722 37.212 24.2116 37.2271 24.2208C37.1981 24.2399 37.1863 24.366 37.1409 24.3962C37.1402 24.4212 37.16 24.4409 37.1297 24.4914C37.1218 24.4947 37.1185 24.4849 37.1185 24.4849C37.1297 24.4914 37.0882 24.5749 37.1389 24.5433C36.9888 24.6465 36.9223 24.944 36.7926 25.034C36.7439 25.1391 36.6839 25.2646 36.6346 25.3572C36.6313 25.3473 36.6234 25.3506 36.6352 25.3349C36.5437 25.4491 36.657 25.4491 36.5536 25.5792C36.4759 25.6324 36.576 25.4918 36.5371 25.5299C36.4515 25.5083 36.4509 25.7093 36.3534 25.7815L36.362 25.7559C36.2955 25.8157 36.2896 25.9523 36.2172 26.0699C36.2172 26.0699 36.2139 26.06 36.206 26.0627C36.1981 26.1664 36.1237 26.33 36.0697 26.4522C36.0605 26.3996 36.0835 26.3911 36.0414 26.3963C36.0163 26.4509 36.0973 26.4075 36.048 26.5165C36.0131 26.5415 35.9571 26.6085 35.9202 26.6013L35.9729 26.5021C35.9038 26.5297 35.9038 26.6295 35.8676 26.6775L35.8531 26.6611C35.7754 26.8148 35.8195 26.8417 35.726 27.0013L35.749 26.9921C35.7444 27.1051 35.6825 27.0519 35.6667 27.159L35.6062 27.1603C35.5844 27.2246 35.5364 27.3889 35.487 27.4979C35.4864 27.4197 35.537 27.2884 35.5594 27.2016C35.5272 27.2594 35.4534 27.4 35.4594 27.4421C35.4679 27.4164 35.4732 27.381 35.4929 27.3619C35.489 27.4526 35.4547 27.5557 35.3902 27.67C35.3132 27.601 35.2013 27.9577 35.0867 28.0037C35.0064 28.2257 34.849 28.4004 34.7226 28.6408C34.8378 28.5942 34.6864 28.7111 34.7648 28.7354C34.7384 28.7932 34.7259 28.8136 34.7187 28.8162L34.5844 28.9607C34.5416 28.989 34.5975 28.8996 34.5791 28.8957C34.5067 29.0139 34.5212 28.9298 34.458 29.0001C34.4922 28.9975 34.4711 29.0619 34.4231 29.1262L34.5093 29.0468C34.4533 29.2366 34.3691 29.1611 34.3125 29.3522L34.3204 29.2859C34.2848 29.3804 34.1419 29.609 34.1511 29.726C34.1347 29.7371 34.1037 29.747 34.1202 29.7056C33.9964 29.9105 33.9247 30.2055 33.8002 30.3493L33.7917 30.3237C33.7752 30.3657 33.7871 30.4097 33.7423 30.4492C33.7364 30.4426 33.7337 30.4242 33.7225 30.4413C33.7173 30.4656 33.6962 30.5615 33.6574 30.6081L33.662 30.5529C33.5277 30.7454 33.5375 30.8932 33.4559 31.0712C33.4052 31.043 33.3005 31.1954 33.2485 31.2715L33.2426 31.265C33.1063 31.5001 33.0642 31.6933 32.9641 31.9251C32.8344 32.0322 32.6882 32.377 32.5375 32.5807C32.5651 32.5518 32.5743 32.6076 32.5579 32.6496C32.5197 32.6956 32.5157 32.8119 32.4736 32.7784L32.4848 32.7607C32.4176 32.7751 32.3722 32.8881 32.3261 32.9702L32.3801 33.0168C32.1734 33.1856 32.1036 33.6034 31.9594 33.6789C31.9462 33.7394 31.9107 33.8044 31.8975 33.8648L31.8659 33.8445C31.7783 33.985 31.7349 34.0553 31.6453 34.2386L31.6421 34.1893C31.5848 34.2892 31.6671 34.368 31.6177 34.4626L31.5532 34.4639C31.4577 34.6406 31.3175 34.7956 31.2655 34.9933C31.2602 34.9867 31.2483 34.9736 31.2622 34.9441C31.2154 35.0262 31.0528 35.2462 31.1364 35.2528C31.0916 35.2311 31.0317 35.4314 30.9982 35.5365L30.9745 35.5037C30.9705 35.6062 30.981 35.6154 30.9297 35.7329C30.9106 35.7572 30.8908 35.7415 30.9191 35.7113C30.8527 35.7894 30.9106 35.7967 30.8336 35.8939L30.8355 35.8426C30.7822 35.9313 30.7973 35.9307 30.7927 35.9937C30.7736 36.0581 30.6867 36.1599 30.6505 36.1566C30.6611 36.1789 30.6565 36.2414 30.6176 36.29C30.6025 36.2906 30.6071 36.2676 30.6091 36.2558C30.5017 36.3937 30.5162 36.5002 30.4247 36.5842C30.4129 36.5803 30.4036 36.5842 30.3957 36.5901C30.4668 36.4726 30.5248 36.378 30.5215 36.3885C30.4925 36.3714 30.4306 36.464 30.4352 36.3648C30.4115 36.4555 30.3839 36.6098 30.3121 36.7025C30.3062 36.7064 30.3009 36.7097 30.2937 36.711L30.297 36.6979C30.2792 36.7222 30.2733 36.7425 30.2674 36.7649C30.2463 36.7931 30.2325 36.8115 30.2173 36.8404C30.187 36.8391 30.1455 36.9455 30.1186 36.9921C30.1535 37.0059 30.1133 37.0657 30.1725 37.0217C30.166 37.0283 30.1739 37.0105 30.1897 36.9777C30.1923 36.9698 30.1969 36.9613 30.1976 36.9554L30.1989 36.96C30.2153 36.9278 30.2364 36.8857 30.2601 36.8378C30.2568 36.8851 30.2502 36.933 30.2028 36.977C30.2107 37.0132 30.2173 37.0519 30.2186 37.0729C30.1376 37.115 30.0409 37.2247 30.0027 37.2247C29.9362 37.3784 29.8025 37.5557 29.794 37.6812C29.7716 37.7239 29.7446 37.7121 29.7248 37.7186C29.736 37.693 29.7571 37.668 29.7584 37.651C29.7156 37.737 29.5879 37.8704 29.6083 37.919C29.5102 37.9912 29.6208 37.8401 29.5148 37.9643L29.5188 37.938C29.3825 38.028 29.3101 38.1338 29.2238 38.2408C29.179 38.2921 29.1343 38.3472 29.0737 38.3899C29.0434 38.4116 29.0125 38.4346 28.9756 38.451C28.9387 38.4674 28.8986 38.4819 28.8545 38.4931C28.8788 38.4858 28.8907 38.4826 28.8986 38.4872C28.7123 38.5673 28.5259 38.6547 28.3264 38.7111C28.1283 38.7703 27.9163 38.7867 27.7201 38.746C27.6088 38.7256 27.595 38.7591 27.5232 38.7716L27.5035 38.7289L27.379 38.7584C27.2928 38.7598 27.225 38.7177 27.1539 38.6816C27.0828 38.6402 27.009 38.6001 26.8971 38.5988C26.9024 38.6106 26.9089 38.6218 26.9149 38.633C26.8438 38.6034 26.6798 38.5607 26.7029 38.5377C26.6936 38.539 26.6686 38.5548 26.6456 38.5305L26.6515 38.5101L26.4639 38.4628C26.4 38.4254 26.4145 38.409 26.4204 38.3906C26.4263 38.3722 26.4244 38.3525 26.3315 38.2993C26.2585 38.2691 26.1031 38.2448 26.1222 38.271C26.1505 38.2875 26.1887 38.3216 26.1808 38.3407L26.1103 38.3151C26.0688 38.3617 25.9839 38.388 26.1288 38.5141L26.2611 38.543L26.2848 38.5896L26.1874 38.539C26.2295 38.5929 26.2756 38.5916 26.323 38.5949C26.3256 38.6133 26.3375 38.631 26.3585 38.6474H26.5001C26.5047 38.6763 26.4283 38.6671 26.5014 38.7157C26.5672 38.7157 26.4705 38.6428 26.5679 38.6678C26.614 38.7184 26.5896 38.7308 26.6667 38.7354C26.6706 38.7538 26.6522 38.7578 26.6225 38.7538C26.691 38.7598 26.7885 38.8084 26.8313 38.79C26.8826 38.8432 27.0459 38.8458 27.0242 38.8997C27.036 38.8957 27.067 38.8944 27.1025 38.8924C27.1387 38.8905 27.1782 38.8905 27.2085 38.8957C27.1466 38.9174 27.2019 38.9305 27.2678 38.947C27.3329 38.9653 27.4113 38.9739 27.3909 39.01C27.4376 38.9837 27.512 38.991 27.5963 38.9929C27.6384 38.9929 27.6819 38.9936 27.7247 38.9942C27.7457 38.9942 27.7668 38.9936 27.7872 38.9916C27.8076 38.989 27.8274 38.9844 27.8458 38.9798C27.8379 38.9851 27.8215 38.9956 27.8083 38.9929C27.8919 38.9956 27.9169 39.0133 27.9722 39.0232C27.9801 38.9752 28.1079 38.9456 28.1711 38.9062C28.2797 38.9424 28.119 38.9739 28.1572 39.0172C28.152 38.9962 28.1954 38.9824 28.2336 38.9647C28.2725 38.947 28.3067 38.9305 28.2863 38.9174C28.3692 38.9312 28.3547 38.9181 28.4048 38.9509C28.4028 38.8865 28.4733 38.92 28.524 38.8635C28.6418 38.8603 28.572 38.9148 28.6826 38.8511C28.7458 38.8471 28.6484 38.9102 28.6484 38.9102L28.6464 38.9121ZM30.5228 36.7931C30.5129 36.8135 30.505 36.8279 30.4991 36.8404C30.5037 36.8306 30.5103 36.8168 30.5221 36.7931H30.5228ZM30.642 36.5908C30.6262 36.6144 30.6077 36.6453 30.5886 36.6775C30.5735 36.6775 30.5669 36.6637 30.5794 36.644C30.5801 36.6591 30.615 36.6158 30.642 36.5908ZM30.1765 36.8995C30.1883 36.8647 30.2009 36.8575 30.2101 36.8562C30.2028 36.8719 30.1943 36.8903 30.1844 36.9146C30.1851 36.9159 30.1857 36.9186 30.1864 36.9205C30.1818 36.914 30.1778 36.9074 30.1765 36.8995Z" fill="#2C2C2C"/>
<path d="M30.1886 36.9794C30.1867 36.9846 30.1867 36.9878 30.1841 36.9936C30.1905 36.9884 30.1957 36.9839 30.2015 36.9787C30.2002 36.9729 30.1989 36.9671 30.1976 36.9619C30.195 36.9677 30.1918 36.9736 30.1892 36.9794H30.1886Z" fill="#2C2C2C"/>
<path d="M40.547 18.5064L40.5442 18.5106C40.5442 18.5106 40.5505 18.5043 40.554 18.5029C40.5505 18.505 40.5498 18.505 40.547 18.5064Z" fill="#2C2C2C"/>
<path d="M32.2718 33.8008L32.2639 33.7965L32.2615 33.8171L32.2718 33.8008Z" fill="#2C2C2C"/>
<path d="M41.0959 17.3331C41.0998 17.3312 41.1042 17.3274 41.108 17.3185C41.1055 17.3185 41.1017 17.3255 41.0959 17.3331Z" fill="#2C2C2C"/>
<path d="M41.1646 16.7681L41.1776 16.6866C41.1698 16.7221 41.1665 16.7477 41.1646 16.7681Z" fill="#2C2C2C"/>
<path d="M41.1422 16.3246C41.1352 16.3201 41.13 16.3195 41.1255 16.3195L41.1422 16.3246Z" fill="#2C2C2C"/>
<path d="M38.4666 22.5228C38.464 22.528 38.4621 22.5331 38.4602 22.5376C38.448 22.5743 38.4583 22.5505 38.4666 22.5228Z" fill="#2C2C2C"/>
<path d="M39.4157 20.7382C39.4105 20.7597 39.4053 20.7813 39.3975 20.8022C39.4183 20.7728 39.4333 20.7493 39.4157 20.7382Z" fill="#2C2C2C"/>
<path d="M37.4077 24.517C37.4051 24.521 37.4031 24.5242 37.4011 24.5288L37.4083 24.517H37.4077Z" fill="#2C2C2C"/>
<path d="M39.3477 20.8826C39.3727 20.8557 39.3872 20.8288 39.397 20.8025C39.3799 20.8268 39.3582 20.8544 39.3477 20.8826Z" fill="#2C2C2C"/>
<path d="M40.0832 14.7643L40.0681 14.7515C40.0681 14.7515 40.0651 14.7546 40.0632 14.7546L40.0832 14.7643Z" fill="#2C2C2C"/>
<path d="M40.0613 14.754L40.0413 14.7443C40.0491 14.7503 40.0564 14.7552 40.0613 14.754Z" fill="#2C2C2C"/>
<path d="M39.9961 14.7226L40.0408 14.7438C40.0272 14.7342 40.011 14.7207 39.9961 14.7226Z" fill="#2C2C2C"/>
<path d="M40.512 15.1612L40.5257 15.1568C40.5213 15.1561 40.517 15.1574 40.512 15.1612Z" fill="#2C2C2C"/>
<path d="M40.6348 15.2908C40.6092 15.2573 40.5887 15.1877 40.5387 15.1535L40.5269 15.1568C40.5631 15.1614 40.592 15.275 40.6348 15.2908Z" fill="#2C2C2C"/>
<path d="M40.8738 15.9877C40.8587 15.9437 40.8448 15.8984 40.8277 15.855C40.8257 15.8833 40.8218 15.9201 40.7915 15.8656C40.8238 16.0416 40.8073 15.8183 40.8738 15.9877Z" fill="#2C2C2C"/>
<path d="M40.9723 16.4055C40.9519 16.3339 40.9519 16.4101 40.9434 16.4074C40.9651 16.4508 40.9703 16.4619 40.9723 16.4055Z" fill="#2C2C2C"/>
<path d="M40.055 19.3806L40.0297 19.3581C40.0051 19.4108 40.0407 19.3645 40.055 19.3806Z" fill="#2C2C2C"/>
<path d="M39.8967 20.0018L39.9448 19.9624L39.9323 19.923L39.8967 20.0018Z" fill="#2C2C2C"/>
<path d="M39.5047 20.1923L39.514 20.1673L39.4731 20.2593L39.5047 20.1923Z" fill="#2C2C2C"/>
<path d="M36.8181 24.9071L36.8622 24.9116C36.8751 24.8737 36.8389 24.8441 36.8181 24.9071Z" fill="#2C2C2C"/>
<path d="M35.7153 26.9737C35.685 26.9862 35.6409 27.0368 35.6389 27.0821C35.6672 27.0374 35.7067 26.9993 35.7153 26.9737Z" fill="#2C2C2C"/>
<path d="M32.2771 33.097L32.2876 33.049L32.2554 33.1324L32.2771 33.097Z" fill="#2C2C2C"/>
<path d="M28.3923 46.6474C28.4001 46.6364 28.3956 46.6113 28.3742 46.6158L28.3586 46.6583L28.3923 46.6467V46.6474Z" fill="#2C2C2C"/>
<path d="M28.2453 46.5673C28.2196 46.5883 28.1899 46.6251 28.2064 46.6651C28.2321 46.6231 28.238 46.6408 28.2657 46.5909C28.2874 46.5857 28.3038 46.6047 28.3006 46.6211C28.3085 46.61 28.3348 46.631 28.3466 46.6034C28.3183 46.5699 28.2821 46.5686 28.2439 46.5962C28.236 46.5863 28.2439 46.5751 28.2453 46.5673Z" fill="#2C2C2C"/>
<path d="M26.1016 46.5002L26.1149 46.5054C26.1111 46.5028 26.1066 46.5009 26.1016 46.5002Z" fill="#2C2C2C"/>
<path d="M24.774 46.4762C24.7833 46.4749 24.7877 46.4712 24.7884 46.4674C24.7796 46.4699 24.7721 46.4724 24.774 46.4762Z" fill="#2C2C2C"/>
<path d="M24.5471 46.4287C24.5518 46.4301 24.5565 46.4307 24.5605 46.4314C24.5552 46.4274 24.5498 46.4253 24.5471 46.4287Z" fill="#2C2C2C"/>
<path d="M26.1011 46.5L26.0661 46.4865C26.0635 46.5006 26.0843 46.4967 26.1011 46.5Z" fill="#2C2C2C"/>
<path d="M27.95 46.6715C27.9566 46.6697 27.9627 46.6661 27.9675 46.6612C27.9621 46.663 27.9566 46.6642 27.9512 46.6654C27.9512 46.6679 27.9512 46.6697 27.95 46.6715Z" fill="#2C2C2C"/>
<path d="M26.688 46.4634H26.6977C26.7007 46.4586 26.7031 46.4531 26.7062 46.447L26.688 46.4634Z" fill="#2C2C2C"/>
<path d="M27.1369 46.4582C27.1273 46.4569 27.1235 46.493 27.1196 46.5084C27.1254 46.4936 27.1324 46.4865 27.1414 46.4833C27.1414 46.4762 27.1401 46.4685 27.1369 46.4576V46.4582Z" fill="#2C2C2C"/>
<path d="M27.8489 46.5227L27.8616 46.5173C27.8616 46.5173 27.8529 46.5207 27.8489 46.5227Z" fill="#2C2C2C"/>
<path d="M26.366 46.4569C26.3653 46.4516 26.3634 46.4464 26.3621 46.4438C26.3621 46.4484 26.3634 46.453 26.366 46.4569Z" fill="#2C2C2C"/>
<path d="M13.7984 46.7374C13.7984 46.7374 13.7984 46.7323 13.7984 46.7302C13.7955 46.7345 13.7947 46.7374 13.7984 46.7374Z" fill="#2C2C2C"/>
<path d="M13.2773 46.5541L13.2848 46.552C13.2854 46.5446 13.2861 46.5379 13.2861 46.5311L13.2773 46.5547V46.5541Z" fill="#2C2C2C"/>
<path d="M24.1323 46.3813C24.1323 46.3813 24.1336 46.3813 24.1343 46.382C24.1453 46.3781 24.1388 46.3787 24.1323 46.3813Z" fill="#2C2C2C"/>
<path d="M20.3223 46.4089C20.3658 46.4418 20.2519 46.4516 20.317 46.4878C20.3111 46.4733 20.3763 46.43 20.3223 46.4089Z" fill="#2C2C2C"/>
<path d="M27.9371 46.6678C27.9317 46.6678 27.9256 46.6684 27.9202 46.6678C27.928 46.669 27.9329 46.669 27.9371 46.6678Z" fill="#2C2C2C"/>
<path d="M20.3174 46.4884L20.3248 46.4929C20.3248 46.4929 20.3196 46.4899 20.3174 46.4884Z" fill="#2C2C2C"/>
<path d="M23.1763 46.4037C23.1781 46.41 23.1819 46.4143 23.1856 46.4193C23.1856 46.4156 23.1831 46.4112 23.1763 46.4037Z" fill="#2C2C2C"/>
<path d="M23.8872 46.4558L23.8708 46.451C23.8775 46.454 23.8824 46.4552 23.8872 46.4558Z" fill="#2C2C2C"/>
<path d="M22.807 46.4557C22.7969 46.453 22.7942 46.4476 22.7808 46.453C22.7821 46.455 22.7835 46.4564 22.7848 46.4577C22.7895 46.4523 22.7962 46.4503 22.807 46.4564V46.4557Z" fill="#2C2C2C"/>
<path d="M22.4209 46.4562C22.4209 46.4562 22.4251 46.4611 22.4276 46.4629C22.4312 46.4623 22.4354 46.4617 22.4391 46.4611L22.4215 46.4562H22.4209Z" fill="#2C2C2C"/>
<path d="M14.9675 46.7176C14.959 46.7074 14.9539 46.6964 14.95 46.6855C14.9558 46.7112 14.9001 46.7202 14.9675 46.7176Z" fill="#2C2C2C"/>
<path d="M27.9493 46.652C27.9474 46.6609 27.9442 46.6653 27.9385 46.6672C27.9429 46.6672 27.9467 46.666 27.9505 46.6653C27.9518 46.6602 27.9518 46.6552 27.9493 46.652Z" fill="#2C2C2C"/>
<path d="M22.7888 46.7471L22.7285 46.7419C22.7454 46.7452 22.7674 46.7471 22.7888 46.7471Z" fill="#2C2C2C"/>
<path d="M17.7296 46.7124L17.7163 46.7169C17.7214 46.7175 17.7265 46.7169 17.7296 46.7124Z" fill="#2C2C2C"/>
<path d="M22.5472 46.7467C22.5362 46.7338 22.5251 46.7268 22.5135 46.7216C22.5109 46.7242 22.5083 46.7268 22.5063 46.7313L22.5472 46.7467Z" fill="#2C2C2C"/>
<path d="M14.5474 46.7729C14.606 46.7742 14.5751 46.7256 14.587 46.6973C14.6567 46.6835 14.6192 46.7328 14.6429 46.7577C14.6864 46.7446 14.7199 46.7006 14.7522 46.7019C14.7548 46.7098 14.7608 46.7131 14.7535 46.7229C14.7996 46.6842 14.8898 46.721 14.9431 46.6724C14.9471 46.677 14.9491 46.6809 14.9504 46.6842C14.9418 46.6599 14.9405 46.6349 14.9425 46.6178C14.9688 46.6172 14.9912 46.587 15.0011 46.6191C14.9853 46.6185 14.984 46.631 14.9761 46.6408L15.0037 46.627C15.0281 46.6724 14.9662 46.6428 14.9662 46.6763C15.0195 46.6612 15.0821 46.6237 15.1229 46.6369C15.1314 46.6815 15.0274 46.652 15.0821 46.6914L15.0189 46.6743C15.0669 46.7446 14.9807 46.6697 15.0248 46.7446C15.1084 46.7577 15.1183 46.7216 15.2012 46.7348C15.2197 46.7098 15.1953 46.698 15.2137 46.673C15.3316 46.6283 15.3066 46.7853 15.3935 46.7256C15.4159 46.696 15.4244 46.6395 15.4863 46.6691L15.4652 46.7196C15.5462 46.7249 15.5113 46.6474 15.5956 46.6809C15.5805 46.7006 15.5324 46.6973 15.5442 46.7039C15.5989 46.744 15.5831 46.675 15.6252 46.675L15.6338 46.7196C15.7194 46.7124 15.8142 46.6802 15.909 46.6724C15.9037 46.6855 15.8873 46.6999 15.9096 46.7131C16.0295 46.6907 16.1658 46.7183 16.2816 46.7453L16.3257 46.7065C16.3363 46.7065 16.3448 46.7242 16.3336 46.7315C16.3791 46.7459 16.3363 46.7072 16.3573 46.6921C16.383 46.6894 16.3909 46.7144 16.3751 46.7256C16.4548 46.6927 16.6016 46.6553 16.6859 46.6967L16.6694 46.7078C16.7346 46.7236 16.7432 46.629 16.8037 46.6645L16.7919 46.671C16.9334 46.6875 17.0901 46.6526 17.1981 46.7105C17.2185 46.6546 17.3383 46.7354 17.3475 46.6579C17.4285 46.696 17.4055 46.7105 17.5194 46.7361C17.5497 46.7394 17.5648 46.6875 17.6023 46.6796V46.7203L17.6544 46.6776L17.6814 46.7262L17.7169 46.7157C17.7031 46.7131 17.6873 46.6973 17.6893 46.6861C17.7446 46.6678 17.8236 46.7144 17.8249 46.7354L17.9552 46.7013C17.9526 46.7177 17.9302 46.7229 17.9131 46.7334C17.9829 46.6921 17.9256 46.7761 17.9895 46.738C17.9809 46.7288 17.9941 46.7137 17.9954 46.7059C18.027 46.7302 18.0994 46.7308 18.1534 46.7203L18.1429 46.7479C18.2397 46.7551 18.347 46.7348 18.4556 46.7348C18.4168 46.7216 18.4253 46.6737 18.4576 46.6684L18.4701 46.7111C18.4905 46.6848 18.4372 46.6947 18.4793 46.6625C18.5201 46.6678 18.5063 46.7111 18.4833 46.7249L18.5326 46.7098C18.5353 46.7223 18.5241 46.7295 18.5208 46.7453C18.5412 46.719 18.6057 46.788 18.6353 46.742L18.638 46.7545C18.7466 46.7545 18.796 46.74 18.8842 46.738C18.8862 46.7013 18.9204 46.7091 18.9468 46.6796C19.0119 46.6914 19.0837 46.7203 19.1621 46.717C19.2167 46.6986 19.1779 46.6855 19.2029 46.6638C19.2068 46.6973 19.2852 46.694 19.2444 46.7183C19.3385 46.7131 19.3642 46.7118 19.4833 46.6842C19.4702 46.6704 19.4557 46.6645 19.4636 46.6526C19.4853 46.6474 19.513 46.6664 19.5097 46.6829L19.5038 46.6861C19.6367 46.6356 19.8112 46.784 19.9179 46.7137L19.912 46.717L20.0219 46.6802C20.0726 46.6861 19.9916 46.7052 20.0291 46.7262C20.1477 46.6697 20.2168 46.7341 20.3149 46.6967C20.3906 46.7958 20.5835 46.6894 20.6856 46.7531L20.6796 46.7295C20.706 46.7065 20.7119 46.7426 20.731 46.7485C20.7283 46.7302 20.702 46.7275 20.7185 46.7151C20.9423 46.6868 21.18 46.7492 21.4098 46.7702C21.4934 46.7768 21.4572 46.6494 21.5632 46.7052L21.5329 46.7485C21.7021 46.6967 21.8792 46.7505 22.0451 46.7059C22.0352 46.7157 22.0352 46.7288 22.0188 46.7288C22.0537 46.7604 22.1485 46.7302 22.1491 46.7045C22.1748 46.7072 22.1551 46.7275 22.1709 46.7407C22.2058 46.7591 22.2591 46.7006 22.2775 46.7315C22.2808 46.7367 22.2676 46.742 22.2611 46.744C22.2841 46.7288 22.3677 46.7479 22.346 46.7111C22.4085 46.7282 22.4652 46.6947 22.5145 46.7164C22.5468 46.6756 22.6212 46.7361 22.6311 46.6783C22.6265 46.7374 22.7404 46.7262 22.7792 46.698C22.766 46.7157 22.8134 46.7164 22.7983 46.7413C22.8431 46.7407 22.8845 46.7295 22.8766 46.6986C22.9596 46.7696 23.0426 46.6415 23.0893 46.7328C23.2223 46.7006 23.3461 46.6789 23.4659 46.6651C23.4613 46.7242 23.3336 46.671 23.3382 46.7334C23.4521 46.7091 23.5179 46.6579 23.6305 46.6724C23.6595 46.6802 23.614 46.698 23.6042 46.7085C23.7181 46.6842 23.8241 46.7137 23.9255 46.6815C23.9255 46.6868 23.9143 46.6934 23.9037 46.6973C23.9235 46.6953 23.9498 46.7059 23.9478 46.6789L23.9287 46.6861C23.8971 46.6467 24.0077 46.6047 24.0117 46.5837C23.9781 46.6612 24.1118 46.6027 24.0578 46.7006C24.071 46.6953 24.0874 46.6829 24.0841 46.6645C24.1039 46.6697 24.1098 46.6802 24.09 46.7006C24.1612 46.6861 24.1361 46.6572 24.2007 46.6579C24.2007 46.671 24.1875 46.6763 24.1809 46.6914C24.2138 46.6658 24.2467 46.6408 24.3014 46.6513C24.2981 46.6592 24.3047 46.6697 24.2882 46.6691C24.3824 46.6651 24.4482 46.6014 24.5516 46.6257C24.5213 46.6822 24.5865 46.6441 24.5924 46.6934L24.6477 46.6789L24.6253 46.6553C24.674 46.6559 24.7168 46.6205 24.7583 46.6362L24.7221 46.6566L24.813 46.6474L24.7616 46.629C24.811 46.6034 24.7563 46.5673 24.8209 46.5804C24.8077 46.5856 24.8696 46.5804 24.8946 46.61C24.9183 46.5942 24.9433 46.5778 24.9789 46.5902C24.9881 46.606 24.9716 46.6448 24.9775 46.6546C25.0012 46.6139 25.0914 46.6435 25.1211 46.5994C25.1112 46.61 25.1105 46.6356 25.1138 46.6408L25.1336 46.6073C25.156 46.6178 25.1593 46.6231 25.156 46.6435C25.2238 46.6494 25.1342 46.581 25.2146 46.608C25.208 46.6106 25.2113 46.6159 25.1981 46.6205C25.2784 46.6343 25.3535 46.5994 25.4279 46.6159C25.4496 46.6651 25.3634 46.6277 25.3884 46.6697C25.495 46.6605 25.6096 46.6106 25.713 46.6224L25.6939 46.6172C25.7084 46.5475 25.7709 46.6513 25.8229 46.6185C25.8104 46.6237 25.8064 46.6572 25.8097 46.6494C25.8802 46.6605 25.9546 46.6323 26.0619 46.6106L26.0487 46.6283C26.0902 46.6441 26.1587 46.6375 26.2035 46.6454C26.2166 46.6277 26.2423 46.6303 26.2272 46.6047C26.3661 46.7065 26.4918 46.5502 26.6156 46.6349C26.6011 46.6349 26.5807 46.6507 26.5919 46.6507L26.6966 46.6343C26.688 46.604 26.6828 46.6159 26.661 46.5922C26.6742 46.5745 26.7038 46.56 26.7302 46.56C26.6828 46.5804 26.7302 46.6086 26.7512 46.6257C26.7479 46.6165 26.7545 46.606 26.7532 46.5968C26.8078 46.6507 26.7624 46.5357 26.8375 46.5719L26.8335 46.5876C26.8618 46.5797 26.8875 46.5587 26.9178 46.5627C26.9303 46.5975 26.8882 46.5791 26.8862 46.608C26.9283 46.606 26.9698 46.5416 27.008 46.5765C26.9902 46.5863 26.9639 46.5863 26.9461 46.5962C26.9882 46.6375 26.9929 46.627 27.0238 46.6336H27.0205L27.0923 46.6513L27.0738 46.6402C27.1272 46.5489 27.1818 46.6237 27.2536 46.5633C27.1838 46.6198 27.2424 46.5962 27.2371 46.6362C27.2555 46.6474 27.2832 46.6599 27.2753 46.671C27.3089 46.6389 27.3319 46.6967 27.3793 46.6494C27.3813 46.6618 27.4155 46.6507 27.4076 46.6829C27.4517 46.673 27.3971 46.6605 27.4011 46.6448C27.4689 46.6008 27.5604 46.698 27.6578 46.6375C27.7421 46.6126 27.7572 46.5699 27.8356 46.5482C27.8619 46.5686 27.8139 46.5948 27.8139 46.5948C27.8567 46.6139 27.8883 46.61 27.9284 46.5955C27.9205 46.6067 27.9284 46.6159 27.9409 46.6303C27.9732 46.627 27.9627 46.5837 28.0048 46.6027C27.9975 46.6172 27.9883 46.6402 27.9725 46.654C28.0101 46.6421 28.0476 46.6185 28.0871 46.6067C28.0976 46.629 28.0634 46.6408 28.0496 46.6553C28.0937 46.6454 28.1635 46.6349 28.1773 46.5994L28.149 46.587C28.1648 46.585 28.1575 46.6172 28.1457 46.6237C28.1082 46.6513 28.091 46.6113 28.0891 46.5988L28.1167 46.5909C28.0877 46.516 28.0048 46.6027 27.9482 46.5988L27.9719 46.5443L27.9139 46.5896C27.9014 46.5751 27.8935 46.5449 27.9212 46.5364C27.881 46.5095 27.8856 46.5561 27.8507 46.5259C27.8468 46.5213 27.8488 46.5186 27.852 46.5167L27.8125 46.5331C27.8204 46.5219 27.806 46.4943 27.8303 46.5022C27.7599 46.4707 27.7164 46.543 27.6901 46.5022L27.696 46.4989C27.5979 46.5173 27.6868 46.539 27.6131 46.5863L27.5637 46.4871L27.5538 46.5272C27.5439 46.5259 27.5235 46.5226 27.5275 46.5068C27.4899 46.5344 27.534 46.5246 27.5123 46.5502C27.4636 46.5134 27.378 46.5673 27.3675 46.5035C27.3497 46.5338 27.4142 46.5272 27.3622 46.5482C27.3471 46.4792 27.3023 46.56 27.2575 46.5285C27.2714 46.493 27.3135 46.5121 27.2687 46.4799C27.2417 46.5397 27.1825 46.4668 27.1449 46.4786C27.143 46.5265 27.0633 46.4983 27.0008 46.5147C27.0047 46.4989 26.8822 46.4884 26.8237 46.4714L26.8256 46.4635C26.8144 46.5114 26.7539 46.5029 26.7098 46.5127C26.7117 46.4838 26.7196 46.4727 26.7433 46.4595H26.7018C26.692 46.4753 26.6795 46.4832 26.6525 46.4891L26.663 46.453C26.6077 46.4549 26.5524 46.4957 26.4813 46.4714C26.4773 46.5049 26.5373 46.5653 26.4629 46.5876C26.4602 46.5692 26.4576 46.5384 26.4767 46.5311C26.4701 46.5338 26.4536 46.5462 26.4411 46.5384L26.4708 46.5075C26.4385 46.4943 26.4536 46.5331 26.428 46.5305C26.428 46.5042 26.4089 46.5121 26.4128 46.4911C26.4194 46.4884 26.4352 46.5016 26.4451 46.4911C26.4161 46.4865 26.3812 46.4714 26.3694 46.4516C26.372 46.4661 26.3694 46.4865 26.3483 46.4897C26.293 46.4917 26.3292 46.4582 26.2976 46.4451C26.2844 46.4628 26.2495 46.4451 26.2482 46.4832C26.2324 46.4832 26.2291 46.4648 26.2232 46.4543C26.1949 46.4714 26.0902 46.4589 26.1225 46.5003L26.1297 46.5029C26.1297 46.5029 26.1271 46.5035 26.1251 46.5049C26.0316 46.5436 25.9315 46.4832 25.8387 46.4996V46.4865C25.7834 46.5016 25.7156 46.495 25.6761 46.5232C25.6596 46.5232 25.6372 46.4996 25.6445 46.4838C25.6024 46.4937 25.5977 46.5081 25.5365 46.4865C25.5793 46.4641 25.522 46.4661 25.58 46.47C25.5253 46.4589 25.5128 46.4379 25.4536 46.4733C25.4733 46.4398 25.4121 46.4313 25.3864 46.4411L25.4246 46.4648C25.395 46.4694 25.3693 46.4668 25.3436 46.4641L25.3574 46.4201C25.2448 46.3669 25.1547 46.5108 25.0691 46.4214C25.0394 46.4523 25.1303 46.4431 25.1033 46.4786C25.0519 46.4727 24.998 46.4103 24.9815 46.4096C24.911 46.3853 24.9157 46.4733 24.8413 46.4569C24.8505 46.4727 24.8597 46.5141 24.8044 46.5285C24.7524 46.5226 24.7405 46.4628 24.7734 46.4503C24.786 46.449 24.7919 46.4543 24.7912 46.4595C24.8077 46.4536 24.8301 46.4471 24.8097 46.43L24.8031 46.4457C24.7774 46.43 24.7063 46.4313 24.7228 46.4057C24.6839 46.4208 24.7063 46.4313 24.7353 46.4392C24.6688 46.4168 24.6319 46.4385 24.5634 46.4234C24.574 46.4319 24.5845 46.4503 24.5733 46.4503C24.4732 46.4313 24.5292 46.4799 24.4614 46.4865C24.4225 46.4628 24.4752 46.43 24.4067 46.4497C24.3653 46.4339 24.3982 46.4083 24.4146 46.3958C24.3527 46.426 24.2981 46.3761 24.2625 46.3709L24.2955 46.3584C24.2757 46.3656 24.2599 46.3656 24.2434 46.3656L24.2619 46.3965C24.2428 46.3912 24.2263 46.3912 24.227 46.3781C24.2072 46.3984 24.2421 46.43 24.2026 46.4576C24.177 46.4418 24.1243 46.4746 24.1157 46.4333C24.1967 46.447 24.1065 46.3919 24.175 46.3853C24.1618 46.3906 24.146 46.3899 24.1263 46.3846C24.1236 46.38 24.1289 46.3761 24.1342 46.3735C24.0571 46.3367 24.0986 46.4201 24.0189 46.4195C24.0288 46.3958 24.0005 46.3755 23.9873 46.38C24.0196 46.38 24.0025 46.4188 23.9735 46.4365C23.9222 46.4181 23.9176 46.4503 23.8912 46.4477L23.9222 46.4562C23.9116 46.4792 23.8859 46.4766 23.8504 46.4838C23.8471 46.4654 23.8827 46.4714 23.8701 46.4635C23.8306 46.5042 23.7806 46.4208 23.7253 46.4484C23.6996 46.4326 23.7227 46.4044 23.7003 46.3938C23.6384 46.4241 23.6331 46.3617 23.5679 46.3866C23.587 46.4181 23.5903 46.4103 23.5442 46.4411L23.6516 46.4188L23.5831 46.4641C23.6154 46.4641 23.6516 46.4444 23.6707 46.4497C23.6377 46.4753 23.641 46.4674 23.6568 46.4937C23.6127 46.4464 23.5693 46.5213 23.5179 46.4891L23.5192 46.4116C23.4422 46.3768 23.3823 46.4516 23.2829 46.4319L23.3151 46.4457C23.302 46.4766 23.2532 46.4503 23.221 46.4628C23.2243 46.4365 23.2039 46.4273 23.19 46.4116C23.192 46.4306 23.117 46.4096 23.1077 46.4615L23.063 46.4273C22.982 46.4135 22.9708 46.5009 22.8931 46.4924C22.9162 46.4641 22.8813 46.4457 22.9333 46.4254C22.9076 46.4254 22.8839 46.4201 22.8839 46.4385C22.8687 46.4221 22.8121 46.4733 22.7884 46.449C22.7772 46.4602 22.7739 46.4878 22.745 46.4851C22.7417 46.4799 22.745 46.4727 22.745 46.4727C22.745 46.4851 22.6995 46.4904 22.7246 46.5186C22.6449 46.4379 22.5014 46.5246 22.4322 46.4549C22.3756 46.4635 22.3078 46.472 22.2565 46.474C22.2597 46.4661 22.2565 46.4608 22.2663 46.4635C22.1959 46.4392 22.2229 46.5377 22.1425 46.5108C22.1017 46.4687 22.1853 46.4878 22.1597 46.472C22.1485 46.3866 22.0622 46.4838 22.0082 46.4339L22.0214 46.4287C21.9799 46.3998 21.92 46.4608 21.8529 46.4549C21.8529 46.4549 21.8562 46.4477 21.8529 46.4418C21.8068 46.4851 21.7192 46.4996 21.654 46.5121C21.6744 46.4786 21.6837 46.4943 21.6711 46.4602C21.6422 46.4648 21.6797 46.5147 21.6218 46.5239C21.6027 46.5055 21.5605 46.4897 21.5553 46.4536L21.6099 46.4516C21.5816 46.405 21.5388 46.453 21.5098 46.4451L21.5138 46.4247C21.4295 46.4313 21.4282 46.4832 21.338 46.4792L21.3472 46.495C21.2978 46.5462 21.3057 46.4661 21.2564 46.5042L21.2412 46.4523C21.2083 46.4648 21.1267 46.5022 21.0681 46.5121C21.101 46.4733 21.1695 46.4543 21.2123 46.4313C21.18 46.4313 21.1023 46.4352 21.0852 46.4608C21.0984 46.4556 21.1148 46.4431 21.1273 46.451C21.0878 46.4917 21.0352 46.5121 20.9706 46.5108C20.9818 46.4103 20.8027 46.4851 20.756 46.4076C20.6421 46.4451 20.5295 46.3919 20.3972 46.3978C20.4446 46.476 20.3583 46.3998 20.3669 46.4805C20.3359 46.4858 20.3241 46.4845 20.3215 46.4792L20.228 46.4313C20.2056 46.4076 20.2576 46.4135 20.2543 46.3958C20.1865 46.3899 20.226 46.3617 20.1812 46.3406C20.1904 46.3695 20.1575 46.382 20.1193 46.3709L20.174 46.4076C20.0792 46.4503 20.0923 46.34 19.9969 46.3827L20.0272 46.3577C19.9784 46.3728 19.8468 46.3577 19.7987 46.4221C19.7902 46.4129 19.7783 46.3906 19.8 46.3853C19.6828 46.3755 19.5393 46.4543 19.4484 46.4142L19.457 46.3945C19.4353 46.4004 19.4188 46.4313 19.3918 46.4116C19.3931 46.4037 19.4004 46.3919 19.3905 46.3906C19.3787 46.3971 19.3326 46.4247 19.3036 46.4136L19.3286 46.3912C19.2147 46.3656 19.1535 46.4451 19.0574 46.4582C19.0574 46.4004 18.9678 46.3814 18.9231 46.3722L18.9244 46.3643C18.7914 46.3571 18.6986 46.4122 18.5754 46.4352C18.4991 46.3722 18.3167 46.409 18.1936 46.3735C18.2127 46.384 18.1903 46.4188 18.1686 46.4241C18.1396 46.4122 18.0889 46.4641 18.0935 46.4109L18.104 46.4122C18.0823 46.3603 18.0231 46.3741 17.977 46.3728L17.9691 46.4425C17.8479 46.3413 17.6524 46.4792 17.5859 46.3892C17.5569 46.4063 17.5207 46.4063 17.4917 46.4234L17.4931 46.386C17.4121 46.3768 17.3719 46.3722 17.2718 46.3807L17.2922 46.3538C17.2356 46.3511 17.2211 46.4608 17.1691 46.4635L17.1533 46.4076C17.0552 46.4083 16.9552 46.3597 16.8584 46.4103C16.8597 46.4024 16.863 46.386 16.8788 46.384C16.8327 46.3827 16.6997 46.3465 16.7162 46.4227C16.7148 46.3728 16.6148 46.4181 16.5614 46.4398L16.57 46.403C16.5252 46.4497 16.5239 46.4628 16.4614 46.4753C16.4462 46.4707 16.4482 46.4457 16.468 46.4556C16.4186 46.4365 16.4291 46.4904 16.3692 46.4707L16.3916 46.447C16.3409 46.4444 16.3448 46.4569 16.3165 46.4838C16.2843 46.4983 16.2197 46.4746 16.2125 46.4418C16.2059 46.4622 16.1776 46.4891 16.148 46.4792C16.144 46.4668 16.1546 46.4589 16.1605 46.4549C16.0756 46.43 16.0341 46.4976 15.9755 46.4615C15.9742 46.449 15.9702 46.4431 15.9656 46.4398C16.0334 46.4405 16.0874 46.4425 16.0828 46.4451C16.0828 46.4116 16.0282 46.4057 16.0716 46.359C16.0275 46.3846 15.9531 46.4398 15.8998 46.4241C15.8971 46.4208 15.8945 46.4175 15.8925 46.4122L15.8978 46.4083C15.8853 46.405 15.8747 46.4083 15.8642 46.4136C15.8471 46.4083 15.8366 46.4037 15.8201 46.4037C15.8135 46.3761 15.7576 46.3886 15.7306 46.3873C15.7325 46.4241 15.697 46.4181 15.7306 46.449C15.726 46.4464 15.7358 46.4444 15.7536 46.4431C15.7576 46.4418 15.7628 46.4418 15.7655 46.4392C15.7655 46.4405 15.7641 46.4411 15.7635 46.4425C15.7813 46.4411 15.805 46.4405 15.8313 46.4398C15.8096 46.4589 15.7872 46.4746 15.7569 46.4536C15.7431 46.4773 15.7273 46.5016 15.7187 46.5134C15.6812 46.4622 15.6094 46.4339 15.5995 46.4024C15.5166 46.4234 15.404 46.4162 15.3513 46.4858C15.3276 46.495 15.3243 46.4661 15.3151 46.4549C15.3289 46.4477 15.3448 46.449 15.3527 46.4392C15.3052 46.4569 15.2124 46.4464 15.2012 46.4943C15.142 46.4727 15.2348 46.4497 15.1532 46.4576L15.1644 46.4425C15.003 46.3649 14.9023 46.5659 14.7239 46.4668C14.7364 46.4727 14.7423 46.476 14.745 46.4838C14.5415 46.4398 14.3256 46.5252 14.1248 46.4556C14.0675 46.4418 14.0616 46.4727 14.0267 46.4963L14.0142 46.4569L13.9549 46.5029C13.8706 46.5364 13.8087 46.4057 13.7014 46.4687L13.7153 46.4957C13.6771 46.4904 13.5935 46.5114 13.6 46.4805C13.5961 46.4851 13.5875 46.5081 13.5724 46.4943L13.5711 46.4733L13.4769 46.5088C13.4038 46.4937 13.4881 46.4267 13.3815 46.4221C13.342 46.43 13.2682 46.4825 13.2834 46.4963C13.2992 46.4976 13.3242 46.5095 13.3255 46.5298L13.2893 46.5403C13.2827 46.6014 13.255 46.6638 13.3439 46.7072L13.4058 46.6697L13.4256 46.6993L13.3736 46.7013C13.4032 46.7288 13.4223 46.7045 13.4427 46.6875C13.4479 46.7032 13.4565 46.7144 13.469 46.7203L13.5302 46.6618C13.5375 46.6855 13.5026 46.7091 13.5441 46.7223C13.5724 46.6953 13.5164 46.6684 13.5638 46.6507C13.5935 46.6783 13.5849 46.7013 13.6198 46.6776C13.6244 46.6934 13.6172 46.7032 13.6033 46.7105C13.6343 46.6914 13.6856 46.7026 13.7014 46.6697C13.7324 46.7039 13.8061 46.6605 13.8028 46.719C13.8127 46.7052 13.8575 46.6737 13.8858 46.671C13.8338 46.7407 13.9924 46.675 13.9786 46.7492C14.0168 46.6868 14.1175 46.7216 14.186 46.6868C14.182 46.6921 14.1748 46.7019 14.1689 46.6986C14.2071 46.7039 14.2183 46.7223 14.2433 46.7341C14.2485 46.6829 14.3078 46.671 14.3401 46.6389C14.3868 46.6888 14.3117 46.6993 14.3262 46.7472C14.3236 46.7052 14.4079 46.7059 14.3921 46.671C14.4283 46.7019 14.423 46.6861 14.4414 46.7288C14.448 46.6645 14.475 46.7177 14.5047 46.6783C14.5567 46.7098 14.5178 46.7387 14.5751 46.719C14.6021 46.7387 14.5514 46.7617 14.5514 46.7617L14.5474 46.7729ZM15.909 46.6612C15.8971 46.6625 15.8873 46.6638 15.8807 46.6638C15.8866 46.6638 15.8945 46.6625 15.909 46.6612ZM16.0235 46.6612C16.0097 46.6599 15.9919 46.6592 15.9742 46.6599C15.9702 46.6474 15.9742 46.6343 15.986 46.6349C15.9794 46.6435 16.0064 46.6507 16.0235 46.6618V46.6612ZM15.7813 46.405C15.799 46.3998 15.8056 46.407 15.8076 46.4149C15.799 46.4149 15.7892 46.4168 15.776 46.4195C15.776 46.4208 15.7747 46.4221 15.774 46.4241C15.776 46.4168 15.778 46.4103 15.7813 46.4057V46.405Z" fill="#2C2C2C"/>
<path d="M15.7484 46.4529C15.7484 46.4529 15.7447 46.4554 15.7417 46.4554C15.7453 46.4584 15.7484 46.4608 15.7514 46.4632C15.7532 46.4596 15.7556 46.456 15.7575 46.4523C15.7544 46.4523 15.7514 46.4523 15.7484 46.4523V46.4529Z" fill="#2C2C2C"/>
<path d="M26.1184 46.5062H26.1155C26.1155 46.5062 26.1199 46.5084 26.1214 46.5114C26.1199 46.5091 26.1199 46.5084 26.1184 46.5062Z" fill="#2C2C2C"/>
<path d="M17.6035 46.7312V46.7216L17.5925 46.7299L17.6035 46.7312Z" fill="#2C2C2C"/>
<path d="M26.7483 46.6329C26.7483 46.6329 26.7519 46.6401 26.7576 46.643C26.7576 46.6401 26.7533 46.6365 26.7483 46.6329Z" fill="#2C2C2C"/>
<path d="M27.02 46.6408L27.0576 46.6537C27.0414 46.6466 27.0291 46.6427 27.02 46.6408Z" fill="#2C2C2C"/>
<path d="M27.2302 46.6587C27.2328 46.6523 27.2334 46.6479 27.234 46.6434L27.2302 46.6587Z" fill="#2C2C2C"/>
<path d="M23.9018 46.7032C23.9018 46.7032 23.897 46.7039 23.8945 46.7051C23.877 46.7117 23.8891 46.7093 23.9018 46.7032Z" fill="#2C2C2C"/>
<path d="M24.8937 46.6165C24.883 46.6232 24.8723 46.6298 24.8616 46.6344C24.8796 46.6371 24.8937 46.6378 24.8937 46.6165Z" fill="#2C2C2C"/>
<path d="M24.8147 46.6335C24.8322 46.6406 24.8465 46.6393 24.8601 46.6335C24.8458 46.631 24.829 46.6271 24.8147 46.6335Z" fill="#2C2C2C"/>
<path d="M28.1372 46.6759L28.1476 46.6773C28.1476 46.6773 28.1476 46.6724 28.149 46.671L28.1372 46.6759Z" fill="#2C2C2C"/>
<path d="M28.1484 46.672L28.1602 46.6671C28.1547 46.6671 28.1498 46.6671 28.1484 46.672Z" fill="#2C2C2C"/>
<path d="M28.1832 46.6579L28.1589 46.6673C28.167 46.6673 28.1778 46.6687 28.1832 46.6579Z" fill="#2C2C2C"/>
<path d="M27.86 46.6586L27.8567 46.6717C27.8567 46.6717 27.8593 46.6645 27.86 46.6586Z" fill="#2C2C2C"/>
<path d="M27.7756 46.6625C27.7954 46.6657 27.8263 46.6912 27.854 46.6827L27.8566 46.6723C27.8434 46.6919 27.7947 46.6402 27.7756 46.6625Z" fill="#2C2C2C"/>
<path d="M27.4236 46.4968L27.494 46.5072C27.4815 46.4928 27.4657 46.4739 27.4973 46.4706C27.4084 46.4281 27.5158 46.5026 27.4236 46.4968Z" fill="#2C2C2C"/>
<path d="M27.2054 46.476C27.243 46.4696 27.2054 46.4554 27.2067 46.4477C27.1827 46.4606 27.1775 46.4638 27.2054 46.476Z" fill="#2C2C2C"/>
<path d="M25.625 46.4759L25.6289 46.4431C25.6007 46.4476 25.6289 46.456 25.625 46.4759Z" fill="#2C2C2C"/>
<path d="M25.3235 46.6505L25.3514 46.6704L25.3643 46.6408L25.3235 46.6505Z" fill="#2C2C2C"/>
<path d="M25.1432 46.4108L25.1561 46.4063L25.1082 46.4185L25.1432 46.4108Z" fill="#2C2C2C"/>
<path d="M22.4897 46.4234L22.4981 46.4639C22.5173 46.4569 22.5211 46.4112 22.4897 46.4234Z" fill="#2C2C2C"/>
<path d="M21.3438 46.4659C21.3313 46.4457 21.299 46.432 21.2793 46.4522C21.305 46.4548 21.3307 46.4712 21.3438 46.4659Z" fill="#2C2C2C"/>
<path d="M17.9063 46.3988L17.929 46.3853L17.8862 46.3963L17.9063 46.3988Z" fill="#2C2C2C"/>
</g>
<defs>
<clipPath id="clip0_44559_136716">
<rect width="37.6392" height="46.4" fill="white" transform="translate(11.6531 8)"/>
</clipPath>
<clipPath id="clip1_44559_136716">
<rect width="27.9049" height="32.2853" fill="white" transform="translate(13.2756 14.4895)"/>
</clipPath>
</defs>
</svg>
